<svg width="442" height="442" viewBox="0 0 442 442" fill="none" xmlns="http://www.w3.org/2000/svg">
<g clip-path="url(#clip0_4009_1930)">
<path d="M324.206 -0.000946045C324.206 -0.000946045 324.059 -0.000946045 323.764 -0.000946045C322.88 -0.000946045 321.849 0.588379 320.67 1.76706L319.344 2.65106C311.977 10.3124 306.673 20.4784 303.432 33.1491C300.19 45.2304 299.159 57.459 300.338 69.8351C299.748 68.6564 299.454 67.7724 299.454 67.1831L299.012 66.7411C298.717 65.5624 298.275 64.7521 297.686 64.3101C297.096 63.8681 296.507 63.6471 295.918 63.6471C295.328 63.6471 294.739 63.9417 294.15 64.5311C293.561 64.8257 293.266 65.5624 293.266 66.7411C293.266 67.6251 293.413 68.9511 293.708 70.7191L294.15 71.6031L286.194 59.6691C273.229 40.2211 260.263 27.6977 247.298 22.0991C231.091 14.7324 218.568 11.7857 209.728 13.2591C205.897 13.5537 202.361 14.4377 199.12 15.9111C197.057 13.8484 194.847 12.6697 192.49 12.3751C191.311 12.0804 189.543 11.933 187.186 11.933C182.471 11.933 177.314 12.9644 171.716 15.0271C156.098 20.9204 142.396 30.1287 130.61 42.6521C118.823 55.1754 110.572 69.2457 105.858 84.8631C104.09 89.5777 103.206 94.5871 103.206 99.8911C103.206 101.07 103.942 101.806 105.416 102.101C106.889 102.396 107.773 101.954 108.068 100.775C113.666 87.5151 118.676 77.4964 123.096 70.7191C130.757 58.0484 140.481 48.4717 152.268 41.9891C161.697 36.9797 173.778 34.0331 188.512 33.1491C191.458 33.1491 195.142 33.5174 199.562 34.2541C203.982 34.9908 207.223 35.9484 209.286 37.1271C216.652 40.3684 222.398 44.4937 226.524 49.5031C229.47 53.3337 232.712 59.8164 236.248 68.951C237.132 70.7191 238.163 73.6657 239.342 77.791C240.815 82.8004 242.141 86.4837 243.32 88.8411C244.793 92.0824 247.445 96.7234 251.276 102.764C255.106 108.805 257.611 113.593 258.79 117.129C259.968 118.897 260.263 120.149 259.674 120.886C259.084 121.623 258.127 122.138 256.801 122.433C255.475 122.728 254.223 122.58 253.044 121.991C250.686 121.402 248.329 120.223 245.972 118.455C238.31 107.258 230.354 99.7437 222.104 95.9131C217.094 93.2611 209.286 91.9351 198.678 91.9351V91.493C199.267 90.9037 199.562 90.3144 199.562 89.7251L199.12 88.8411C198.825 88.2517 198.53 87.8098 198.236 87.5151C197.646 87.2204 196.91 87.0731 196.026 87.0731C186.596 87.9571 178.198 89.4304 170.832 91.493C170.242 91.493 169.653 91.6404 169.064 91.9351C168.474 92.2297 167.885 92.8191 167.296 93.7031L166.412 94.5871C165.822 95.4711 165.822 96.6497 166.412 98.1231C166.412 99.8911 167.296 102.248 169.064 105.195L169.948 106.079C170.537 106.963 171.126 107.552 171.716 107.847C172.895 108.436 174.515 108.436 176.578 107.847L188.954 103.869L183.65 110.057C178.051 116.54 175.694 122.728 176.578 128.621C176.872 129.8 177.462 130.61 178.346 131.052C179.23 131.494 180.261 131.42 181.44 130.831C191.753 124.054 200.446 120.665 207.518 120.665C212.527 120.96 217.757 122.286 223.209 124.643C228.66 127 233.007 129.8 236.248 133.041C236.542 133.336 236.616 133.63 236.469 133.925C236.321 134.22 236.248 134.367 236.248 134.367H235.806C226.376 130.831 217.831 128.474 210.17 127.295C206.044 126.706 201.624 127.074 196.91 128.4C192.195 129.726 188.217 131.715 184.976 134.367C184.092 134.956 183.797 135.767 184.092 136.798C184.386 137.829 184.976 138.492 185.86 138.787C189.985 139.966 195.584 141.144 202.656 142.323C208.844 143.502 214.148 143.944 218.568 143.649C220.63 143.649 223.061 143.207 225.861 142.323C228.66 141.439 230.354 140.408 230.944 139.229V138.787C230.354 137.314 228.439 136.282 225.198 135.693C221.662 135.693 219.304 135.84 218.126 136.135C207.223 139.082 196.615 139.671 186.302 137.903C185.712 137.608 185.344 137.166 185.197 136.577C185.049 135.988 185.049 135.619 185.197 135.472C185.344 135.325 185.418 135.251 185.418 135.251C188.659 132.599 192.563 130.61 197.131 129.284C201.698 127.958 205.897 127.59 209.728 128.179C219.746 130.242 228.292 132.599 235.364 135.251C235.953 135.546 236.542 135.325 237.132 134.588C237.721 133.851 237.721 133.188 237.132 132.599C233.89 128.768 229.397 125.674 223.651 123.317C217.905 120.96 212.527 119.781 207.518 119.781C203.098 119.486 198.383 120.518 193.374 122.875C190.132 124.054 185.86 126.411 180.556 129.947C179.966 130.242 179.377 130.242 178.788 129.947C178.198 129.652 177.756 129.21 177.462 128.621C177.167 122.728 179.524 116.687 184.534 110.499C186.891 107.552 188.954 105.195 190.722 103.427C200.74 100.48 209.433 99.7437 216.8 101.217C221.514 102.396 226.376 104.606 231.386 107.847C234.333 109.91 238.605 113.298 244.204 118.013L245.53 119.339C247.003 120.518 249.066 121.696 251.718 122.875L252.602 123.317C253.486 123.612 254.812 123.759 256.58 123.759C258.348 123.759 259.526 123.022 260.116 121.549C260.705 120.37 260.705 118.75 260.116 116.687C258.642 113.151 255.99 108.363 252.16 102.322C248.329 96.2814 245.677 91.6404 244.204 88.3991C243.32 86.3364 242.215 83.0214 240.889 78.4541C239.563 73.8867 238.458 70.5717 237.574 68.5091C233.743 59.3744 230.354 52.7444 227.408 48.6191C223.283 43.3151 217.389 39.0424 209.728 35.8011C207.076 34.9171 203.613 34.0331 199.341 33.1491C195.068 32.2651 191.458 31.9704 188.512 32.2651C173.484 33.1491 161.255 36.0957 151.826 41.1051C140.628 46.9984 130.757 56.575 122.212 69.8351C117.792 76.907 112.782 87.0731 107.184 100.333C106.594 101.217 105.931 101.585 105.195 101.438C104.458 101.291 104.09 100.775 104.09 99.8911C104.09 96.6497 104.974 91.7878 106.742 85.3051C111.456 69.6877 119.633 55.7647 131.273 43.5361C142.912 31.3074 156.54 22.2464 172.158 16.3531C180.114 13.1117 186.891 12.0804 192.49 13.2591C194.258 13.5537 196.173 14.7324 198.236 16.795C192.637 19.1524 188.512 22.8357 185.86 27.8451C185.27 29.0237 185.418 29.9077 186.302 30.497C186.891 31.381 187.775 31.6757 188.954 31.381C192.49 29.9077 195.436 28.1397 197.794 26.0771C198.972 25.1931 199.856 24.0144 200.446 22.541C201.33 20.4784 201.035 18.563 199.562 16.795C203.392 15.3217 206.781 14.4377 209.728 14.1431C219.746 12.9644 232.122 16.0584 246.856 23.4251C259.526 28.7291 272.344 41.1051 285.31 60.5531C289.141 65.8571 292.529 71.0137 295.476 76.0231C296.654 78.3804 297.98 80.2957 299.454 81.769L303.874 88.3991C305.052 93.1137 306.084 96.6497 306.968 99.0071C307.263 99.0071 307.41 99.0071 307.41 99.0071V99.4491C316.25 129.505 327.3 165.16 340.56 206.413C363.249 279.785 380.487 330.026 392.274 357.135C392.568 357.43 392.789 357.503 392.937 357.356C393.084 357.209 393.158 356.988 393.158 356.693C384.023 335.182 366.785 285.089 341.444 206.413C326.416 158.088 315.955 123.906 310.062 103.869C310.356 104.164 310.798 104.606 311.388 105.195L312.272 106.079H312.714C313.303 106.374 313.819 106.3 314.261 105.858C314.703 105.416 314.924 105.048 314.924 104.753C314.924 103.574 314.776 102.69 314.482 102.101C320.965 108.584 327.742 113.446 334.814 116.687C340.707 119.339 345.864 120.076 350.284 118.897C355.883 118.013 360.597 114.477 364.428 108.289V107.847H364.87C369.585 98.4177 370.469 90.6091 367.522 84.4211C365.459 79.4117 361.039 75.8757 354.262 73.813C353.378 73.2237 351.757 72.6344 349.4 72.045H348.516C351.168 69.3931 353.378 66.3727 355.146 62.984C356.914 59.5954 357.798 56.1331 357.798 52.5971C357.798 47.5877 356.177 42.1364 352.936 36.2431C346.159 22.9831 338.497 11.933 329.952 3.09305L329.068 2.20905C327.005 0.735718 325.384 -0.000946045 324.206 -0.000946045ZM324.206 0.883057C325.384 0.883057 327.005 1.9144 329.068 3.97705C337.908 13.1117 345.569 24.0144 352.052 36.6851C355.293 42.5784 356.914 47.8824 356.914 52.5971C356.914 59.3744 353.525 65.8571 346.748 72.045C342.033 71.1611 337.024 70.8664 331.72 71.1611C327.3 71.4557 323.911 72.045 321.554 72.929H321.112C317.576 74.1077 315.292 75.4337 314.261 76.907C313.229 78.3804 312.714 80.0011 312.714 81.769C312.419 82.653 312.935 83.9054 314.261 85.5261C315.587 87.1468 317.134 87.6624 318.902 87.0731C319.786 87.0731 321.259 86.7784 323.322 86.1891L324.206 85.7471C334.224 81.9164 341.591 78.0857 346.306 74.2551L346.748 73.813C346.748 73.5184 346.895 73.3711 347.19 73.3711C349.547 73.3711 351.757 73.8131 353.82 74.6971C360.302 76.7597 364.575 80.1484 366.638 84.8631C368.995 90.4617 367.964 97.9757 363.544 107.405C360.008 113.593 355.44 117.129 349.842 118.013C345.127 118.897 340.265 118.16 335.256 115.803C329.068 113.151 322.143 107.994 314.482 100.333C312.714 98.5651 309.915 95.0291 306.084 89.7251L304.758 87.9571V87.0731L302.106 77.3491C300.043 64.0891 300.485 50.8291 303.432 37.5691C306.673 23.1304 312.272 11.7857 320.228 3.53506C321.112 2.06174 322.438 1.1777 324.206 0.883057ZM198.678 17.679C199.562 19.1524 199.856 20.6257 199.562 22.0991C199.267 23.2777 198.383 24.3091 196.91 25.1931C194.847 27.2557 192.048 29.0237 188.512 30.497C187.628 30.497 187.038 30.3497 186.744 30.0551V29.6131C186.449 29.0237 186.449 28.5817 186.744 28.2871C189.69 23.5724 193.668 20.0364 198.678 17.679ZM295.918 64.9731C296.507 64.9731 296.802 65.1204 296.802 65.4151C297.686 65.7097 298.128 66.4464 298.128 67.6251C298.717 69.3931 299.601 72.0451 300.78 75.5811L301.222 77.3491C301.811 80.8851 302.401 83.5371 302.99 85.3051L301.222 82.653C301.516 82.653 301.664 82.5057 301.664 82.2111C301.664 81.9164 301.443 81.769 301.001 81.769C300.559 81.769 300.338 81.4744 300.338 80.8851L296.36 75.5811C295.181 72.0451 294.592 69.0984 294.592 66.7411C294.592 65.8571 294.739 65.2677 295.034 64.9731H295.918ZM336.582 72.4871C340.707 72.4871 343.801 72.6344 345.864 72.929V73.3711C340.265 77.4964 332.898 81.3271 323.764 84.8631L318.902 86.1891C317.134 86.1891 315.808 85.7471 314.924 84.8631C314.04 83.9791 313.598 82.8741 313.598 81.5481C313.598 80.2221 314.113 78.8961 315.145 77.5701C316.176 76.2441 318.312 74.9917 321.554 73.813C326.858 72.929 331.425 72.4871 335.256 72.4871H336.582ZM196.468 87.9571C196.762 87.9571 197.131 88.1044 197.573 88.3991C198.015 88.6938 198.236 89.1357 198.236 89.7251C198.236 90.3144 198.088 90.9037 197.794 91.493C197.794 91.7877 197.646 91.9351 197.352 91.9351L188.07 92.3771C181.292 93.2611 176.283 94.1451 173.042 95.0291C171.568 95.3237 169.948 95.7657 168.18 96.3551C167.885 96.6497 167.59 96.7971 167.296 96.7971C167.296 95.9131 167.443 95.3237 167.738 95.0291C168.327 93.8504 168.916 93.1137 169.506 92.8191L171.274 92.3771C181.587 90.0197 189.838 88.5464 196.026 87.9571H196.468ZM306.084 91.493C306.379 91.7877 306.673 92.2297 306.968 92.8191C309.325 96.0604 311.093 98.2704 312.272 99.4491V99.8911C313.745 101.364 314.187 102.838 313.598 104.311V105.195C313.303 105.195 313.009 105.048 312.714 104.753C310.651 103.869 309.178 101.954 308.294 99.0071L306.084 91.493ZM200.004 92.8191C200.593 92.8191 201.182 92.8191 201.772 92.8191C211.201 93.4084 217.831 94.7344 221.662 96.7971C227.85 100.038 234.627 106.079 241.994 114.919C237.279 111.088 233.301 108.142 230.06 106.079C225.64 103.132 221.22 101.217 216.8 100.333C210.317 98.8597 202.066 99.4491 192.048 102.101C195.289 98.2704 197.352 95.1764 198.236 92.8191H200.004ZM196.91 93.2611C195.142 96.2077 192.932 99.3017 190.28 102.543L176.136 106.521C174.368 107.11 173.115 107.258 172.379 106.963C171.642 106.668 170.979 105.932 170.39 104.753L169.948 104.311C168.769 102.543 167.885 100.48 167.296 98.1231L168.622 97.2391L173.042 95.9131C177.756 94.7344 182.766 93.9977 188.07 93.7031C190.132 93.4084 193.079 93.2611 196.91 93.2611ZM132.82 103.427C132.23 103.427 131.494 103.427 130.61 103.427C125.6 103.427 120.002 104.458 113.814 106.521C107.331 109.173 103.206 113.004 101.438 118.013C100.554 120.665 100.259 123.612 100.554 126.853C100.554 128.916 100.996 131.862 101.88 135.693V136.135L102.764 137.019L104.09 137.461C104.679 137.461 105.563 137.314 106.742 137.019L107.626 136.577C109.983 135.398 112.635 134.22 115.582 133.041C121.77 130.389 126.926 129.358 131.052 129.947C133.409 130.536 135.472 131.715 137.24 133.483C139.008 135.251 139.892 137.166 139.892 139.229C140.481 140.113 140.039 140.555 138.566 140.555L134.146 140.113C132.967 139.524 131.346 138.934 129.284 138.345L127.958 137.903C127.074 137.608 124.79 137.461 121.107 137.461C117.423 137.461 114.698 137.608 112.93 137.903L108.51 139.229C103.206 140.997 99.2278 142.176 96.5758 142.765C95.9865 143.06 95.6181 143.502 95.4708 144.091C95.3235 144.68 95.5445 145.122 96.1338 145.417L102.764 151.163C103.942 151.752 104.679 152.489 104.974 153.373C105.268 154.257 105.121 155.436 104.532 156.909C101.585 165.454 99.8171 172.821 99.2278 179.009V180.777L98.7858 178.567L97.9018 176.799C97.3125 176.21 96.7232 175.768 96.1338 175.473H95.6918C94.5131 176.062 93.7765 176.578 93.4818 177.02C93.1871 177.462 93.0398 178.42 93.0398 179.893V181.661C86.5571 171.642 78.0118 162.95 67.4038 155.583C56.2065 147.922 45.4511 143.944 35.1378 143.649H33.8118C32.0438 143.649 30.8651 143.944 30.2758 144.533C29.0971 145.417 28.5078 147.332 28.5078 150.279C28.5078 162.066 30.2758 173.705 33.8118 185.197C35.5798 191.385 37.7898 195.805 40.4418 198.457C45.1565 203.172 51.1971 205.529 58.5638 205.529L55.9118 209.507C52.9651 215.106 52.2285 220.262 53.7018 224.977C56.0591 230.281 61.5105 234.554 70.0558 237.795C70.0558 238.09 70.2031 238.237 70.4978 238.237C76.9805 239.416 82.2845 238.605 86.4098 235.806C90.5351 233.007 93.7028 229.176 95.9128 224.314C98.1228 219.452 99.5225 213.19 100.112 205.529L100.554 207.297L100.996 212.601C100.996 222.325 101.585 231.607 102.764 240.447L105.416 259.011C103.058 256.654 100.406 255.254 97.4598 254.812C94.5131 254.37 91.7138 254.738 89.0618 255.917C84.9365 257.98 81.8425 261.516 79.7798 266.525C77.7171 272.713 77.8645 279.49 80.2218 286.857C81.9898 291.866 85.3785 297.76 90.3878 304.537C96.8705 312.198 103.795 318.386 111.162 323.101C111.162 323.396 111.309 323.543 111.604 323.543C111.898 323.543 112.046 323.396 112.046 323.101C115.287 321.922 118.823 320.007 122.654 317.355C124.127 320.596 126.632 325.164 130.168 331.057L132.378 334.151C133.556 335.919 136.061 337.098 139.892 337.687C141.954 338.276 145.638 338.571 150.942 338.571L161.55 339.455C165.086 340.339 167.222 341.665 167.959 343.433C168.695 345.201 168.916 346.969 168.622 348.737C168.622 351.978 167.59 354.188 165.528 355.367L164.202 356.251C163.907 356.251 163.17 356.546 161.992 357.135L155.804 360.671C149.91 363.618 146.816 365.238 146.522 365.533C143.575 367.006 138.86 368.038 132.378 368.627C126.779 369.216 122.654 369.953 120.002 370.837C116.171 372.31 112.34 374.815 108.51 378.351C106.152 380.414 103.058 383.802 99.2278 388.517C87.7358 402.661 77.7171 416.363 69.1718 429.623C67.9931 430.802 67.4775 432.128 67.6248 433.601C67.7721 435.074 68.2878 436.106 69.1718 436.695C70.0558 437.284 71.3818 437.874 73.1498 438.463C82.8738 441.115 92.3768 442.22 101.659 441.778C110.941 441.336 117.497 439.052 121.328 434.927C123.096 433.159 124.569 430.654 125.748 427.413C126.632 425.35 127.516 422.256 128.4 418.131V417.689C130.462 408.554 132.82 400.893 135.472 394.705C139.302 386.749 143.87 380.414 149.174 375.699C149.468 375.404 149.542 375.183 149.395 375.036C149.247 374.889 149.1 374.741 148.953 374.594C148.805 374.447 148.584 374.52 148.29 374.815C142.986 379.53 138.418 386.012 134.588 394.263C131.936 400.451 129.578 408.112 127.516 417.247V417.689C126.632 421.814 125.748 424.908 124.864 426.971C123.685 430.212 122.212 432.717 120.444 434.485C116.613 438.61 110.425 440.673 101.88 440.673C91.5665 441.262 82.1371 440.084 73.5918 437.137C73.0025 437.137 71.9711 436.842 70.4978 436.253L70.0558 435.811C69.1718 434.927 68.7298 433.969 68.7298 432.938C68.7298 431.907 69.1718 430.949 70.0558 430.065C78.6012 416.805 88.6198 403.103 100.112 388.959C106.889 379.824 113.519 374.078 120.002 371.721C122.359 370.837 126.042 370.248 131.052 369.953C138.418 369.364 143.722 368.185 146.964 366.417C147.258 366.122 150.352 364.502 156.246 361.555L162.434 358.461C163.612 357.872 164.349 357.43 164.644 357.135L165.97 356.251C168.622 354.483 169.948 351.978 169.948 348.737C169.948 347.264 169.506 345.348 168.622 342.991V342.549C167.738 341.076 165.307 339.897 161.329 339.013C157.351 338.129 153.888 337.687 150.942 337.687L139.892 336.803C136.945 336.508 134.735 335.33 133.262 333.267L127.958 312.935C133.556 308.22 137.829 303.211 140.776 297.907C142.544 294.666 144.017 290.54 145.196 285.531C150.794 287.299 154.772 289.362 157.13 291.719C159.487 294.076 161.55 298.496 163.318 304.979V305.421C168.032 323.396 171.126 339.455 172.6 353.599C174.662 370.984 174.22 387.044 171.274 401.777C170.979 402.072 170.832 402.661 170.832 403.545C170.242 402.661 169.358 401.63 168.18 400.451C165.822 397.799 162.729 395 158.898 392.053C158.014 391.464 156.982 391.243 155.804 391.39C154.625 391.537 153.594 392.053 152.71 392.937C151.826 393.821 151.384 394.852 151.384 396.031C151.384 397.21 151.826 398.388 152.71 399.567C155.362 402.808 159.192 405.608 164.202 407.965L165.97 408.849C168.032 408.849 169.506 408.112 170.39 406.639L171.274 405.313L172.6 407.081C177.904 413.564 182.324 417.836 185.86 419.899C191.164 422.846 197.352 424.761 204.424 425.645C215.916 427.118 228.439 426.382 241.994 423.435C251.423 421.667 263.505 418.131 278.238 412.827L280.448 411.943C295.771 406.639 307.263 402.956 314.924 400.893C327.889 397.357 339.823 395.442 350.726 395.147C359.861 395.147 373.268 401.777 390.948 415.037L395.81 419.015C400.819 423.14 404.355 425.792 406.418 426.971L406.86 427.413C408.922 428.592 410.396 429.181 411.28 429.181C412.164 429.181 412.753 429.034 413.048 428.739C413.342 428.444 413.49 427.855 413.49 426.971V426.087C412.606 423.435 411.133 419.899 409.07 415.479C406.418 410.175 403.618 405.46 400.672 401.335H400.23C393.747 391.611 383.434 381.887 369.29 372.163C362.512 367.448 352.052 360.671 337.908 351.831L285.31 319.123C283.542 317.944 281.184 316.029 278.238 313.377L276.028 311.609C277.796 313.082 279.711 313.966 281.774 314.261C281.774 314.261 281.774 314.335 281.774 314.482C281.774 314.629 281.921 314.703 282.216 314.703C282.51 314.703 282.658 314.556 282.658 314.261C290.024 309.546 296.802 303.358 302.99 295.697C308.294 289.509 311.83 283.616 313.598 278.017C316.25 270.945 316.25 264.168 313.598 257.685C312.125 252.97 309.178 249.434 304.758 247.077C301.811 245.898 298.717 245.677 295.476 246.414C292.234 247.151 289.582 248.698 287.52 251.055L286.636 236.469C286.636 234.112 286.341 232.344 285.752 231.165C285.752 230.87 285.457 230.428 284.868 229.839C287.225 228.955 289.141 227.924 290.614 226.745C298.57 220.557 304.684 212.896 308.957 203.761C313.229 194.626 315.219 185.197 314.924 175.473C314.924 171.937 314.629 169.138 314.04 167.075C314.04 165.307 313.745 163.834 313.156 162.655C312.566 161.476 311.609 160.666 310.283 160.224C308.957 159.782 306.82 159.856 303.874 160.445L297.686 163.097C292.971 166.044 288.993 169.285 285.752 172.821C283.1 175.473 280.301 178.862 277.354 182.987C277.943 180.335 277.943 177.83 277.354 175.473C275.586 166.928 271.755 161.182 265.862 158.235C263.21 157.056 260.41 156.541 257.464 156.688C254.517 156.835 251.57 157.646 248.624 159.119C243.615 161.182 238.9 164.718 234.48 169.727C225.05 179.451 217.684 190.648 212.38 203.319V203.761C210.612 207.886 210.391 211.275 211.717 213.927C213.043 216.579 215.105 218.789 217.905 220.557C220.704 222.325 223.872 223.356 227.408 223.651C230.06 224.24 232.564 224.388 234.922 224.093C239.047 223.798 243.688 222.251 248.845 219.452C254.001 216.653 258.053 213.338 261 209.507C263.946 205.971 267.335 201.109 271.166 194.921L276.028 187.849L274.26 195.805C271.608 207.886 267.482 222.178 261.884 238.679L260.558 241.773C258.79 247.077 257.316 251.055 256.138 253.707C254.959 254.002 253.78 254.738 252.602 255.917C251.423 257.096 250.244 259.158 249.066 262.105C245.824 264.168 240.815 266.378 234.038 268.735C229.323 270.798 222.251 273.008 212.822 275.365V275.807C199.562 279.638 185.565 282.584 170.832 284.647C166.117 285.531 161.55 285.605 157.13 284.868C152.71 284.131 148.879 282.437 145.638 279.785C145.638 277.133 145.49 275.218 145.196 274.039C144.606 270.503 143.28 267.409 141.218 264.757C140.628 264.757 140.334 264.462 140.334 263.873C140.628 261.221 141.954 257.243 144.312 251.939C145.785 248.403 146.522 244.72 146.522 240.889V239.121C153.004 238.826 159.413 237.279 165.749 234.48C172.084 231.681 177.462 227.924 181.882 223.209H183.208C184.092 223.209 184.681 222.767 184.976 221.883C185.27 220.999 185.123 220.262 184.534 219.673C174.515 210.244 163.76 203.172 152.268 198.457L150.5 198.015V195.805C151.089 193.153 151.678 191.238 152.268 190.059C153.446 187.407 156.982 185.492 162.876 184.313L163.76 183.871C164.938 183.576 165.97 183.208 166.854 182.766C167.738 182.324 168.18 181.514 168.18 180.335C168.769 178.272 168.18 175.768 166.412 172.821C164.054 168.99 160.96 165.749 157.13 163.097C155.362 161.918 153.888 161.476 152.71 161.771C151.531 162.066 150.5 162.508 149.616 163.097L148.732 163.539C146.964 164.718 145.49 165.307 144.312 165.307C143.428 165.602 142.912 166.117 142.765 166.854C142.617 167.591 142.986 168.254 143.87 168.843L146.964 171.053C146.08 171.348 145.49 171.937 145.196 172.821C144.606 174.884 144.754 176.504 145.638 177.683L148.732 181.219C149.321 181.808 149.468 182.545 149.174 183.429C149.174 183.724 149.1 183.945 148.953 184.092C148.805 184.239 148.437 184.313 147.848 184.313H147.406C145.932 183.724 144.459 182.987 142.986 182.103C142.396 181.514 141.586 181.366 140.555 181.661C139.523 181.956 138.86 182.545 138.566 183.429C137.976 185.492 137.24 186.744 136.356 187.186C135.472 187.628 134.44 187.554 133.262 186.965H132.82C131.346 185.492 130.462 184.313 130.168 183.429C128.105 179.598 127.074 175.178 127.074 170.169L128.4 166.633L129.284 168.401C130.462 170.758 131.494 172.526 132.378 173.705C132.083 176.062 132.378 178.714 133.262 181.661C133.851 182.545 134.661 182.84 135.693 182.545C136.724 182.25 137.24 181.661 137.24 180.777C137.24 179.304 136.798 177.978 135.914 176.799C135.03 175.62 134.293 174.442 133.704 173.263L134.146 167.959C134.146 167.075 133.925 166.265 133.483 165.528C133.041 164.791 132.378 164.276 131.494 163.981C130.315 163.981 129.431 164.276 128.842 164.865V164.423C128.252 162.066 128.105 160.15 128.4 158.677C128.989 156.025 131.052 153.226 134.588 150.279L137.24 148.069C140.186 145.712 142.249 143.796 143.428 142.323C146.669 137.314 147.553 131.42 146.08 124.643C144.901 120.518 143.722 117.424 142.544 115.361V114.919C141.954 113.446 140.776 111.236 139.008 108.289C138.418 106.521 137.387 105.195 135.914 104.311C135.324 103.722 134.44 103.427 133.262 103.427H132.82ZM132.82 104.753C133.114 104.753 133.262 104.753 133.262 104.753C134.146 104.753 134.956 104.9 135.693 105.195C136.429 105.49 137.092 106.374 137.682 107.847L141.218 114.035C139.155 113.151 136.356 113.004 132.82 113.593C127.516 114.182 124.274 114.624 123.096 114.919C117.202 116.098 112.782 118.16 109.836 121.107C108.362 121.991 107.331 123.317 106.742 125.085C106.152 126.264 105.563 128.032 104.974 130.389L104.09 133.483L102.764 134.809C100.996 128.032 100.848 122.58 102.322 118.455C103.206 116.098 104.753 113.961 106.963 112.046C109.173 110.131 111.604 108.731 114.256 107.847C120.149 105.49 125.6 104.458 130.61 104.753H132.82ZM135.472 114.477C138.418 114.477 140.481 114.919 141.66 115.803C143.133 119.044 144.312 121.991 145.196 124.643C146.374 131.715 145.49 137.314 142.544 141.439C141.365 142.912 139.155 144.975 135.914 147.627L134.146 149.395C130.315 152.636 128.105 155.583 127.516 158.235C126.926 160.887 127.074 163.244 127.958 165.307C127.958 165.602 127.81 165.749 127.516 165.749C126.632 166.928 126.19 168.401 126.19 170.169C125.6 175.473 126.632 180.188 129.284 184.313C129.578 185.492 130.536 186.597 132.157 187.628C133.777 188.659 135.251 188.807 136.577 188.07C137.903 187.333 138.86 186.081 139.45 184.313V183.871C140.039 182.692 141.07 182.398 142.544 182.987C143.428 183.871 145.048 184.608 147.406 185.197L147.848 185.639C148.437 185.639 149.026 185.344 149.616 184.755L150.5 183.429C150.5 182.545 150.205 181.514 149.616 180.335C149.321 179.746 148.732 179.156 147.848 178.567C146.964 177.978 146.522 177.536 146.522 177.241C145.638 175.768 145.638 174.442 146.522 173.263C146.522 172.968 146.964 172.379 147.848 171.495C151.973 174.442 154.772 176.946 156.246 179.009C157.424 180.188 158.308 180.924 158.898 181.219H159.782C160.076 181.514 160.371 181.514 160.666 181.219C161.55 181.219 162.139 181.145 162.434 180.998C162.728 180.851 162.876 180.63 162.876 180.335C162.876 180.04 162.728 179.893 162.434 179.893L161.992 178.567C160.224 175.326 158.75 173.116 157.572 171.937C156.393 170.758 154.993 169.948 153.373 169.506C151.752 169.064 150.205 169.138 148.732 169.727L147.848 170.169L144.312 167.959C144.017 167.959 143.87 167.664 143.87 167.075V166.633C143.87 166.633 144.017 166.633 144.312 166.633C146.08 166.338 147.7 165.602 149.174 164.423C149.763 164.128 150.5 163.686 151.384 163.097L152.268 162.655C153.741 162.655 155.067 163.097 156.246 163.981C159.487 166.044 162.581 169.138 165.528 173.263C167.001 175.915 167.59 178.272 167.296 180.335C167.296 180.924 166.706 181.514 165.528 182.103C165.233 182.398 164.202 182.84 162.434 183.429H161.992C159.34 184.018 157.277 184.608 155.804 185.197C153.741 186.376 152.268 187.849 151.384 189.617C150.794 190.796 150.352 192.564 150.058 194.921L149.616 196.689L149.174 197.573C148.29 197.573 147.553 197.72 146.964 198.015C146.669 198.31 146.08 198.752 145.196 199.341C144.312 199.93 143.722 200.225 143.428 200.225L142.544 201.109C142.544 201.109 142.47 201.109 142.323 201.109C142.175 201.109 142.102 201.109 142.102 201.109V201.551C140.334 200.962 138.86 200.667 137.682 200.667C134.44 200.667 131.641 202.14 129.284 205.087C127.81 206.855 126.19 209.802 124.422 213.927C123.243 217.463 122.727 220.041 122.875 221.662C123.022 223.283 123.685 224.682 124.864 225.861C125.453 226.45 126.337 227.04 127.516 227.629C126.926 227.629 126.632 227.924 126.632 228.513C126.042 229.102 125.821 229.692 125.969 230.281C126.116 230.87 126.337 231.607 126.632 232.491L127.074 232.933C127.663 233.522 128.694 234.406 130.168 235.585L131.052 236.027C134.882 237.5 139.597 238.532 145.196 239.121L145.638 240.889C145.638 244.425 144.901 247.961 143.428 251.497C141.07 256.801 139.597 260.779 139.008 263.431C136.945 261.663 133.556 260.779 128.842 260.779C125.895 261.368 123.685 261.958 122.212 262.547C121.917 261.368 121.033 259.306 119.56 256.359L118.234 253.265C118.234 252.97 118.086 252.381 117.792 251.497L117.35 251.055C117.35 247.814 117.202 245.456 116.908 243.983C116.908 243.394 116.76 242.215 116.466 240.447L116.024 239.563C115.14 238.09 113.814 237.206 112.046 236.911C109.983 230.134 107.331 219.673 104.09 205.529L103.206 202.435C102.027 197.131 101.29 193.153 100.996 190.501C100.406 186.081 100.259 182.25 100.554 179.009C100.848 173.41 102.469 166.044 105.416 156.909C106.005 155.141 106.152 153.815 105.858 152.931C105.563 152.636 105.416 152.342 105.416 152.047H106.3C110.425 152.342 115.361 151.826 121.107 150.5C126.853 149.174 132.083 147.627 136.798 145.859C137.387 145.564 137.755 144.975 137.903 144.091C138.05 143.207 137.829 142.618 137.24 142.323C137.24 141.734 136.945 141.439 136.356 141.439H138.566C139.155 141.734 139.744 141.586 140.334 140.997C140.923 140.408 141.218 139.671 141.218 138.787C140.923 136.43 139.818 134.293 137.903 132.378C135.987 130.463 133.851 129.358 131.494 129.063C127.368 128.474 121.917 129.358 115.14 131.715L112.046 133.041C109.983 134.22 108.362 134.956 107.184 135.251L106.3 135.693C105.121 135.988 104.384 136.135 104.09 136.135H103.206V135.693C104.09 135.398 104.679 134.809 104.974 133.925L105.416 133.041C105.71 131.862 105.858 130.978 105.858 130.389C106.742 127.148 108.215 124.201 110.278 121.549C112.93 119.192 117.35 117.424 123.538 116.245C127.074 115.361 130.168 114.772 132.82 114.477H135.472ZM223.43 137.019C224.019 137.019 224.608 137.019 225.198 137.019C227.26 137.019 228.734 137.756 229.618 139.229C228.439 140.408 227.113 141.144 225.64 141.439C223.577 142.323 221.22 142.765 218.568 142.765C212.38 142.765 207.076 142.323 202.656 141.439C200.888 140.85 198.236 140.26 194.7 139.671C202.361 139.966 210.317 139.229 218.568 137.461C219.452 137.166 221.072 137.019 223.43 137.019ZM121.328 138.345C124.864 138.345 126.926 138.492 127.516 138.787C127.81 138.787 128.547 139.082 129.726 139.671C127.074 139.082 123.096 139.376 117.792 140.555L115.14 140.997L112.488 141.881C110.425 142.47 108.952 143.06 108.068 143.649C105.71 145.122 104.09 147.038 103.206 149.395V150.279L96.5758 144.975C96.2812 144.68 96.2075 144.459 96.3548 144.312C96.5022 144.165 96.7232 144.091 97.0178 144.091L103.648 141.881C108.362 140.408 111.604 139.524 113.372 139.229C116.318 138.64 118.97 138.345 121.328 138.345ZM127.074 140.555C127.958 140.555 128.842 140.555 129.726 140.555L133.704 140.997L136.798 142.765C137.387 143.944 137.24 144.68 136.356 144.975C131.641 146.743 126.484 148.29 120.886 149.616C115.287 150.942 110.425 151.458 106.3 151.163H104.974L104.09 150.279C104.09 149.984 104.237 149.69 104.532 149.395C104.826 147.627 106.152 146.006 108.51 144.533C111.456 143.354 113.814 142.618 115.582 142.323C120.296 141.144 123.832 140.555 126.19 140.555H127.074ZM33.8118 144.533C34.4011 144.533 34.8431 144.533 35.1378 144.533C46.0405 145.122 57.2378 149.542 68.7298 157.793C79.6325 165.454 88.0305 174.589 93.9238 185.197L94.3658 186.523H94.8078L96.1338 189.617L70.0558 236.911C61.5105 233.375 56.4275 229.25 54.8068 224.535C53.1861 219.82 53.8491 215.106 56.7958 210.391C57.3851 209.507 58.1218 208.181 59.0058 206.413L59.8898 205.529C60.1845 205.234 60.4791 205.087 60.7738 205.087C61.0685 205.087 61.2158 205.087 61.2158 205.087C65.9305 204.792 73.0025 202.877 82.4318 199.341C83.3158 199.046 84.5681 198.383 86.1888 197.352C87.8095 196.321 88.6198 194.921 88.6198 193.153C88.6198 191.68 88.1778 190.354 87.2938 189.175C86.7045 188.586 85.5995 188.07 83.9788 187.628C82.3582 187.186 80.0745 187.554 77.1278 188.733L76.2438 189.175C70.0558 193.006 64.4571 198.015 59.4478 204.203C56.2065 204.498 52.8915 204.056 49.5028 202.877C46.1141 201.698 43.3885 200.004 41.3258 197.794C39.2631 195.584 37.0531 191.238 34.6958 184.755C31.7491 173.852 29.9811 162.36 29.3918 150.279C29.3918 147.922 29.9811 146.301 31.1598 145.417C31.4545 144.828 32.3385 144.533 33.8118 144.533ZM258.348 157.793C261 157.793 263.357 158.382 265.42 159.561C268.367 160.74 270.724 162.802 272.492 165.749C274.26 168.696 275.365 171.79 275.807 175.031C276.249 178.272 276.322 181.661 276.028 185.197L272.934 190.059C268.219 198.015 263.946 204.35 260.116 209.065C257.169 212.601 253.191 215.695 248.182 218.347C243.172 220.999 238.752 222.62 234.922 223.209C232.859 223.504 230.281 223.356 227.187 222.767C224.093 222.178 221.367 221.294 219.01 220.115C216.063 218.052 214 215.99 212.822 213.927C211.938 210.98 212.232 207.592 213.706 203.761C218.42 191.974 225.64 180.924 235.364 170.611C240.078 165.307 244.646 161.771 249.066 160.003C252.012 158.53 254.812 157.793 257.464 157.793H258.348ZM307.852 160.887C308.147 160.887 308.441 160.887 308.736 160.887L309.62 161.329C310.504 161.918 311.241 162.655 311.83 163.539L313.156 167.075C313.745 171.2 314.04 174.147 314.04 175.915C314.334 185.344 312.272 194.626 307.852 203.761C303.432 212.896 297.391 220.262 289.73 225.861C287.372 227.629 285.457 228.66 283.984 228.955H283.542V227.187C284.131 220.999 285.604 216.579 287.962 213.927C289.141 212.748 291.203 211.275 294.15 209.507L295.918 208.181C301.222 204.645 304.979 199.636 307.189 193.153C309.399 186.67 309.473 180.335 307.41 174.147L306.968 173.263C305.789 171.79 304.316 171.2 302.548 171.495C301.664 171.495 300.338 172.084 298.57 173.263L297.686 174.147C295.623 176.21 294.297 177.978 293.708 179.451C292.234 181.808 291.94 184.092 292.824 186.302C293.708 188.512 294.886 190.501 296.36 192.269C297.833 194.037 298.423 195.658 298.128 197.131C297.833 198.604 297.17 199.709 296.139 200.446C295.108 201.183 293.708 201.698 291.94 201.993L291.056 202.435C288.109 203.024 286.046 203.172 284.868 202.877H284.426C282.952 202.288 281.479 202.214 280.006 202.656C278.533 203.098 277.354 204.056 276.47 205.529C274.407 210.244 273.081 215.4 272.492 220.999C272.492 223.651 272.786 225.566 273.376 226.745C274.26 228.513 275.88 229.692 278.238 230.281C277.943 230.576 277.722 230.944 277.575 231.386C277.427 231.828 277.206 232.638 276.912 233.817L276.47 235.143V239.563C276.175 243.099 276.175 245.751 276.47 247.519C276.47 251.644 277.059 254.738 278.238 256.801L276.912 255.917C271.608 253.56 267.409 252.307 264.315 252.16C261.221 252.013 258.937 252.234 257.464 252.823C258.348 251.055 259.526 248.108 261 243.983L262.768 239.121C267.188 227.334 271.46 212.896 275.586 195.805L277.354 185.197L277.796 184.313C280.742 180.188 283.542 176.799 286.194 174.147C289.73 170.316 293.855 166.928 298.57 163.981C300.043 163.097 301.811 162.36 303.874 161.771L306.968 160.887H307.852ZM130.61 165.307C130.904 165.307 131.052 165.307 131.052 165.307C131.936 165.307 132.451 165.528 132.599 165.97C132.746 166.412 132.893 167.001 133.041 167.738C133.188 168.475 133.114 169.432 132.82 170.611V171.937L129.726 167.517C129.431 166.633 129.357 166.044 129.505 165.749C129.652 165.454 129.873 165.307 130.168 165.307C130.462 165.307 130.61 165.307 130.61 165.307ZM151.384 170.169C152.857 170.169 154.772 171.053 157.13 172.821C158.898 174.294 160.224 176.652 161.108 179.893C161.108 180.188 161.108 180.335 161.108 180.335H160.666C160.076 180.335 159.634 180.261 159.34 180.114C159.045 179.967 158.677 179.672 158.235 179.23C157.793 178.788 157.424 178.42 157.13 178.125C153.594 174.589 150.794 172.232 148.732 171.053L149.174 170.611C149.763 170.316 150.5 170.169 151.384 170.169ZM303.432 172.379C303.727 172.379 303.874 172.379 303.874 172.379C304.463 172.379 305.2 172.821 306.084 173.705C306.084 174.294 306.231 174.589 306.526 174.589C308.589 180.482 308.515 186.597 306.305 192.932C304.095 199.267 300.485 204.056 295.476 207.297L293.266 208.623C290.319 210.391 288.257 212.012 287.078 213.485C284.131 216.726 282.658 221.294 282.658 227.187V228.513H282.216C281.921 228.218 281.627 228.218 281.332 228.513C280.448 228.513 279.711 228.808 279.122 229.397C276.764 228.808 275.217 227.85 274.481 226.524C273.744 225.198 273.376 223.356 273.376 220.999C273.965 215.695 275.438 210.686 277.796 205.971C278.09 204.792 278.901 203.982 280.227 203.54C281.553 203.098 282.805 203.172 283.984 203.761H284.426C286.194 204.35 288.33 204.277 290.835 203.54C293.34 202.803 295.255 201.993 296.581 201.109C297.907 200.225 298.865 198.899 299.454 197.131C299.748 195.658 299.012 193.742 297.244 191.385C295.476 189.028 294.297 187.26 293.708 186.081C293.118 183.429 293.413 181.366 294.592 179.893C295.476 177.536 297.096 175.62 299.454 174.147C300.043 173.558 301.222 172.968 302.99 172.379H303.432ZM133.262 175.031C133.556 175.62 134.146 176.357 135.03 177.241L136.356 180.777C136.356 181.366 136.061 181.661 135.472 181.661C134.882 181.661 134.588 181.514 134.588 181.219C133.704 179.451 133.262 177.388 133.262 175.031ZM95.6918 176.799C95.9865 176.799 96.1338 176.799 96.1338 176.799L97.0178 177.241L97.4598 178.567C98.6385 182.103 99.2278 187.554 99.2278 194.921C98.9332 194.037 98.4911 192.711 97.9018 190.943L97.0178 189.175C96.4285 187.702 95.6918 186.228 94.8078 184.755L94.3658 183.871C94.0712 182.103 93.9238 180.777 93.9238 179.893C93.9238 178.714 94.1448 177.904 94.5868 177.462C95.0288 177.02 95.3971 176.799 95.6918 176.799ZM82.4318 188.733C82.7265 188.733 83.0211 188.733 83.3158 188.733C84.4945 188.733 85.5258 189.175 86.4098 190.059C87.2938 190.943 87.7358 191.974 87.7358 193.153C87.7358 194.037 87.1465 195.068 85.9678 196.247L80.6638 198.899C72.1185 202.14 65.6358 203.908 61.2158 204.203H60.7738C63.4258 200.962 66.2988 198.015 69.3928 195.363C72.4868 192.711 74.9178 191.09 76.6858 190.501C79.0431 189.322 80.8111 188.733 81.9898 188.733H82.4318ZM96.5758 190.943L99.2278 201.551C99.2278 210.096 97.7545 217.463 94.8078 223.651C93.0398 228.66 90.0932 232.417 85.9678 234.922C81.8425 237.427 76.8331 238.09 70.9398 236.911L96.5758 190.943ZM100.112 193.595C100.406 194.479 100.701 195.805 100.996 197.573L103.206 205.529C106.447 219.673 109.099 230.281 111.162 237.353C110.572 237.353 109.983 237.648 109.394 238.237L101.438 206.855C101.438 205.382 101.143 203.172 100.554 200.225L100.112 193.595ZM148.29 198.899C148.584 198.899 148.732 198.899 148.732 198.899C148.142 200.372 147.406 201.256 146.522 201.551C145.932 201.846 144.901 201.993 143.428 201.993C143.428 201.698 143.575 201.477 143.87 201.33C144.164 201.183 144.754 200.814 145.638 200.225C146.522 199.636 147.111 199.194 147.406 198.899H148.29ZM150.058 198.899C150.352 198.899 150.647 198.899 150.942 198.899L151.826 199.341C162.728 204.056 172.747 210.538 181.882 218.789H180.998C178.346 219.084 174.662 219.231 169.948 219.231C168.769 218.347 167.59 217.758 166.412 217.463C162.581 215.106 159.487 213.485 157.13 212.601C153.299 211.128 149.91 210.686 146.964 211.275C141.66 212.454 137.534 215.842 134.588 221.441H134.146C133.556 217.905 134.588 214.074 137.24 209.949C138.418 207.592 140.186 205.234 142.544 202.877C144.312 203.466 145.859 203.466 147.185 202.877C148.511 202.288 149.468 200.962 150.058 198.899ZM137.682 201.993C137.976 201.993 138.418 201.993 139.008 201.993L141.218 202.435L136.356 209.065C133.114 214.074 132.083 218.642 133.262 222.767C132.967 223.356 132.451 224.093 131.715 224.977C130.978 225.861 130.02 226.303 128.842 226.303C127.663 226.598 126.705 226.377 125.969 225.64C125.232 224.903 124.643 223.577 124.201 221.662C123.759 219.747 124.274 217.316 125.748 214.369C126.632 211.717 128.105 208.918 130.168 205.971C132.23 203.024 134.735 201.698 137.682 201.993ZM150.058 212.159C154.183 212.159 159.487 214.222 165.97 218.347C166.559 218.347 167.148 218.642 167.738 219.231H162.434C156.54 219.231 152.12 219.378 149.174 219.673C144.164 219.968 139.744 220.852 135.914 222.325C135.619 222.325 135.177 222.62 134.588 223.209C134.588 222.914 134.882 222.472 135.472 221.883C138.713 216.579 142.544 213.485 146.964 212.601C147.553 212.306 148.437 212.159 149.616 212.159H150.058ZM101.88 213.043L108.51 239.121C108.215 239.121 108.068 239.268 108.068 239.563L107.626 240.005L106.742 244.867C106.742 250.76 106.594 255.18 106.3 258.127L103.648 240.447C102.764 234.554 102.322 227.629 102.322 219.673L101.88 213.043ZM182.766 219.673C182.766 219.968 182.913 220.115 183.208 220.115L183.65 220.557C183.944 220.852 184.018 221.22 183.871 221.662C183.723 222.104 183.502 222.325 183.208 222.325H182.766C183.355 221.736 183.355 220.999 182.766 220.115V219.673ZM180.998 219.673C181.292 219.673 181.44 219.82 181.44 220.115H181.882C181.882 220.115 181.882 220.262 181.882 220.557C181.882 221.441 181.808 221.957 181.661 222.104C181.513 222.251 181.44 222.325 181.44 222.325C178.788 222.325 175.694 221.588 172.158 220.115C175.988 220.115 178.935 219.968 180.998 219.673ZM160.666 220.115C163.907 220.115 167.001 220.115 169.948 220.115C173.484 222.178 177.02 223.356 180.556 223.651C176.136 228.071 170.832 231.533 164.644 234.038C158.456 236.543 152.268 237.795 146.08 237.795C145.49 234.848 144.312 232.638 142.544 231.165L139.45 228.955C137.092 227.776 135.619 226.598 135.03 225.419L134.588 224.977L135.03 224.093L136.356 223.209C141.66 221.146 148.732 220.115 157.572 220.115H160.666ZM133.262 224.535C133.262 224.83 132.967 225.272 132.378 225.861L133.262 224.535ZM134.146 225.861C134.146 225.861 134.146 226.008 134.146 226.303C135.03 227.776 136.65 229.102 139.008 230.281L141.66 232.049C143.722 234.112 144.901 236.027 145.196 237.795C140.481 237.795 135.914 236.911 131.494 235.143C129.726 233.964 128.547 233.007 127.958 232.27C127.368 231.533 127.074 230.87 127.074 230.281C127.074 229.692 127.295 229.176 127.737 228.734C128.179 228.292 128.694 227.924 129.284 227.629C129.873 227.334 130.904 227.187 132.378 227.187L134.146 225.861ZM281.332 229.397H282.216H281.774C281.479 229.692 281.037 229.839 280.448 229.839L281.332 229.397ZM283.542 230.281C284.131 230.576 284.573 231.018 284.868 231.607C285.457 233.375 285.752 234.996 285.752 236.469L286.194 251.497V252.381C285.604 252.97 285.31 253.56 285.31 254.149C285.015 255.328 284.647 256.064 284.205 256.359C283.763 256.654 283.542 256.948 283.542 257.243V230.281ZM282.658 230.281C282.658 237.353 282.658 243.099 282.658 247.519L282.216 257.685H280.448V257.243C280.448 257.243 280.3 257.243 280.006 257.243C278.533 255.77 277.648 253.265 277.354 249.729V247.519C277.354 242.215 277.501 238.237 277.796 235.585C277.796 234.112 278.09 232.786 278.68 231.607L279.122 230.723H281.774C282.068 230.723 282.363 230.576 282.658 230.281ZM111.604 238.237C112.782 242.068 114.403 246.34 116.466 251.055C116.466 253.412 116.318 255.18 116.024 256.359C116.024 259.306 115.876 261.368 115.582 262.547L109.836 239.121C110.425 238.532 111.014 238.237 111.604 238.237ZM112.488 238.237C113.372 238.532 114.256 239.268 115.14 240.447L116.024 243.983V247.961L112.488 238.237ZM108.952 240.447L114.698 264.315C114.698 264.904 114.256 265.494 113.372 266.083C113.372 266.378 113.224 266.525 112.93 266.525C111.456 266.525 110.499 266.23 110.057 265.641C109.615 265.052 109.099 264.168 108.51 262.989L107.184 261.221L108.068 245.309C108.068 242.952 108.362 241.331 108.952 240.447ZM299.012 247.077C300.19 247.077 301.958 247.372 304.316 247.961C308.441 250.318 311.241 253.707 312.714 258.127C314.776 264.02 314.629 270.65 312.272 278.017C310.209 283.91 306.82 289.656 302.106 295.255C295.918 302.622 289.288 308.515 282.216 312.935V312.051C281.921 310.578 281.332 308.662 280.448 306.305L279.122 303.211C278.238 301.443 277.796 299.97 277.796 298.791L278.238 297.907C280.301 298.791 282.363 299.086 284.426 298.791C288.551 297.612 290.761 295.402 291.056 292.161C291.35 290.688 290.908 289.067 289.73 287.299C287.962 286.12 286.194 285.678 284.426 285.973C282.658 286.268 281.479 288.036 280.89 291.277V293.487C280.89 293.782 280.816 294.003 280.669 294.15C280.521 294.297 280.3 294.371 280.006 294.371L279.564 294.813C278.385 295.402 277.648 295.992 277.354 296.581H276.912C274.849 294.813 273.891 292.824 274.039 290.614C274.186 288.404 275.88 286.268 279.122 284.205L280.006 283.321C282.658 280.669 284.131 278.459 284.426 276.691V276.249C286.194 275.954 287.741 275.144 289.067 273.818C290.393 272.492 291.203 270.945 291.498 269.177C292.087 266.82 291.645 264.904 290.172 263.431C289.582 262.547 288.698 261.958 287.52 261.663C286.341 261.368 285.31 261.442 284.426 261.884C283.542 262.326 282.805 263.357 282.216 264.978C281.626 266.599 281.626 268.146 282.216 269.619C282.805 271.976 283.1 273.892 283.1 275.365H282.658C282.068 275.66 281.627 275.66 281.332 275.365C279.269 275.07 277.575 274.039 276.249 272.271C274.923 270.503 274.407 268.661 274.702 266.746C274.996 264.831 275.733 263.21 276.912 261.884C278.09 260.558 279.564 259.748 281.332 259.453H283.542C284.426 259.453 285.162 259.158 285.752 258.569C286.341 257.98 286.783 257.243 287.078 256.359C287.372 255.475 287.52 254.296 287.52 252.823C290.172 248.992 294.003 247.077 299.012 247.077ZM263.21 253.265C263.799 253.265 264.241 253.265 264.536 253.265C268.072 253.265 271.902 254.591 276.028 257.243L276.912 257.685C278.09 257.98 278.974 258.127 279.564 258.127V258.569C276.912 258.569 273.67 259.748 269.84 262.105C265.42 265.641 261.294 269.914 257.464 274.923C255.401 277.28 253.486 280.08 251.718 283.321C249.066 276.544 248.329 270.65 249.508 265.641L249.95 262.547H250.392C253.044 260.19 255.254 257.538 257.022 254.591C258.79 253.707 260.852 253.265 263.21 253.265ZM117.35 253.707L121.328 262.989C120.738 263.284 119.854 263.578 118.676 263.873L116.024 265.199V264.757C116.908 262.989 117.35 260.19 117.35 256.359V253.707ZM286.194 254.591C286.194 255.18 286.046 255.622 285.752 255.917C285.752 256.801 285.531 257.464 285.089 257.906C284.647 258.348 284.131 258.569 283.542 258.569V258.127L284.426 257.685C285.015 257.096 285.457 256.359 285.752 255.475L286.194 254.591ZM254.812 255.475C253.633 257.832 252.307 259.6 250.834 260.779C251.423 259.306 252.307 257.98 253.486 256.801L254.812 255.475ZM94.3658 255.917C96.4285 255.622 98.4911 255.991 100.554 257.022C102.616 258.053 104.384 259.306 105.858 260.779V261.663C106.447 265.788 107.036 268.735 107.626 270.503C105.858 270.503 104.458 271.092 103.427 272.271C102.395 273.45 101.88 275.365 101.88 278.017C102.174 279.785 103.058 281.258 104.532 282.437C106.005 283.616 107.626 284.5 109.394 285.089V285.531C109.983 287.888 111.014 289.656 112.488 290.835C113.372 294.076 114.992 298.644 117.35 304.537C117.055 304.832 116.834 305.053 116.687 305.2C116.539 305.347 116.466 305.421 116.466 305.421H116.024C115.729 304.537 115.14 303.948 114.256 303.653L112.488 302.327V301.885C112.782 301.001 112.782 300.264 112.488 299.675C111.898 296.728 110.72 295.034 108.952 294.592C107.184 294.15 105.637 294.592 104.311 295.918C102.985 297.244 102.395 298.791 102.543 300.559C102.69 302.327 103.353 303.8 104.532 304.979C105.71 306.158 107.257 306.968 109.173 307.41C111.088 307.852 113.224 307.631 115.582 306.747V307.189C115.582 308.073 115.287 309.694 114.698 312.051C113.224 314.998 112.046 317.797 111.162 320.449C110.867 320.449 110.72 320.596 110.72 320.891C110.72 321.186 110.867 321.333 111.162 321.333V321.775C103.795 317.06 97.1651 311.02 91.2718 303.653C86.2625 297.465 82.8738 291.719 81.1058 286.415C78.7485 279.638 78.6012 273.155 80.6638 266.967C82.4318 262.547 85.3785 259.158 89.5038 256.801C91.2718 256.212 92.8925 255.917 94.3658 255.917ZM277.354 259.895C275.291 261.663 274.039 263.799 273.597 266.304C273.155 268.809 273.744 271.019 275.365 272.934C276.986 274.849 278.975 276.102 281.332 276.691H283.1C282.805 278.164 281.479 280.08 279.122 282.437L278.238 283.321C274.997 285.973 273.228 288.478 272.934 290.835C272.639 293.192 273.818 295.402 276.47 297.465H276.912V298.349C276.912 299.528 277.206 301.296 277.796 303.653L278.68 305.863C280.153 309.104 281.037 311.314 281.332 312.493V312.935C278.385 312.051 274.554 309.841 269.84 306.305C268.956 305.716 267.63 304.611 265.862 302.99C264.094 301.369 261.884 299.086 259.232 296.139L257.906 294.813L253.928 288.625C253.339 287.741 252.749 286.415 252.16 284.647C253.338 282.584 255.401 279.49 258.348 275.365C262.768 269.472 266.893 265.346 270.724 262.989C273.67 261.221 275.881 260.19 277.354 259.895ZM130.61 261.663C134.735 262.252 137.534 263.136 139.008 264.315C138.418 267.556 138.492 270.208 139.229 272.271C139.965 274.334 141.512 276.838 143.87 279.785L144.754 280.227L144.312 283.763C143.722 283.763 143.28 283.616 142.986 283.321C136.798 281.848 132.378 279.343 129.726 275.807C126.779 272.271 124.422 268.146 122.654 263.431C125.011 262.547 127.221 262.105 129.284 262.105L130.61 261.663ZM286.194 262.547C287.078 262.547 288.109 263.136 289.288 264.315C290.172 264.904 290.614 266.378 290.614 268.735C290.319 270.208 289.582 271.534 288.404 272.713C287.225 273.892 285.899 274.776 284.426 275.365C284.426 274.186 284.131 272.566 283.542 270.503L283.1 269.177V265.641C283.689 264.168 284.278 263.284 284.868 262.989C285.457 262.989 285.826 262.915 285.973 262.768C286.12 262.621 286.194 262.547 286.194 262.547ZM107.626 263.431L108.068 264.315C108.362 265.494 108.657 266.23 108.952 266.525L110.72 267.409H110.278C109.983 267.409 109.688 267.262 109.394 266.967H108.952C108.657 266.672 108.215 265.936 107.626 264.757V263.431ZM248.624 263.431C248.624 264.315 248.476 264.904 248.182 265.199C247.298 271.976 248.182 278.459 250.834 284.647C244.646 294.96 239.047 305.863 234.038 317.355C227.85 330.615 221.072 346.232 213.706 364.207C206.634 379.824 201.109 389.622 197.131 393.6C193.153 397.578 189.027 400.598 184.755 402.661C180.482 404.724 176.136 405.166 171.716 403.987L172.158 402.219C175.104 387.486 175.694 371.279 173.926 353.599C172.452 340.339 169.358 324.132 164.644 304.979C162.876 298.496 160.592 293.782 157.793 290.835C154.993 287.888 150.794 285.678 145.196 284.205C145.49 283.616 145.638 282.584 145.638 281.111C151.531 285.826 160.076 287.446 171.274 285.973C188.954 282.732 202.803 279.638 212.822 276.691H213.264C216.21 275.807 220.925 274.334 227.408 272.271L234.48 270.061C241.552 267.409 246.266 265.199 248.624 263.431ZM121.77 263.873C123.832 269.177 126.19 273.302 128.842 276.249V276.691C130.315 278.754 132.525 280.374 135.472 281.553C136.945 282.437 139.45 283.468 142.986 284.647C143.575 284.647 144.017 284.794 144.312 285.089C143.428 288.92 141.954 292.898 139.892 297.023C137.24 302.032 133.262 306.894 127.958 311.609L119.56 278.901C120.149 277.722 120.296 276.544 120.002 275.365C120.002 273.302 119.118 271.387 117.35 269.619L116.466 266.083C116.76 266.083 117.055 265.936 117.35 265.641L119.118 264.757C120.296 264.462 121.18 264.168 121.77 263.873ZM139.892 265.199C140.186 265.199 140.334 265.346 140.334 265.641C142.396 267.704 143.722 270.65 144.312 274.481L144.754 278.901C142.691 276.544 141.218 274.334 140.334 272.271C139.45 270.503 139.302 268.146 139.892 265.199ZM115.582 266.525L116.024 268.293C114.845 267.704 113.961 267.409 113.372 267.409H113.814C114.108 267.409 114.256 267.262 114.256 266.967C114.845 266.967 115.287 266.82 115.582 266.525ZM108.068 267.409C108.362 267.998 109.099 268.293 110.278 268.293H111.162C112.635 267.998 114.403 268.588 116.466 270.061L118.676 278.901C117.202 282.142 114.992 283.91 112.046 284.205H111.604C111.604 283.616 111.309 282.437 110.72 280.669L111.604 278.017V274.039C111.014 272.271 110.13 271.24 108.952 270.945L108.51 270.503L108.068 267.409ZM107.184 271.387C107.478 271.387 107.626 271.387 107.626 271.387L109.836 280.669C109.541 281.553 109.394 282.732 109.394 284.205C107.92 283.616 106.594 282.732 105.416 281.553C104.237 280.374 103.5 278.975 103.206 277.354C102.911 275.733 103.206 274.186 104.09 272.713C104.974 271.829 106.005 271.387 107.184 271.387ZM108.952 271.829C109.836 272.713 110.425 273.597 110.72 274.481C111.014 275.365 110.867 276.544 110.278 278.017V278.459L108.952 271.829ZM117.792 272.271C118.086 272.566 118.381 273.302 118.676 274.481L119.118 275.365V276.249L117.792 272.271ZM119.118 280.669L127.074 312.493C126.19 313.082 125.158 313.966 123.98 315.145L123.096 315.587L118.234 304.979C120.296 303.506 121.107 301.59 120.665 299.233C120.223 296.876 118.528 294.518 115.582 292.161L113.372 290.393L112.046 285.531H112.488C115.14 284.942 117.35 283.321 119.118 280.669ZM110.278 283.321C110.572 283.616 110.72 283.91 110.72 284.205H110.278V283.321ZM110.278 285.531C110.572 285.531 110.72 285.531 110.72 285.531C111.309 286.71 111.604 287.594 111.604 288.183L110.278 285.531ZM251.276 285.973C251.865 287.152 252.454 288.183 253.044 289.067C253.928 291.13 255.254 293.045 257.022 294.813V295.255H257.464C260.116 299.086 262.768 301.885 265.42 303.653C268.072 306.894 271.018 309.546 274.26 311.609C278.09 314.85 281.479 317.65 284.426 320.007L337.024 352.715C351.168 361.555 361.776 368.332 368.848 373.047C383.286 383.655 393.6 393.526 399.788 402.661H400.23C403.177 406.786 405.828 411.354 408.186 416.363C410.249 420.783 411.722 424.172 412.606 426.529V426.971L412.164 427.855C412.164 428.15 411.869 428.297 411.28 428.297L406.86 426.087L391.39 414.153C383.139 407.965 376.362 403.398 371.058 400.451C363.102 396.031 356.324 393.968 350.726 394.263C340.118 394.263 328.479 396.031 315.808 399.567C308.147 401.63 296.802 405.313 281.774 410.617L277.796 411.943C262.768 416.952 250.686 420.341 241.552 422.109C227.997 425.056 215.621 425.792 204.424 424.319C197.941 423.73 192.048 421.962 186.744 419.015C183.502 416.952 179.23 412.974 173.926 407.081L172.158 405.313C176.578 406.492 180.998 405.976 185.418 403.766C189.838 401.556 194.11 398.388 198.236 394.263C201.772 390.727 207.223 380.856 214.59 364.649L221.22 349.179C227.113 335.035 231.68 324.574 234.922 317.797C241.404 303.653 246.856 293.045 251.276 285.973ZM285.752 286.857C286.046 286.857 286.194 286.857 286.194 286.857C287.078 286.857 287.962 287.299 288.846 288.183C289.73 289.067 290.098 290.246 289.951 291.719C289.803 293.192 289.214 294.445 288.183 295.476C287.151 296.507 285.826 297.244 284.205 297.686C282.584 298.128 280.595 297.907 278.238 297.023C278.827 296.434 279.416 295.992 280.006 295.697L281.332 294.813L282.216 293.487V291.277C282.216 290.393 282.51 289.509 283.1 288.625C283.689 287.741 284.426 287.152 285.31 286.857H285.752ZM113.814 292.161C114.108 292.456 114.403 292.75 114.698 293.045C117.644 295.402 119.191 297.539 119.339 299.454C119.486 301.369 118.97 302.916 117.792 304.095L113.814 292.161ZM107.626 295.697C107.92 295.697 108.215 295.697 108.51 295.697C109.983 295.992 111.014 297.465 111.604 300.117V302.327L112.046 303.653L113.814 304.537L115.14 305.863C113.372 306.747 111.456 306.894 109.394 306.305C106.152 305.716 104.237 303.8 103.648 300.559C103.353 299.38 103.795 298.202 104.974 297.023C105.563 296.139 106.447 295.697 107.626 295.697ZM117.35 305.863C117.939 307.042 118.823 308.81 120.002 311.167L122.212 316.471C118.97 318.828 115.729 320.596 112.488 321.775V321.333C112.782 319.565 113.814 316.618 115.582 312.493C116.466 310.725 116.908 308.957 116.908 307.189C116.613 307.189 116.466 306.894 116.466 306.305H116.908L117.35 305.863ZM127.074 313.819L131.494 330.615C128.547 326.49 125.895 321.775 123.538 316.471L124.422 316.029C125.6 314.85 126.484 314.114 127.074 313.819ZM156.246 392.495C157.13 392.495 157.866 392.642 158.456 392.937C160.518 394.41 163.612 397.21 167.738 401.335L170.39 404.429L169.506 406.197C168.327 407.376 167.148 407.818 165.97 407.523C165.38 407.523 164.938 407.376 164.644 407.081C159.929 404.429 156.246 401.63 153.594 398.683C152.12 397.21 151.973 395.589 153.152 393.821C154.036 392.937 155.067 392.495 156.246 392.495Z" fill="#656565"/>
</g>
<defs>
<clipPath id="clip0_4009_1930">
<rect width="442" height="442" fill="white" transform="matrix(1 0 0 -1 0 442)"/>
</clipPath>
</defs>
</svg>
