<svg width="483" height="750" viewBox="0 0 483 750" fill="none" xmlns="http://www.w3.org/2000/svg">
<path d="M129.332 502.322C129.332 502.613 129.132 502.864 128.85 502.929C128.568 502.993 128.279 502.855 128.152 502.593L128.122 502.531C123.151 492.271 118.19 482.041 110.581 470.396C109.202 468.285 107.738 466.129 106.222 463.9C104.613 461.531 102.949 459.084 101.285 456.536C95.8508 448.218 90.3942 438.819 86.709 427.534C80.8407 409.567 79.4829 386.877 79.284 372.081C79.1459 361.787 79.5679 355.274 79.8593 350.791C79.9871 348.817 80.0886 347.255 80.1066 345.936C80.1653 341.675 79.3593 339.961 78.5458 338.21C78.4049 337.907 78.5278 337.548 78.8241 337.394C80.7565 336.397 82.5569 335.461 83.8809 333.925C85.2151 332.38 86.0978 330.191 87.0274 327.87L88.0329 328.552L88.0226 328.563C85.6944 330.792 83.2973 333.088 78.9698 334.795C74.6858 336.486 68.5116 337.598 62.432 338.695L62.3692 337.463C65.3382 337.691 68.2761 337.918 70.9965 337.918C74.1333 337.918 76.9097 337.614 79.0596 336.71C83.0542 335.032 85.0646 331.209 87.189 327.114L88.1344 327.883L88.1158 327.899C85.8989 329.72 83.6302 331.585 81.2433 332.932C78.8448 334.286 76.3461 335.106 73.9123 335.907C73.7079 335.974 73.4841 335.932 73.3191 335.793C73.1547 335.655 73.0732 335.441 73.1036 335.228C73.4047 333.113 73.6975 331.054 73.3612 328.034C73.0249 325.015 72.0594 321.026 68.8818 316.052C67.352 313.659 65.3112 311.035 63.2207 308.351C61.0901 305.614 58.9105 302.815 57.2309 300.184C57.1225 300.014 57.0168 299.847 56.9125 299.679C53.5989 294.325 52.5457 289.763 51.509 285.281C51.4697 285.111 51.5035 284.933 51.603 284.788C51.7024 284.645 51.8571 284.548 52.0305 284.526C56.0755 283.975 60.1502 283.419 65.1054 283.26C66.2215 283.225 67.3804 283.208 68.5717 283.208C72.6699 283.208 77.1721 283.393 81.6584 283.575L81.3476 284.75C71.6215 279.717 62.1447 274.834 56.2136 274.834C55.9746 274.834 55.7426 274.843 55.5181 274.859C50.0829 275.252 48.0676 280.588 48.2534 283.162C48.2576 283.228 48.2638 283.29 48.2714 283.348C48.386 284.269 48.779 284.66 50.4579 284.66C51.6824 284.66 53.3993 284.434 55.7958 284.115C56.5589 284.012 57.3884 283.902 58.2841 283.789C61.7635 283.348 66.2795 282.856 70.8825 282.856C76.3613 282.856 82.0583 283.552 86.2891 285.949C94.1222 290.386 96.6388 300.431 96.3419 311.451C96.0435 322.524 92.9018 334.85 88.5999 349.555C88.3893 350.276 88.1766 351 87.9618 351.731C87.7449 352.468 87.5246 353.217 87.3071 353.96C83.2904 367.692 79.4857 382.162 84.5066 390.455C89.0564 397.969 101.062 400.63 108.238 400.63C109.781 400.63 111.056 400.504 111.946 400.293C113.628 399.895 113.687 399.306 113.545 398.704C113.373 397.979 112.806 397.086 112.103 395.998C111.363 394.851 110.489 393.514 110.179 392.202C110.134 392.011 110.1 391.816 110.08 391.622C109.711 388.066 113.881 385.473 118.054 385.039C118.489 384.993 118.93 384.97 119.374 384.97C119.981 384.97 120.593 385.015 121.202 385.107C123.517 385.459 125.742 386.512 127.865 387.513C130.024 388.529 132.083 389.493 134.184 389.812C134.653 389.885 135.12 389.922 135.588 389.922C135.869 389.922 136.15 389.91 136.431 389.879C141.481 389.359 147.1 383.959 147.614 378.278C148.132 372.593 143.579 366.492 138.751 360.09C138.55 359.822 138.596 359.445 138.854 359.233C139.112 359.02 139.492 359.052 139.713 359.302C144.623 364.854 149.679 370.553 151.431 376.755C153.201 383.014 151.615 389.858 144.039 393.268C141.039 394.619 137.103 395.42 133.122 396.232C128.787 397.115 124.372 398.02 120.779 399.637C119.476 400.223 118.293 400.899 117.269 401.694C110.844 406.676 110.23 416.754 113.244 424.45C116.233 432.082 122.751 437.188 129.448 442.417L128.619 442.473L128.629 442.462C130.578 440.448 132.611 438.407 138.861 438.407C139.786 438.407 140.802 438.451 141.923 438.544V438.546C150.475 439.268 165.36 442.951 180.154 446.611L179.538 447.624C176.343 443.953 173.164 440.301 165.556 434.531C157.874 428.706 145.915 420.909 138.212 420.14C137.772 420.096 137.347 420.077 136.936 420.077C132.743 420.077 129.857 422.217 127.185 424.216C125.658 425.36 124.142 426.502 122.522 427.003C121.75 427.242 120.971 427.33 120.202 427.33C118.817 427.33 117.427 427.038 116.159 426.773C114.949 426.52 113.862 426.295 112.876 426.295C111.936 426.295 111.143 426.5 110.474 427.054C107.745 429.315 106.484 437.674 108.82 444.386C111.016 450.694 116.249 455.088 119.851 455.088C120.051 455.088 120.245 455.073 120.432 455.047C123.993 454.537 126.046 449.075 128.288 442.836C128.391 442.547 128.689 442.378 128.989 442.436C129.29 442.495 129.504 442.762 129.493 443.068C129.32 448.048 129.303 451.968 131.775 452.723C132.116 452.827 132.528 452.88 133.019 452.88C134.768 452.88 137.218 452.223 140.408 451.359V451.361C142.998 450.658 146.019 449.842 149.405 449.207C158.081 447.577 169.117 447.153 180.089 446.729C180.425 446.717 180.71 446.974 180.733 447.31C180.902 449.934 180.991 452.553 175.533 457.804C170.158 462.976 159.288 470.824 149.651 475.291C142.381 478.66 135.788 480.115 130.643 480.115C128.953 480.115 127.412 479.958 126.051 479.657C120.458 478.415 118.059 474.767 116.937 470.335C115.83 465.962 115.887 460.497 120.626 456.812C123.607 454.495 128.415 452.923 132.208 452.923C134.282 452.923 136.232 453.394 137.344 454.675V454.677C139.825 457.531 137.469 463.846 135.172 470.263C134.681 471.636 134.177 473.044 133.697 474.464C130.879 482.774 128.794 491.586 129.549 502.51C130.308 513.51 133.923 526.403 143.231 532.249C148.83 535.765 156.583 536.799 165.323 536.799C171.116 536.799 177.288 536.346 183.492 535.891C183.825 535.867 184.117 536.109 184.155 536.441C185.434 547.63 186.772 559.121 177.647 569.687C173.129 574.921 166.048 579.911 158.587 585.176C151.081 590.47 143.157 596.064 136.831 602.539C124.199 615.467 117.897 631.96 111.548 648.599C111.431 648.906 111.095 649.07 110.782 648.971C110.468 648.873 110.286 648.548 110.364 648.228C113.996 633.541 117.658 618.682 130.584 605.605C136.92 599.196 145.47 593.226 153.689 587.487C161.432 582.079 168.868 576.883 174.021 571.67C174.544 571.14 175.045 570.611 175.517 570.082C185.374 559.06 184.101 547.857 182.463 533.715L182.391 533.086C182.266 532.006 182.143 530.939 182.016 529.832C181.887 528.709 181.758 527.581 181.626 526.436C180.145 513.641 178.422 499.819 175.625 489.945C173.439 482.229 170.597 476.918 168.192 472.424C166.988 470.174 165.88 468.106 165.032 466.052C162.49 459.893 162.284 453.847 164.586 448.888C166.415 444.946 169.919 441.554 173.97 441.554C174.939 441.554 175.925 441.749 176.909 442.172C181.615 444.194 186.318 451.512 190.506 457.982C190.697 458.278 190.946 458.664 191.135 458.955C191.625 459.708 192.122 460.473 192.601 461.209C193.079 461.942 193.538 462.648 194.007 463.37C197.308 468.461 200.361 473.334 203.073 479.037C206.554 486.358 209.463 495.019 213.181 507.816C216.901 520.615 221.437 537.584 225.971 554.544L224.77 554.861L221.715 543.133C221.671 542.967 221.699 542.791 221.789 542.646C221.879 542.501 222.026 542.399 222.194 542.366C228.414 541.119 234.514 539.892 239.051 537.609C243.493 535.373 246.471 532.11 249.494 523.89C252.535 515.617 255.566 502.48 255.526 493.502C255.493 485.487 253.016 480.779 250.215 475.468C249.906 474.882 249.591 474.285 249.278 473.679C246.114 467.571 242.931 460.32 239.759 453.093L239.919 453.312C233.732 447.884 227.458 442.386 223.133 435.398C218.837 428.456 216.392 419.916 217.758 414.743V414.744C218.801 410.798 222.012 408.901 225.895 408.901C227.288 408.901 228.771 409.142 230.281 409.613C235.93 411.375 242.104 416.398 249.176 422.369C256.287 428.375 264.46 435.483 272.511 445.122C280.558 454.753 288.471 466.9 293.445 476.188C298.459 485.553 300.512 492.089 297.938 506.628C295.384 521.066 288.256 543.496 281.152 565.857C281.05 566.182 280.703 566.364 280.376 566.262C280.05 566.16 279.867 565.814 279.965 565.487C286.575 543.74 293.169 522.037 296.04 509.038C298.901 496.094 298.047 491.885 296.429 486.732C295.887 485.001 295.255 483.166 294.623 481.33C293.998 479.517 293.376 477.706 292.844 476.009C292.285 474.226 291.82 472.555 291.562 471.136C291.217 469.22 291.252 467.786 291.297 466.043C291.346 464.013 291.41 461.497 290.91 457.138C290.307 451.876 288.884 443.937 287.586 436.705C286.886 432.797 286.223 429.106 285.749 426.162C285.512 424.68 285.323 423.394 285.149 422.233C285.008 421.272 284.881 420.408 284.748 419.583C284.136 415.783 283.44 412.98 280.972 407.338V407.34C280.139 405.433 279.103 403.208 277.98 400.788C276.656 397.939 275.213 394.835 273.84 391.696C271.276 385.837 268.937 379.82 268.109 375.163C266.43 365.727 270.951 361.874 274.752 359.433C276.802 358.114 278.788 357.101 280.906 357.101C282.641 357.101 284.379 357.775 286.247 359.325C289.384 361.92 293.038 367.111 296.634 372.21C297.759 373.804 298.88 375.394 299.99 376.913C300.607 377.757 301.226 378.589 301.838 379.409C302.447 380.229 303.052 381.041 303.662 381.875C307.087 386.565 310.492 391.762 314.154 400.81C317.055 407.981 320.119 417.571 323.098 426.899C325.214 433.517 327.285 440.002 329.235 445.424C329.896 447.267 330.545 448.989 331.164 450.631V450.633C331.726 452.126 332.261 453.548 332.762 454.937V454.939C335.622 462.901 337.228 469.641 335.122 480.633C333.605 488.56 330.154 498.711 326.558 509.291C323.37 518.671 320.061 528.408 317.836 537.325C314.887 549.146 313.839 559.543 312.983 568.041C312.465 573.179 312.016 577.656 311.25 581.307C309.189 591.143 304.808 595.034 291.412 603.917C278.003 612.808 255.345 626.835 224.494 635.134C193.667 643.427 154.681 645.991 115.784 648.553L115.72 647.311C151.219 645.998 186.638 644.686 222.272 634.793C257.919 624.896 293.788 606.41 312.23 592.548C329.3 579.716 331.367 570.923 335.246 554.486C335.531 553.281 335.831 552.011 336.143 550.718C337.187 546.368 338.414 541.516 339.714 536.38C341.174 530.602 342.726 524.468 344.212 518.288C347.171 505.973 349.862 493.507 351.048 483.359C353.117 465.702 350.637 455.047 348.147 444.352C347.854 443.091 347.563 441.841 347.278 440.568C346.103 435.349 345.056 429.944 344.04 424.69C343.073 419.701 342.132 414.848 341.132 410.403C340.744 408.677 340.348 407.014 339.938 405.43C337.384 395.561 334.29 388.686 331.307 382.063L331.229 381.888L331.192 381.804L331.153 381.718C328.093 374.921 325.368 369.078 321.355 368.395C321.081 368.349 320.797 368.326 320.506 368.326C316.51 368.326 311.296 372.641 309.216 377.155C307.034 381.893 308.402 386.733 309.877 391.85L308.675 392.161C306.546 382.967 304.336 373.499 306.802 366.339C309.279 359.15 316.427 354.392 323.309 349.786C323.593 349.594 323.978 349.67 324.169 349.955C324.36 350.241 324.284 350.628 323.998 350.819C317.011 355.499 310.29 360.029 307.976 366.745C305.651 373.492 307.727 382.55 309.884 391.882C309.96 392.209 309.762 392.539 309.435 392.623C309.109 392.708 308.775 392.518 308.683 392.193C307.234 387.165 305.68 381.861 308.088 376.634C310.28 371.879 315.839 367.081 320.506 367.081C320.863 367.081 321.217 367.109 321.563 367.168C326.397 367.991 329.385 374.765 332.285 381.206H332.286L332.323 381.294L332.361 381.376L332.44 381.551C335.424 388.181 338.558 395.138 341.141 405.118C341.554 406.717 341.953 408.393 342.344 410.128C343.349 414.597 344.293 419.468 345.258 424.455C346.277 429.71 347.32 435.098 348.488 440.296C348.775 441.563 349.065 442.809 349.358 444.07C351.856 454.806 354.376 465.629 352.283 483.504C351.086 493.732 348.38 506.258 345.419 518.579C343.932 524.769 342.38 530.906 340.918 536.685C339.618 541.822 338.393 546.67 337.35 551.009C337.039 552.302 336.74 553.564 336.455 554.773C332.55 571.324 330.388 580.456 312.976 593.543C294.4 607.506 258.387 626.058 222.605 635.992C186.807 645.931 151.245 647.242 115.766 648.554C115.427 648.567 115.14 648.304 115.122 647.965C115.105 647.625 115.363 647.334 115.702 647.312C154.638 644.747 193.487 642.186 224.171 633.932C254.831 625.685 277.36 611.743 290.724 602.88C304.102 594.008 308.084 590.358 310.034 581.052C310.784 577.479 311.227 573.078 311.747 567.916C312.603 559.419 313.658 548.94 316.631 537.024C318.871 528.046 322.196 518.259 325.38 508.891C328.987 498.279 332.405 488.222 333.902 480.399C335.953 469.692 334.406 463.188 331.593 455.36C331.096 453.979 330.564 452.565 330.002 451.07C329.383 449.429 328.731 447.7 328.064 445.846C326.107 440.396 324.028 433.888 321.915 427.277C318.931 417.934 315.883 408.393 313.002 401.278C309.387 392.346 306.04 387.238 302.66 382.61C302.055 381.783 301.452 380.972 300.842 380.154C300.228 379.333 299.608 378.499 298.987 377.647C297.87 376.118 296.744 374.522 295.619 372.927C291.975 367.761 288.433 362.747 285.455 360.283C283.749 358.87 282.282 358.344 280.906 358.344C279.173 358.344 277.452 359.176 275.422 360.479C271.852 362.774 267.775 366.194 269.331 374.946C270.132 379.441 272.414 385.337 274.978 391.197C276.344 394.32 277.78 397.413 279.106 400.263C280.229 402.678 281.269 404.918 282.111 406.839V406.84C284.619 412.574 285.345 415.477 285.975 419.385C286.109 420.219 286.238 421.093 286.38 422.051C286.551 423.214 286.739 424.491 286.976 425.964C287.448 428.894 288.107 432.575 288.809 436.486C290.103 443.7 291.536 451.685 292.144 456.997C292.654 461.437 292.589 464.016 292.54 466.074C292.496 467.816 292.464 469.136 292.786 470.914C293.028 472.256 293.473 473.867 294.03 475.638C294.555 477.314 295.172 479.108 295.798 480.924C296.427 482.757 297.066 484.611 297.614 486.36C299.309 491.76 300.151 496.195 297.253 509.307C294.368 522.364 287.756 544.127 281.155 565.849L279.969 565.479C287.085 543.08 294.179 520.748 296.714 506.412C299.233 492.176 297.248 485.921 292.35 476.776C287.412 467.555 279.545 455.479 271.558 445.92C263.58 436.367 255.475 429.316 248.375 423.32C241.237 417.294 235.269 412.473 229.911 410.801C228.504 410.362 227.146 410.144 225.895 410.144V410.146C222.452 410.144 219.828 411.773 218.959 415.061C217.727 419.73 219.951 427.895 224.188 434.743C228.398 441.547 234.524 446.924 240.737 452.376C240.804 452.436 240.859 452.51 240.896 452.593C244.073 459.829 247.24 467.042 250.38 473.106V473.108C250.691 473.706 251.004 474.301 251.313 474.887C254.128 480.225 256.734 485.159 256.769 493.496C256.808 502.673 253.732 515.962 250.659 524.32C247.567 532.729 244.422 536.299 239.609 538.721C234.89 541.095 228.605 542.349 222.438 543.586L222.917 542.819L225.972 554.547C226.059 554.879 225.861 555.218 225.53 555.306C225.2 555.394 224.86 555.197 224.772 554.865C220.235 537.902 215.702 520.946 211.989 508.163C208.273 495.377 205.386 486.797 201.952 479.574C199.275 473.947 196.261 469.131 192.966 464.046V464.048C192.5 463.33 192.035 462.618 191.562 461.888C191.081 461.152 190.584 460.388 190.094 459.632C189.903 459.341 189.654 458.955 189.463 458.659V458.661C185.159 452.009 180.687 445.148 176.42 443.316C175.588 442.958 174.768 442.799 173.97 442.799C170.623 442.799 167.45 445.666 165.711 449.411C163.592 453.978 163.735 459.65 166.18 465.578C167.001 467.563 168.075 469.574 169.288 471.836C171.698 476.341 174.596 481.753 176.82 489.605C179.649 499.594 181.383 513.523 182.86 526.293C182.994 527.445 183.121 528.56 183.251 529.691C183.378 530.79 183.501 531.869 183.625 532.942L183.697 533.572C185.329 547.658 186.715 559.424 176.444 570.912C175.955 571.457 175.441 572.001 174.905 572.545C169.654 577.856 162.11 583.122 154.4 588.508C146.156 594.265 137.706 600.168 131.467 606.481C118.81 619.286 115.206 633.82 111.57 648.527L110.387 648.155C116.721 631.557 123.102 614.812 135.942 601.669C142.361 595.098 150.385 589.44 157.871 584.159C165.376 578.863 172.31 573.966 176.709 568.873C185.434 558.769 184.205 547.826 182.92 536.582L183.583 537.132C177.389 537.587 171.169 538.044 165.323 538.044C156.541 538.043 148.486 537.017 142.572 533.303C132.722 527.117 129.073 513.666 128.309 502.595V502.597C127.54 491.448 129.672 482.463 132.519 474.064C133.005 472.632 133.513 471.215 134.004 469.843C136.481 462.92 138.274 457.641 136.407 455.493C135.657 454.629 134.177 454.167 132.208 454.167C128.676 454.167 124.139 455.656 121.387 457.795C117.228 461.029 117.084 465.849 118.142 470.029C119.185 474.152 121.316 477.33 126.32 478.44V478.442C127.578 478.72 129.028 478.87 130.643 478.87C135.57 478.87 141.985 477.472 149.129 474.161C158.638 469.756 169.392 461.986 174.674 456.906C179.87 451.908 179.64 449.647 179.491 447.392L180.135 447.972C169.135 448.397 158.199 448.82 149.634 450.428C146.301 451.055 143.325 451.86 140.731 452.562C137.618 453.403 134.975 454.125 133.019 454.125C132.443 454.125 131.904 454.063 131.414 453.914C127.792 452.809 128.1 447.386 128.251 443.026L129.457 443.258C127.373 449.057 125.103 455.635 120.608 456.28C120.359 456.315 120.106 456.333 119.851 456.333C115.48 456.333 109.922 451.329 107.647 444.794C105.258 437.93 106.333 428.869 109.682 426.096C110.641 425.303 111.746 425.05 112.876 425.05C114.015 425.05 115.235 425.309 116.414 425.554C117.706 425.825 118.968 426.087 120.202 426.087C120.874 426.087 121.526 426.008 122.155 425.815C123.528 425.39 124.863 424.4 126.442 423.219C129.092 421.237 132.282 418.832 136.936 418.832C137.388 418.832 137.855 418.855 138.334 418.903C146.446 419.712 158.68 427.757 166.307 433.539C174.007 439.381 177.25 443.102 180.474 446.805C180.653 447.011 180.678 447.307 180.536 447.539C180.395 447.77 180.121 447.882 179.857 447.818C165.008 444.146 150.247 440.497 141.817 439.786C140.728 439.694 139.745 439.65 138.861 439.65C133.047 439.65 131.319 441.473 129.522 443.328L129.512 443.339C129.291 443.567 128.934 443.592 128.684 443.397C122.042 438.213 115.222 432.909 112.088 424.905C108.978 416.964 109.455 406.179 116.508 400.71C117.627 399.842 118.9 399.118 120.27 398.502C124.014 396.817 128.573 395.89 132.874 395.012C136.9 394.191 140.682 393.417 143.532 392.133C150.413 389.037 151.88 382.909 150.236 377.093C148.576 371.222 143.753 365.746 138.783 360.127L139.743 359.339C144.446 365.576 149.423 372.118 148.852 378.389V378.391C148.283 384.665 142.197 390.536 136.559 391.117C136.233 391.151 135.91 391.167 135.588 391.167C135.051 391.167 134.52 391.123 133.997 391.042C131.685 390.69 129.459 389.637 127.336 388.638C125.177 387.62 123.119 386.656 121.016 386.337C120.471 386.254 119.922 386.214 119.374 386.214C118.974 386.214 118.576 386.236 118.182 386.277C114.077 386.703 111.068 389.106 111.315 391.493C111.33 391.629 111.354 391.771 111.389 391.915C111.639 392.976 112.37 394.12 113.146 395.322C113.801 396.337 114.521 397.434 114.753 398.417C115.111 399.929 114.312 401.01 112.232 401.504C111.214 401.747 109.833 401.874 108.238 401.874C100.995 401.874 88.3603 399.217 83.4444 391.099C78.0734 382.229 82.1681 367.101 86.1143 353.611C86.3312 352.871 86.5543 352.11 86.7698 351.379C86.9838 350.649 87.1979 349.923 87.4079 349.205C91.7119 334.49 94.8066 322.309 95.1001 311.417C95.395 300.474 92.8611 291.101 85.6772 287.033C81.7344 284.798 76.3047 284.099 70.8825 284.099C66.3596 284.099 61.9064 284.586 58.4395 285.025C57.5486 285.136 56.7226 285.246 55.9594 285.347V285.349C53.6016 285.663 51.7846 285.905 50.4579 285.905C48.5172 285.905 47.2686 285.351 47.0379 283.502C47.0282 283.421 47.0199 283.337 47.0137 283.252C46.8003 280.283 49.0504 274.078 55.429 273.618C55.6853 273.6 55.947 273.589 56.2136 273.589C62.528 273.589 72.3481 278.692 81.9181 283.644C82.1771 283.779 82.3083 284.074 82.2337 284.358C82.1591 284.639 81.8988 284.83 81.608 284.82C77.1155 284.636 72.6395 284.453 68.5717 284.453C67.3907 284.453 66.245 284.467 65.1455 284.503C60.2614 284.66 56.2447 285.207 52.1983 285.758L52.7197 285.002C53.7536 289.47 54.7716 293.858 57.9685 299.022V299.024C58.0693 299.185 58.1722 299.35 58.2772 299.514C59.9195 302.085 62.0611 304.836 64.2007 307.586C66.2809 310.258 68.3617 312.929 69.9281 315.382C73.2189 320.532 74.2411 324.706 74.596 327.895C74.9503 331.08 74.6375 333.27 74.3336 335.404L73.5242 334.725C75.9739 333.918 78.3579 333.132 80.6335 331.848C82.9085 330.565 85.0922 328.774 87.3278 326.937L87.3464 326.922C87.5743 326.734 87.9024 326.732 88.1317 326.918C88.361 327.105 88.428 327.428 88.2919 327.69C86.2124 331.696 84.019 335.976 79.5403 337.858C77.1583 338.86 74.181 339.161 70.9965 339.161C68.2195 339.161 65.2318 338.93 62.2739 338.702C61.9624 338.679 61.7172 338.426 61.7013 338.113C61.6854 337.801 61.9044 337.525 62.2117 337.47C68.339 336.365 74.3709 335.272 78.514 333.637C82.6011 332.025 84.8512 329.878 87.1641 327.664L87.1745 327.653C87.3858 327.451 87.7097 327.424 87.9521 327.587C88.1938 327.752 88.2891 328.063 88.1807 328.334C87.2725 330.602 86.3181 333.005 84.8208 334.74C83.3132 336.486 81.2875 337.523 79.3938 338.5L79.6722 337.686C80.5375 339.549 81.4112 341.45 81.349 345.954C81.3304 347.312 81.2268 348.909 81.099 350.871V350.873C80.8089 355.343 80.389 361.817 80.5265 372.063C80.7247 386.838 82.0832 409.369 87.89 427.148C91.5261 438.281 96.9158 447.574 102.325 455.854C103.982 458.392 105.639 460.83 107.249 463.198C108.764 465.427 110.235 467.593 111.621 469.714C119.278 481.434 124.269 491.73 129.24 501.988L129.27 502.05L128.09 502.322C128.09 501.979 128.368 501.699 128.711 501.699C129.054 501.699 129.332 501.979 129.332 502.322ZM331.194 225.539H331.192L331.19 225.54L331.194 225.539C328.718 225.857 326.254 226.175 322.504 226.826C321.236 227.045 319.824 227.302 318.299 227.58C316.528 227.902 314.609 228.253 312.61 228.598V228.6C311.231 228.837 309.81 229.076 308.37 229.303C305.301 229.788 302.11 230.229 298.898 230.229C296.549 230.229 294.182 229.995 291.829 229.365C286.279 227.885 280.887 224.227 275.617 220.663C275.324 220.466 275.239 220.073 275.42 219.773C275.602 219.471 275.989 219.365 276.3 219.533C286.438 225.004 296.732 230.548 303.302 238.116C309.879 245.692 312.781 255.366 309.812 263.64C306.928 271.668 298.526 278.214 290.738 284.304L290.232 284.703C282.165 291.015 274.893 296.862 272.933 302.104C272.293 303.818 272.217 305.484 272.144 307.206C272.077 308.787 272.013 310.44 271.41 312.051C270.717 313.902 269.347 315.628 266.654 317.239C259.791 321.345 243.942 324.924 231.755 324.924C230.617 324.924 229.508 324.892 228.44 324.829C215.831 324.06 208.954 318.584 204.8 312.639C200.65 306.695 199.219 300.283 201.077 292.332C201.963 288.534 203.602 284.386 204.919 281.047C205.84 278.713 206.586 276.821 206.858 275.652C206.974 275.155 206.968 274.926 206.952 274.87C206.952 274.866 206.968 274.93 207.044 274.993C207.13 275.066 207.215 275.072 207.231 275.072H207.235C206.033 275.152 199.723 281.727 198.207 289.017C196.651 296.517 200.43 304.433 207.17 310.924C209.459 313.129 212.085 315.162 214.504 317.035C216.51 318.588 218.391 320.045 219.774 321.376C221.482 323.021 222.877 324.892 221.867 326.65V326.652C219.816 330.222 207.148 331.835 198.747 331.835C198.22 331.835 197.702 331.829 197.202 331.815C192.891 331.705 189.794 331.121 187.062 330.604C184.861 330.19 182.929 329.825 180.766 329.77C180.581 329.767 180.391 329.763 180.204 329.763C179.794 329.763 179.371 329.776 178.94 329.8C176.765 329.924 174.267 330.383 171.76 330.845C169.364 331.285 166.954 331.73 164.905 331.848C164.566 331.868 164.233 331.879 163.912 331.879C162.753 331.879 161.679 331.743 160.811 331.353C158.933 330.512 158.265 328.597 157.584 326.751C156.728 324.428 155.752 321.807 152.754 319.703C150.73 318.284 147.774 317.086 144.722 315.854V315.856C141.741 314.652 138.661 313.413 136.527 311.917C134.884 310.764 133.636 309.343 133.583 307.517C133.412 301.604 146.111 293.116 155.093 292.856C155.239 292.852 155.384 292.85 155.529 292.85C155.577 292.85 155.627 292.85 155.674 292.85C162.595 292.919 167.394 297.971 171.772 302.528C173.364 304.187 174.904 305.789 176.493 307.138C180.561 310.585 184.932 312.343 187.803 312.343C189.196 312.343 190.091 311.938 190.533 311.297C191.268 310.228 191.075 308.22 190.722 305.219C190.361 302.167 189.91 298.38 190.816 294.554V294.556C192.555 287.199 199.29 279.828 205.824 272.647L206.425 273.744C200.922 274.689 195.467 275.628 187.63 278.848C184.956 279.945 182.005 281.31 178.996 282.702C175.911 284.129 172.766 285.584 169.831 286.79C167.227 287.86 164.764 288.745 162.635 289.242C161.217 289.571 159.941 289.733 158.784 289.733C154.227 289.733 151.737 287.253 149.891 283.658V283.66C149.366 282.635 148.886 281.512 148.408 280.393V280.395C147.908 279.22 147.406 278.046 146.836 276.937C145.558 274.452 144.008 272.435 141.575 271.616C140.119 271.125 138.299 271.04 136.204 271.04C135.746 271.04 135.293 271.044 134.817 271.047C134.337 271.053 133.84 271.056 133.343 271.056C129.452 271.056 125.089 270.813 121.472 268.152C117.193 265.003 114.068 258.512 112.032 254.307C110.923 252.018 110.224 250.628 109.855 250.355L109.851 250.354C109.848 250.352 109.9 250.386 109.996 250.386C110.18 250.386 110.266 250.272 110.266 250.272C110.185 250.387 110.053 250.906 110.053 251.954C110.053 254.936 111.078 260.462 113.309 264.525C115.799 269.059 119.814 271.821 124.404 274.964C126.038 276.082 127.741 277.247 129.444 278.549V278.55C135.783 283.393 142.593 290.467 141.18 297.169C139.786 303.785 130.429 309.556 125.145 310.134C124.831 310.168 124.527 310.184 124.235 310.184C120.754 310.184 119.046 307.818 117.526 305.757C116.867 304.865 116.245 304.028 115.515 303.333V303.335C114.628 302.492 113.559 301.844 112.338 301.108C110.954 300.274 109.407 299.343 107.919 297.93C106.887 296.949 105.887 295.742 104.976 294.177C102.872 290.56 101.239 285.015 99.8012 280.142C98.9511 277.261 98.1693 274.616 97.3909 272.656C96.4973 270.406 95.6077 269.062 94.8087 267.855C94.1843 266.913 93.5876 266.015 93.1249 264.848C92.7948 264.018 92.5372 263.065 92.3666 261.866C91.6608 256.906 92.408 247.303 96.6934 241.779C99.0678 238.718 102.495 236.963 105.641 235.34C108.258 233.992 110.662 232.745 112.379 230.946C116.197 226.946 116.746 220.07 117.291 212.818L118.573 213.089C117.128 217.149 115.702 221.161 114.873 227.513C114.04 233.896 113.827 242.546 116.661 249.973C119.504 257.423 125.39 263.604 131.263 265.266C132.443 265.599 133.628 265.753 134.786 265.753V265.755C139.383 265.753 143.497 263.344 145.202 260.311C146.398 258.188 146.464 255.695 146.522 252.85C146.566 250.655 146.61 248.277 147.287 245.913C147.929 243.675 149.131 241.478 150.305 239.327C151.538 237.068 152.747 234.846 153.41 232.534C153.636 231.743 153.797 230.947 153.873 230.144C154.108 227.624 153.521 224.939 152.915 222.192V222.194C152.349 219.631 151.762 216.994 151.986 214.595C152.038 214.045 152.132 213.503 152.28 212.972C153.746 207.737 160.36 204.237 166.504 200.933C166.796 200.775 167.162 200.862 167.354 201.135C167.547 201.407 167.506 201.781 167.26 202.006C163.077 205.825 159.027 209.536 156.972 213.451C156.2 214.923 155.705 216.435 155.247 217.835C154.884 218.944 154.534 220.02 154.083 220.88C153.608 221.785 152.966 222.561 151.964 222.887C151.587 223.009 151.184 223.058 150.768 223.058C149.211 223.058 147.16 222.345 144.885 221.562C142.924 220.887 140.714 220.128 138.286 219.581C136.437 219.163 134.454 218.866 132.457 218.566V218.568C130.502 218.275 128.533 217.981 126.716 217.57C124.339 217.033 122.138 216.281 120.519 215.005C116.41 211.765 116.397 205.424 116.335 199.617L116.387 199.869C113.123 192.141 109.558 183.871 113.458 177.793C117.306 171.794 128.26 168.209 136.531 167.43C137.947 167.297 139.292 167.244 140.577 167.244V167.246C143.073 167.244 145.343 167.443 147.45 167.624C149.324 167.788 151.058 167.938 152.74 167.938C153.958 167.938 155.139 167.858 156.309 167.649C161.886 166.656 167.432 162.703 173.149 158.613C173.439 158.404 173.844 158.466 174.06 158.753C174.276 159.04 174.225 159.447 173.944 159.67C166.417 165.633 158.671 171.8 150.224 172.474C149.697 172.515 149.17 172.536 148.643 172.536C140.678 172.536 132.45 167.779 130.497 159.404C129.489 155.082 130.187 149.849 130.739 145.657C131.143 142.599 131.446 140.207 131.136 138.879C130.999 138.291 130.79 138.116 130.595 138.06C130.527 138.04 130.438 138.026 130.321 138.026C128.37 138.026 123.879 141.294 118.226 145.469C114.521 148.206 110.44 151.221 106.543 153.59C103.515 155.432 100.604 156.88 97.9828 158.183C95.7914 159.274 93.8169 160.256 92.1125 161.292V161.294C89.0226 163.172 86.9355 165.158 86.1413 168.1C85.0439 172.161 86.3347 178.154 87.6116 184.001C88.4335 187.764 89.2429 191.457 89.2657 194.325C89.2968 198.332 87.8002 200.722 86.4189 202.935C85.2538 204.801 84.1985 206.508 83.9879 209.04C83.5176 214.702 87.2677 224.607 93.328 231.537C98.7342 237.718 105.951 241.491 112.73 245.027C113.506 245.432 114.277 245.834 115.036 246.236C122.414 250.134 128.795 254.001 134.706 260.095C136.364 261.803 137.982 263.684 139.575 265.534C141.154 267.37 142.708 269.176 144.278 270.794C146.778 273.37 149.248 275.394 151.806 276.277C152.991 276.684 154.212 276.854 155.478 276.854C158.313 276.854 161.304 276.002 164.501 275.087C166.84 274.418 169.278 273.719 171.753 273.358C173.404 273.116 175.059 273.028 176.728 273.028C179.129 273.028 181.572 273.213 184.058 273.4V273.402C186.705 273.602 189.405 273.805 192.212 273.805C193.096 273.805 193.989 273.784 194.895 273.738C203.268 273.305 212.631 270.589 219.629 264.465C222.9 261.601 225.67 257.983 228.221 254.649C230.308 251.923 232.27 249.353 234.206 247.658C234.961 246.998 235.73 246.451 236.522 246.078C237.399 245.664 238.288 245.465 239.178 245.465C243.674 245.465 247.719 250.478 250.387 256.457C253.637 263.735 255.175 273.149 250.456 281.82C245.767 290.437 234.95 298.205 223.338 300.779C219.641 301.6 215.87 301.892 212.523 301.892C206.89 301.892 202.166 301.058 201.206 300.343C201.112 300.272 200.83 300.046 200.83 299.658C200.83 299.16 201.257 298.955 201.374 298.905C201.449 298.873 201.525 298.847 201.598 298.828C202.226 298.658 203.643 298.619 205.409 298.566C209.721 298.433 216.878 298.209 223.738 296.35C226.619 295.57 229.436 294.504 231.955 293.043C239.793 288.506 244.94 280.078 248.847 273.662C250.445 271.035 251.86 268.708 253.161 267.2C254.637 265.486 256.05 264.728 257.546 264.728C259.315 264.728 261.013 265.815 262.745 266.899C263.905 267.624 265.136 268.393 266.544 269.021C269.132 270.176 272.34 270.87 275.159 270.87C278.245 270.869 280.531 270.048 281.322 268.499C282.326 266.526 281.267 263.032 279.819 258.489C278.94 255.733 277.973 252.7 277.494 249.69C276.26 241.933 278.26 234.177 283.236 230.763C285.687 229.083 288.802 228.515 291.937 227.933C295.188 227.329 298.53 226.704 301.608 224.946C307.732 221.449 312.822 213.478 310.824 204.902C309.615 199.714 305.825 194.242 302.087 188.865C299.599 185.287 297.14 181.752 295.618 178.462C293.003 172.812 293.159 167.92 293.289 163.675C293.349 161.709 293.402 159.915 293.199 158.213C292.556 152.85 289.331 148.335 284.499 146.23V146.232C282.298 145.272 279.744 144.801 276.87 144.276C273.484 143.656 269.702 142.967 265.797 141.266C265.708 141.227 265.625 141.192 265.535 141.151C262.775 139.919 259.966 138.174 257.264 136.5C254.657 134.882 252.153 133.329 249.812 132.284C248.166 131.55 246.645 131.086 245.267 131.013C245.136 131.006 245.005 131.003 244.876 131.003C239.935 131.003 236.381 135.999 236.381 138.818C236.381 138.946 236.387 139.065 236.402 139.177C236.593 140.648 238.073 141.332 240.861 142.47C242.477 143.128 244.393 143.909 246.304 145.133C248.336 146.434 250.342 148.226 252.356 150.021C254.515 151.945 256.691 153.884 259.008 155.366C259.861 155.913 260.729 156.394 261.618 156.788C263.412 157.585 265.312 158.034 267.219 158.484C268.979 158.9 270.759 159.318 272.351 160.022C274.361 160.913 276.094 162.276 277.202 164.682C280.035 170.831 278.728 183.905 273.656 189.499C270.576 192.893 266.172 193.489 263.267 193.895C261.508 194.143 260.622 194.31 260.359 194.6C260.334 194.626 260.328 194.642 260.327 194.673C260.279 195.338 261.644 196.978 263.995 199.647C266.532 202.526 269.808 206.239 271.707 210.173C275.179 217.364 274.134 225.716 270.578 227.693C269.935 228.051 269.246 228.177 268.545 228.177C267.529 228.177 266.417 227.909 265.309 227.646C263.926 227.318 262.478 226.978 260.915 226.978C259.568 226.978 258.134 227.233 256.608 227.989C253.412 229.581 249.804 233.368 246.653 236.684C244.434 239.02 242.367 241.215 240.944 241.923C240.746 242.02 240.539 242.101 240.332 242.15C240.2 242.179 240.065 242.195 239.929 242.195C237.883 242.195 237.802 238.628 237.583 235.685C237.341 232.436 237.031 228.32 235.764 224.289C234.512 220.318 232.323 216.403 230.264 212.726C228.52 209.613 226.853 206.641 226.031 204.029C225.709 203.011 225.509 202.024 225.488 201.085C225.412 197.655 227.746 195.198 229.839 192.948C231.621 191.034 233.265 189.246 233.829 187.013C234.425 184.66 233.851 181.737 233.347 179.232C233.036 177.686 232.702 176.121 232.936 175.192C232.993 174.974 233.087 174.749 233.248 174.554C233.52 174.227 233.902 174.087 234.309 174.087C234.526 174.087 234.751 174.126 234.977 174.191C238.49 175.201 249.669 185.22 260.562 194.954C260.829 195.191 260.859 195.598 260.629 195.871C260.399 196.145 259.994 196.188 259.715 195.967C252.385 190.193 244.984 184.367 238.992 176.75C236.921 174.117 235.023 171.277 233.251 168.625C231.667 166.254 230.191 164.045 228.762 162.23C227.141 160.169 225.656 158.714 224.245 158.092C223.617 157.816 222.991 157.698 222.341 157.698C220.829 157.698 219.215 158.325 217.191 159.123C214.546 160.168 211.353 161.432 207.281 161.432C207.26 161.432 207.24 161.432 207.221 161.432C204.56 161.423 201.544 160.874 198.328 160.289C194.415 159.58 190.158 158.808 185.658 158.794C185.616 158.794 185.577 158.794 185.534 158.794C181.97 158.794 178.266 159.274 174.486 160.639C161.757 165.238 148.377 179.701 148.228 186.826C148.141 190.953 152.655 192.762 158.033 194.794C161.124 195.965 164.398 197.19 166.483 199.093C171.122 203.328 169.704 210.647 168.754 215.79C168.548 216.906 168.359 217.927 168.236 218.835C167.955 220.928 168.031 222.421 168.1 223.773C168.155 224.838 168.208 225.854 168.057 226.976C167.925 227.959 167.64 229.005 167.087 230.254C166.604 231.342 165.915 232.593 165.195 233.896C164.354 235.418 163.463 237.029 162.749 238.642C161.541 241.369 160.936 243.886 161.725 245.841C163.418 250.039 171.836 252.441 176.719 252.441C176.809 252.441 176.9 252.439 176.984 252.439C179.361 252.391 180.565 251.714 181.834 251.002C183.012 250.342 184.263 249.635 186.399 249.492H186.39L186.399 249.49C186.696 249.47 187.009 249.461 187.333 249.461C189.566 249.461 192.477 249.9 195.076 250.292C197.31 250.628 199.284 250.922 200.531 250.922C200.759 250.922 200.951 250.911 201.107 250.893C201.666 250.823 201.692 250.757 201.623 250.193C201.589 249.925 201.522 249.61 201.436 249.208C201.328 248.705 201.197 248.1 201.114 247.418C200.991 246.416 200.964 245.242 201.24 243.916C201.605 242.153 202.504 240.143 203.398 238.136C204.399 235.889 205.409 233.612 205.854 231.465C206.1 230.288 206.167 229.181 205.985 228.164C205.152 223.533 199.051 220.091 192.396 216.413L193.169 215.353C197.102 219.08 201.038 222.809 204.716 226.381L204.887 226.549L205.059 226.716C208.568 230.126 211.735 233.09 217.109 233.09C217.18 233.09 217.252 233.088 217.323 233.086C219.321 233.057 221.632 232.626 223.922 232.198C225.997 231.806 228.073 231.415 229.757 231.392C229.813 231.39 229.869 231.39 229.924 231.39C231.597 231.39 233.233 231.78 233.816 233.368C235.276 237.364 228.863 248.277 222.449 253.201C218.274 256.403 213.923 257.276 209.778 258.116C207.311 258.615 204.929 259.098 202.617 260.026C199.477 261.285 196.433 263.372 193.642 265.288C191.422 266.812 189.322 268.259 187.536 268.974C187.135 269.135 186.738 269.262 186.353 269.347C185.983 269.429 185.625 269.47 185.276 269.47C181.468 269.47 179.974 264.817 179.286 260.381C179.056 258.912 178.904 257.376 178.749 255.812V255.814C178.583 254.137 178.411 252.427 178.141 250.683C177.784 248.385 177.253 246.046 176.339 243.707C174.547 239.122 171.251 234.474 170.096 232.847C169.903 232.577 169.746 232.355 169.682 232.251C169.676 232.236 169.644 232.185 169.619 232.122C169.752 232.46 169.243 231.55 169.992 231.256H169.994C170.082 231.22 170.165 231.209 170.234 231.209C170.544 231.209 170.766 231.456 170.683 231.383C170.698 231.395 170.712 231.408 170.72 231.418C170.777 231.472 170.87 231.572 170.964 231.673C171.312 232.05 171.993 232.783 172.839 233.519C174.099 234.613 175.547 235.544 176.742 235.544C177.315 235.544 177.863 235.328 178.355 234.696C180.793 231.572 181.263 219.985 181.344 217.759V217.761C181.351 217.611 181.355 217.494 181.358 217.444C181.357 217.469 181.36 217.387 181.38 217.31L181.378 217.313C181.298 217.63 181.373 216.812 182.02 216.812C182.87 216.812 182.706 218.228 182.681 217.467C182.683 217.528 182.683 217.694 182.683 217.92C182.684 220.353 182.693 231.774 184.231 238.171C185.405 243.049 187.356 244.617 188.982 244.617C189.806 244.617 190.704 244.233 191.589 243.447C194.502 240.857 196.307 235.046 194.972 233.244C194.369 232.431 193.01 232.256 191.217 232.091C189.813 231.96 187.927 231.84 187.06 230.669C186.939 230.507 186.839 230.326 186.763 230.128C186.272 228.846 186.839 226.783 187.305 224.986C187.902 222.686 188.42 220.567 187.911 219.241C187.842 219.062 187.757 218.905 187.653 218.767C187.028 217.931 185.506 217.476 183.394 217.476C180.55 217.476 177.152 218.299 175.069 219.33C171.71 220.99 171.848 223.131 172.009 225.641C172.032 225.999 171.767 226.309 171.41 226.343C171.053 226.374 170.736 226.118 170.694 225.762C170.118 220.925 169.456 215.698 172.529 211.79C174.919 208.749 179.514 206.574 183.608 206.574C184.726 206.574 185.825 206.736 186.839 207.099C188.293 207.618 189.532 208.537 190.702 209.401C191.956 210.325 193.149 211.2 194.583 211.711C195.366 211.993 196.224 212.164 197.198 212.164C198.254 212.164 199.463 211.963 200.881 211.464C208.439 208.803 221.317 197.958 223.135 195.6C223.228 195.478 223.262 195.417 223.268 195.404C223.306 195.319 223.103 195.704 223.464 195.982C223.609 196.094 223.743 196.085 223.723 196.085H223.726C223.49 196.092 222.721 196.386 221.33 196.944C218.236 198.178 212.891 200.32 207.72 200.391V200.393C207.629 200.393 207.539 200.393 207.451 200.393C203.154 200.393 199.024 198.99 195.176 197.689C191.581 196.473 188.261 195.356 185.115 195.356C184.707 195.356 184.304 195.375 183.905 195.416C180.215 195.783 176.7 197.939 173.837 199.707C172.11 200.775 170.466 201.813 169.274 201.932C169.195 201.938 169.115 201.942 169.034 201.942C168.615 201.941 168.199 201.822 167.858 201.506C165.947 199.734 167.759 192.76 172.477 187.661C174.06 185.951 176.018 184.371 178.381 183.141C182.775 180.854 188.546 179.793 194.486 178.694C201.169 177.458 208.115 176.167 213.968 173.121C214.426 172.881 214.874 172.634 215.318 172.373C226.487 165.81 233.11 151.799 235.019 139.782C236.921 127.801 234.098 118.212 223.345 114.243C216.932 111.876 207.675 111.471 198.803 111.088C192.528 110.817 186.447 110.557 181.864 109.578C175.627 108.245 172.174 105.585 169.928 103.856C168.774 102.967 168.095 102.463 167.544 102.346C167.467 102.33 167.4 102.322 167.336 102.322C167.184 102.322 167.02 102.365 166.822 102.501C165.796 103.21 164.589 105.676 163.068 108.854C161.493 112.148 159.652 116.014 157.451 118.358C154.944 121.026 152.009 121.701 149.757 122.226C148.127 122.607 147.048 122.885 146.435 123.536C146.407 123.567 146.379 123.598 146.354 123.63C145.841 124.25 145.648 125.266 145.39 126.783C145.033 128.882 144.577 131.617 142.483 134.159C141.985 134.765 141.394 135.358 140.696 135.928C137.081 138.872 130.469 141.236 126.624 142.615C124.928 143.224 123.906 143.599 123.69 143.756L123.7 143.748L123.303 143.219L123.69 143.756C123.69 143.756 123.692 143.753 123.696 143.751C123.553 143.868 124.162 143.451 123.74 142.932C123.686 142.865 123.629 142.824 123.591 142.801C123.513 142.753 123.455 142.744 123.47 142.748C123.493 142.753 123.578 142.762 123.762 142.762C124.365 142.762 125.5 142.67 127.06 142.543C130.04 142.298 134.436 141.939 139.066 141.939C142.202 141.939 145.464 142.103 148.481 142.585C152.756 143.27 156.507 144.588 160.139 145.862C163.666 147.099 167.071 148.293 170.812 148.891C172.377 149.141 173.998 149.286 175.708 149.286C176.316 149.286 176.933 149.268 177.565 149.23C188.673 148.548 203.744 141.588 213.472 135.574V135.575C223.142 129.599 227.411 124.632 231.718 119.627C231.957 119.349 232.374 119.319 232.65 119.558C232.926 119.795 232.958 120.213 232.719 120.491C228.38 125.536 224.005 130.62 214.166 136.701C204.389 142.744 189.088 149.849 177.645 150.55C176.988 150.591 176.341 150.611 175.708 150.611C173.922 150.611 172.23 150.458 170.604 150.198C166.728 149.578 163.213 148.342 159.702 147.11C156.058 145.832 152.413 144.556 148.272 143.892C145.35 143.424 142.164 143.261 139.066 143.261C134.496 143.261 130.15 143.617 127.168 143.861C125.642 143.985 124.435 144.085 123.762 144.085C123.569 144.085 123.37 144.077 123.21 144.045C123.144 144.032 123.024 144.003 122.906 143.933C122.85 143.899 122.78 143.845 122.716 143.767V143.766C122.248 143.192 122.892 142.7 122.862 142.725C122.881 142.711 122.899 142.697 122.917 142.682L123.303 143.219L122.907 142.691L122.917 142.682C123.332 142.383 124.642 141.921 126.178 141.37C130.104 139.961 136.462 137.672 139.862 134.901C140.494 134.386 141.021 133.855 141.463 133.317V133.318C143.311 131.075 143.73 128.666 144.087 126.562C144.324 125.177 144.548 123.742 145.334 122.787C145.379 122.733 145.426 122.681 145.473 122.63C146.419 121.623 147.973 121.284 149.458 120.937C151.711 120.412 154.281 119.801 156.488 117.452C158.519 115.29 160.27 111.646 161.877 108.282C163.291 105.324 164.672 102.376 166.073 101.413C166.466 101.14 166.887 101 167.336 101C167.501 101 167.662 101.018 167.819 101.051C168.737 101.248 169.695 102.008 170.734 102.808C172.93 104.499 176.192 107.013 182.14 108.284C186.588 109.235 192.544 109.493 198.86 109.766C207.654 110.144 217.152 110.548 223.801 113.002C235.419 117.288 238.272 127.724 236.324 139.991C234.381 152.22 227.625 166.676 215.987 173.513V173.515C215.524 173.786 215.053 174.047 214.576 174.294C208.519 177.449 201.367 178.767 194.725 179.995C188.722 181.105 183.17 182.139 178.989 184.315C176.774 185.47 174.935 186.951 173.446 188.559C168.574 193.826 167.879 199.722 168.758 200.536C168.804 200.579 168.874 200.62 169.034 200.62C169.067 200.62 169.102 200.618 169.143 200.614C169.95 200.535 171.26 199.745 173.145 198.581C175.953 196.846 179.728 194.5 183.773 194.099C184.219 194.054 184.666 194.033 185.115 194.033C188.521 194.033 192.058 195.237 195.6 196.435C199.484 197.75 203.409 199.07 207.451 199.07C207.534 199.07 207.619 199.07 207.702 199.068C212.591 199.001 217.711 196.963 220.84 195.713C222.053 195.23 223.145 194.781 223.683 194.763C223.697 194.763 223.711 194.763 223.723 194.763C223.835 194.763 224.065 194.775 224.27 194.934C224.728 195.288 224.531 195.814 224.475 195.942C224.404 196.099 224.297 196.258 224.181 196.409C222.233 198.932 209.157 209.953 201.319 212.711C199.783 213.254 198.425 213.487 197.198 213.487C196.063 213.487 195.055 213.285 194.138 212.958C192.493 212.37 191.15 211.373 189.919 210.466C188.719 209.581 187.635 208.788 186.396 208.345C185.547 208.041 184.601 207.898 183.608 207.898C179.896 207.898 175.694 209.904 173.567 212.609C170.897 216.005 171.41 220.61 172.006 225.606L170.69 225.726C170.526 223.145 170.336 220.194 174.484 218.143C176.758 217.019 180.356 216.153 183.394 216.153C185.528 216.153 187.671 216.58 188.711 217.974C188.896 218.22 189.037 218.487 189.145 218.768C189.841 220.585 189.131 223.209 188.584 225.319C188.057 227.354 187.697 228.873 187.997 229.653V229.655C188.029 229.74 188.072 229.814 188.121 229.882C188.55 230.462 189.647 230.617 191.337 230.772C192.886 230.915 195 231.063 196.033 232.454V232.456C198.042 235.167 195.467 241.767 192.467 244.437C191.42 245.366 190.223 245.94 188.982 245.94C186.34 245.94 184.139 243.438 182.948 238.481C181.364 231.898 181.364 220.298 181.362 217.922C181.362 217.674 181.362 217.544 181.36 217.512C181.335 216.731 181.169 218.135 182.02 218.135C182.665 218.135 182.739 217.319 182.66 217.636V217.639C182.677 217.566 182.679 217.494 182.677 217.535C182.676 217.557 182.672 217.645 182.665 217.809C182.592 219.744 182.172 231.955 179.396 235.512C178.657 236.459 177.729 236.866 176.742 236.866C175.008 236.866 173.225 235.606 171.974 234.519C171.069 233.732 170.348 232.954 169.995 232.573C169.882 232.451 169.827 232.392 169.808 232.375V232.373C169.808 232.373 169.812 232.376 169.819 232.382C169.718 232.295 169.93 232.534 170.234 232.534C170.303 232.534 170.386 232.523 170.473 232.49L170.475 232.488C171.223 232.196 170.714 231.291 170.85 231.64C170.83 231.588 170.809 231.555 170.816 231.569C170.844 231.617 170.957 231.774 171.173 232.081C172.321 233.697 175.71 238.467 177.569 243.226C178.531 245.682 179.08 248.121 179.445 250.481C179.723 252.266 179.896 254.012 180.063 255.681V255.683C180.22 257.251 180.369 258.751 180.591 260.178C181.334 264.955 182.766 268.145 185.276 268.145C185.522 268.145 185.786 268.117 186.07 268.055C186.369 267.99 186.694 267.887 187.044 267.745C188.664 267.097 190.624 265.755 192.894 264.196C195.66 262.297 198.826 260.12 202.125 258.797C204.569 257.818 207.067 257.314 209.516 256.82C213.68 255.977 217.741 255.145 221.645 252.151C228.085 247.207 233.686 236.866 232.574 233.823C232.311 233.104 231.536 232.713 229.924 232.713C229.874 232.713 229.825 232.713 229.775 232.714C228.23 232.736 226.28 233.1 224.165 233.497C221.906 233.92 219.475 234.379 217.343 234.411C217.265 234.411 217.187 234.412 217.109 234.412C211.142 234.412 207.626 231.056 204.139 227.665L203.966 227.499L203.795 227.332C200.126 223.766 196.196 220.043 192.262 216.315C192.019 216.086 191.986 215.713 192.182 215.443C192.379 215.174 192.743 215.095 193.035 215.256C199.397 218.77 206.314 222.524 207.284 227.931C207.507 229.164 207.416 230.45 207.148 231.734C206.668 234.048 205.592 236.459 204.604 238.674V238.676C203.692 240.726 202.864 242.592 202.534 244.186C202.293 245.338 202.315 246.361 202.424 247.256C202.5 247.871 202.619 248.424 202.728 248.93C202.81 249.312 202.893 249.694 202.933 250.03V250.032C203.068 251.115 202.743 252.024 201.27 252.205C201.043 252.234 200.794 252.245 200.531 252.245C199.161 252.245 197.064 251.927 194.88 251.6C192.247 251.203 189.445 250.784 187.333 250.784C187.034 250.784 186.751 250.792 186.488 250.81C184.659 250.934 183.623 251.515 182.479 252.156C181.148 252.903 179.712 253.709 177.009 253.762C176.915 253.764 176.817 253.764 176.719 253.764C171.857 253.764 162.543 251.404 160.499 246.337C159.488 243.833 160.324 240.852 161.541 238.105C162.282 236.431 163.203 234.768 164.039 233.254C164.767 231.936 165.425 230.742 165.88 229.717C166.387 228.572 166.635 227.646 166.748 226.801C166.881 225.817 166.836 224.919 166.781 223.841C166.711 222.474 166.629 220.879 166.926 218.658C167.053 217.713 167.25 216.656 167.455 215.55C168.454 210.141 169.58 203.71 165.593 200.07C163.737 198.376 160.74 197.232 157.565 196.032C152.605 194.157 146.797 192.065 146.907 186.799C147.073 178.841 161.13 164.059 174.039 159.394V159.396C177.989 157.967 181.85 157.471 185.534 157.471C185.579 157.471 185.617 157.471 185.662 157.471C190.296 157.485 194.665 158.28 198.565 158.989C201.815 159.578 204.705 160.1 207.224 160.108C207.242 160.106 207.262 160.108 207.281 160.108C211.075 160.106 214.058 158.937 216.706 157.892C218.66 157.121 220.525 156.375 222.341 156.375C223.158 156.375 223.969 156.524 224.779 156.881C226.51 157.645 228.165 159.332 229.802 161.412C231.266 163.275 232.774 165.532 234.349 167.889C236.126 170.548 237.997 173.347 240.03 175.932C245.908 183.405 253.184 189.14 260.53 194.927L259.683 195.942C248.569 186.011 237.742 176.364 234.613 175.463C234.468 175.422 234.37 175.41 234.309 175.41C234.22 175.41 234.24 175.429 234.262 175.403C234.262 175.403 234.24 175.429 234.218 175.518C234.077 176.074 234.293 177.238 234.641 178.97C235.129 181.394 235.794 184.637 235.111 187.337C234.448 189.959 232.535 191.992 230.804 193.851C228.624 196.193 226.748 198.258 226.808 201.055C226.826 201.832 226.994 202.691 227.29 203.631C228.062 206.083 229.648 208.923 231.416 212.078C233.462 215.73 235.724 219.765 237.022 223.89C238.345 228.088 238.66 232.351 238.9 235.588C239.204 239.65 239.48 240.873 239.929 240.873C239.954 240.873 239.991 240.87 240.039 240.858C240.116 240.841 240.223 240.804 240.357 240.737C241.51 240.163 243.37 238.221 245.694 235.772C248.779 232.525 252.567 228.524 256.021 226.805C257.749 225.946 259.387 225.654 260.915 225.654C262.655 225.654 264.248 226.034 265.613 226.359C266.765 226.633 267.715 226.854 268.545 226.854C269.087 226.854 269.54 226.757 269.938 226.537C272.471 225.126 273.942 217.842 270.518 210.748C268.712 207.007 265.569 203.432 263.005 200.523C260.963 198.205 258.91 195.967 259.008 194.579C259.032 194.24 259.165 193.946 259.381 193.709C260.056 192.966 261.642 192.787 263.083 192.587C266.048 192.17 269.964 191.603 272.678 188.61C277.36 183.447 278.636 170.952 276.003 165.236C275.058 163.182 273.599 162.023 271.815 161.231C270.358 160.585 268.703 160.194 266.916 159.773C265.029 159.327 263.007 158.852 261.082 157.999C260.123 157.572 259.195 157.058 258.295 156.482C255.875 154.932 253.619 152.919 251.478 151.009C249.442 149.194 247.519 147.48 245.594 146.248C243.797 145.099 241.985 144.357 240.362 143.695C237.894 142.688 235.403 141.753 235.092 139.347C235.07 139.173 235.058 138.998 235.058 138.818C235.058 135.346 239.13 129.68 244.876 129.68C245.028 129.68 245.182 129.684 245.336 129.692C246.944 129.776 248.633 130.308 250.351 131.077C252.789 132.166 255.373 133.77 257.961 135.376C260.68 137.061 263.408 138.752 266.074 139.944C266.158 139.981 266.241 140.018 266.323 140.053C270.07 141.686 273.71 142.353 277.108 142.975C279.946 143.493 282.658 143.985 285.026 145.018C290.312 147.321 293.815 152.254 294.511 158.056C294.728 159.874 294.67 161.772 294.61 163.716C294.479 167.952 294.345 172.565 296.817 177.906C298.28 181.07 300.664 184.501 303.171 188.109C306.861 193.417 310.832 199.115 312.111 204.601C314.272 213.875 308.772 222.376 302.264 226.094C298.961 227.98 295.4 228.635 292.179 229.236C288.972 229.83 286.159 230.364 283.984 231.856C279.617 234.85 277.6 241.953 278.799 249.483C279.26 252.376 280.193 255.313 281.077 258.087C282.428 262.328 283.816 266.514 282.499 269.1C281.334 271.387 278.291 272.195 275.159 272.195C272.151 272.195 268.758 271.459 266.007 270.231C264.502 269.558 263.198 268.742 262.045 268.019V268.021C260.199 266.867 258.854 266.051 257.546 266.051C256.571 266.051 255.493 266.518 254.161 268.064C252.949 269.47 251.598 271.683 249.975 274.351C246.101 280.712 240.794 289.455 232.617 294.191C229.974 295.722 227.044 296.827 224.083 297.629C217.053 299.532 209.751 299.755 205.449 299.888C203.563 299.947 202.377 299.987 201.943 300.106C201.913 300.113 201.898 300.12 201.898 300.12C201.816 300.156 202.15 300.048 202.15 299.658C202.15 299.364 201.943 299.242 201.996 299.281C202.538 299.686 206.77 300.57 212.523 300.57C215.799 300.57 219.471 300.283 223.051 299.488C234.354 296.981 244.817 289.416 249.296 281.187C253.744 273.012 252.337 264.064 249.181 256.997C246.492 250.97 242.754 246.788 239.178 246.788C238.49 246.788 237.794 246.94 237.086 247.275C236.439 247.579 235.771 248.045 235.076 248.654C233.26 250.244 231.386 252.689 229.27 255.455C226.735 258.769 223.884 262.496 220.499 265.461C213.216 271.833 203.536 274.614 194.962 275.059C194.033 275.105 193.115 275.128 192.212 275.128C189.346 275.128 186.599 274.921 183.959 274.721C181.465 274.531 179.072 274.351 176.728 274.351C175.105 274.351 173.515 274.437 171.944 274.668C169.571 275.013 167.218 275.686 164.863 276.36C161.711 277.263 158.534 278.179 155.478 278.179C154.092 278.179 152.722 277.991 151.377 277.527C148.511 276.539 145.862 274.324 143.33 271.717C141.729 270.064 140.148 268.227 138.574 266.398C136.976 264.541 135.385 262.692 133.76 261.017C127.993 255.074 121.757 251.284 114.42 247.406C113.662 247.004 112.898 246.606 112.119 246.2C105.375 242.682 97.9296 238.807 92.3341 232.408C86.1282 225.312 82.1612 215.066 82.6716 208.928C82.9112 206.046 84.1364 204.095 85.298 202.234C86.662 200.048 87.9728 197.937 87.9445 194.336C87.9231 191.638 87.1537 188.098 86.3208 184.285C85.0736 178.575 83.664 172.201 84.8657 167.754C85.7911 164.328 88.2249 162.108 91.4267 160.162C93.1885 159.09 95.2168 158.082 97.3951 156.998C100.02 155.692 102.883 154.268 105.857 152.459C109.694 150.127 113.726 147.149 117.442 144.405C122.803 140.444 127.803 136.703 130.321 136.703C130.54 136.703 130.759 136.728 130.969 136.79C131.824 137.044 132.238 137.782 132.424 138.578C132.802 140.204 132.434 142.91 132.049 145.828C131.488 150.088 130.841 155.063 131.784 159.103C133.562 166.722 141.117 171.214 148.643 171.214C149.136 171.214 149.628 171.194 150.118 171.155C158.083 170.517 165.494 164.677 173.123 158.631L173.917 159.69C168.278 163.725 162.471 167.896 156.541 168.952C155.275 169.178 154.014 169.261 152.74 169.261C150.991 169.261 149.198 169.105 147.335 168.944C145.224 168.759 143.007 168.568 140.577 168.568C139.329 168.568 138.025 168.62 136.655 168.749C128.431 169.523 118.059 173.069 114.569 178.508C111.132 183.867 114.217 191.337 117.604 199.352C117.637 199.431 117.655 199.517 117.656 199.603C117.721 205.672 117.834 211.205 121.336 213.965C122.718 215.056 124.682 215.755 127.006 216.279C128.768 216.676 130.687 216.965 132.652 217.258V217.26C134.639 217.556 136.672 217.86 138.576 218.29C141.084 218.857 143.358 219.638 145.312 220.311C147.69 221.127 149.486 221.736 150.768 221.736C151.081 221.736 151.341 221.697 151.557 221.628C152.089 221.454 152.513 221.028 152.913 220.266C153.304 219.523 153.618 218.566 153.991 217.425C154.446 216.035 154.971 214.42 155.802 212.837C157.987 208.671 162.244 204.796 166.371 201.028L167.128 202.1C160.744 205.533 154.83 208.767 153.553 213.33C153.429 213.776 153.346 214.238 153.302 214.719C153.1 216.871 153.627 219.291 154.205 221.907C154.801 224.607 155.447 227.502 155.188 230.267C155.103 231.165 154.925 232.041 154.679 232.899C153.969 235.378 152.683 237.728 151.465 239.961C150.273 242.144 149.151 244.209 148.558 246.278C147.936 248.449 147.886 250.658 147.842 252.877C147.786 255.651 147.742 258.496 146.354 260.962C144.381 264.468 139.789 267.077 134.786 267.077C133.511 267.077 132.204 266.908 130.904 266.539C124.509 264.73 118.368 258.152 115.427 250.446C112.476 242.714 112.719 233.805 113.563 227.341C114.41 220.845 115.877 216.723 117.328 212.646C117.438 212.333 117.763 212.152 118.087 212.22C118.411 212.289 118.633 212.586 118.609 212.917C118.077 219.992 117.55 227.444 113.334 231.861C111.436 233.849 108.815 235.193 106.246 236.517C103.054 238.164 99.9027 239.8 97.7362 242.592C93.7651 247.71 92.993 256.885 93.6747 261.68C93.8321 262.787 94.0662 263.637 94.3522 264.36C94.7583 265.382 95.2783 266.171 95.9095 267.124C96.7224 268.351 97.6734 269.786 98.6189 272.168C99.4241 274.195 100.225 276.909 101.068 279.767C102.524 284.699 104.112 290.064 106.118 293.511C106.964 294.964 107.884 296.072 108.828 296.97C110.199 298.272 111.628 299.135 113.019 299.975C114.217 300.697 115.414 301.414 116.424 302.373C117.253 303.162 117.943 304.098 118.588 304.971C120.158 307.099 121.499 308.861 124.235 308.861C124.477 308.861 124.732 308.847 125.002 308.818C129.949 308.278 138.653 302.752 139.888 296.896C141.104 291.123 135.114 284.545 128.643 279.6V279.602C126.971 278.322 125.296 277.177 123.658 276.056C119.113 272.945 114.818 270.018 112.151 265.162C109.798 260.876 108.732 255.125 108.732 251.954C108.732 250.97 108.827 250.017 109.188 249.508C109.339 249.293 109.607 249.063 109.996 249.063C110.222 249.063 110.415 249.144 110.564 249.238C110.583 249.252 110.601 249.265 110.62 249.277C110.626 249.281 110.632 249.286 110.637 249.29C111.351 249.815 112.233 251.69 113.221 253.73C115.306 258.036 118.295 264.172 122.255 267.086C125.493 269.47 129.455 269.733 133.343 269.733C133.831 269.733 134.326 269.728 134.805 269.725C135.281 269.721 135.74 269.717 136.204 269.717C138.29 269.717 140.311 269.793 141.996 270.362C144.929 271.35 146.688 273.756 148.011 276.332C148.606 277.488 149.124 278.706 149.622 279.875C150.105 281.003 150.565 282.079 151.067 283.055C152.782 286.394 154.904 288.408 158.784 288.408V288.41C159.82 288.408 160.994 288.265 162.336 287.953C164.361 287.481 166.748 286.627 169.331 285.565C172.232 284.371 175.35 282.931 178.443 281.5C181.445 280.112 184.424 278.734 187.128 277.624C195.104 274.345 200.676 273.39 206.201 272.441C206.478 272.392 206.757 272.527 206.892 272.775C207.028 273.023 206.991 273.329 206.802 273.538C200.174 280.822 193.743 287.914 192.101 294.86C191.259 298.424 191.671 301.984 192.034 305.065C192.356 307.797 192.711 310.463 191.62 312.047C190.826 313.2 189.403 313.668 187.803 313.668C184.505 313.668 179.842 311.709 175.639 308.148C173.988 306.748 172.4 305.094 170.819 303.445C166.352 298.79 161.932 294.235 155.662 294.173C155.618 294.173 155.574 294.173 155.529 294.173C155.399 294.173 155.266 294.175 155.132 294.178C146.281 294.435 134.768 302.777 134.904 307.478V307.48C134.938 308.664 135.749 309.755 137.286 310.833C139.269 312.223 142.183 313.404 145.215 314.627C148.217 315.84 151.336 317.093 153.512 318.62C156.871 320.978 157.96 323.953 158.824 326.293C159.559 328.285 160.074 329.574 161.35 330.146C161.972 330.425 162.831 330.554 163.912 330.554C164.205 330.554 164.511 330.545 164.831 330.528C166.78 330.415 169.101 329.989 171.522 329.543C174.007 329.085 176.59 328.609 178.864 328.478V328.48C179.322 328.451 179.769 328.44 180.204 328.44C180.404 328.44 180.603 328.442 180.799 328.448C183.085 328.506 185.119 328.892 187.308 329.305C190.027 329.818 193.038 330.386 197.235 330.494C197.723 330.507 198.23 330.512 198.747 330.512C207.55 330.512 219.143 328.74 220.721 325.992C221.156 325.234 220.72 324.123 218.858 322.329C217.539 321.058 215.722 319.65 213.696 318.082C211.285 316.216 208.604 314.142 206.254 311.876V311.878C199.353 305.231 195.227 296.878 196.915 288.748C198.441 281.401 204.951 273.897 207.148 273.753C207.175 273.751 207.203 273.749 207.231 273.749C207.442 273.749 207.684 273.804 207.893 273.979C208.082 274.136 208.177 274.342 208.227 274.519C208.34 274.933 208.259 275.461 208.144 275.955C207.843 277.24 207.05 279.249 206.148 281.534C204.824 284.892 203.224 288.946 202.362 292.632V292.634C200.591 300.217 201.945 306.244 205.885 311.881C209.822 317.517 216.339 322.766 228.52 323.508C229.558 323.571 230.641 323.602 231.755 323.602C243.805 323.602 259.39 320.043 265.975 316.102C268.463 314.615 269.605 313.105 270.172 311.588C270.689 310.206 270.755 308.765 270.823 307.149C270.895 305.449 270.97 303.58 271.697 301.639C273.82 295.961 281.5 289.855 289.417 283.658V283.66L289.925 283.263C297.821 277.086 305.842 270.783 308.569 263.191C311.328 255.506 308.676 246.324 302.305 238.984C295.925 231.636 285.876 226.203 275.673 220.697L276.356 219.567C281.677 223.166 286.877 226.674 292.168 228.088C294.387 228.68 296.638 228.906 298.898 228.906C301.999 228.906 305.103 228.48 308.165 227.996C309.595 227.769 311.01 227.534 312.384 227.295C314.378 226.95 316.289 226.601 318.063 226.279C319.583 226.001 321.007 225.742 322.277 225.521C326.057 224.866 328.545 224.545 331.024 224.227H331.028C331.386 224.181 331.717 224.436 331.765 224.799C331.811 225.16 331.556 225.493 331.194 225.539ZM323.363 349.702C325.72 348.126 328.061 346.561 331.473 343.663C334.924 340.731 339.332 336.549 341.082 332.771C342.792 329.078 341.98 325.707 341.091 322.095L342.378 321.961L342.376 322.012C342.18 327.844 342.003 333.506 343.549 338.063C345.094 342.62 348.333 345.986 352.217 346.704C352.797 346.812 353.398 346.862 354.02 346.862C357.521 346.862 361.492 345.287 365.468 343.697L365.769 343.576C369.903 341.926 374.023 340.308 377.042 340.308C377.452 340.308 377.85 340.338 378.228 340.403C379.312 340.588 380.183 341.055 380.935 341.452C381.661 341.834 382.259 342.144 382.929 342.259C383.103 342.289 383.283 342.305 383.47 342.305C384.071 342.305 384.798 342.135 385.742 341.613C389.366 339.61 395.54 332.831 398.309 327.332C401.026 321.939 400.404 317.878 398.993 314.82C397.584 311.763 395.385 309.709 391.734 308.587C389.943 308.036 387.804 307.706 386.005 307.432C384.799 307.248 383.696 307.082 383.033 306.878C382.828 306.814 382.611 306.731 382.434 306.612C382.303 306.526 382.075 306.338 382.02 306.014C381.951 305.616 382.19 305.336 382.321 305.212C382.779 304.78 383.854 304.454 385.001 304.257C385.793 304.123 386.708 304.035 387.665 304.035C388.956 304.033 390.348 304.194 391.624 304.623C395.726 305.996 398.353 310.033 399.501 314.769V314.771C399.893 316.385 400.116 318.095 400.314 319.613C400.482 320.896 400.631 322.024 400.843 322.901C401.161 324.215 401.49 324.392 401.651 324.393H401.645H401.656C401.652 324.393 401.651 324.393 401.651 324.393C403.118 324.393 407.091 319.452 409.267 315.483C410.271 313.655 410.781 312.221 411.246 310.911C411.619 309.858 411.976 308.85 412.543 307.816C412.699 307.533 412.869 307.248 413.061 306.959C413.705 305.982 414.582 304.964 415.406 304.003C416.215 303.057 416.974 302.172 417.503 301.373C417.914 300.754 418.128 300.266 418.167 299.906C418.226 299.364 417.909 298.923 417.207 298.07C416.408 297.098 415.333 295.803 415.153 293.638C415.038 292.261 415.291 290.545 415.524 288.945C415.763 287.304 415.982 285.777 415.885 284.607C415.809 283.697 415.556 283.201 415.183 282.967C414.944 282.819 414.577 282.721 414.062 282.721V282.723C411.309 282.721 406.353 285.434 404.601 288.515C403.12 291.121 403.919 294.056 404.815 297.209C405.128 298.31 405.448 299.436 405.641 300.529C406.304 304.289 405.477 308.415 403.182 308.82C403.12 308.831 403.056 308.838 402.993 308.843C402.945 308.847 402.895 308.848 402.845 308.848V308.85C401.787 308.848 400.664 307.959 399.644 307.191C398.394 306.249 396.997 305.205 395.3 304.686C394.317 304.389 393.21 304.259 391.999 304.259C389.156 304.259 385.869 304.962 382.487 305.688C382.215 305.746 381.935 305.625 381.792 305.385C381.647 305.146 381.672 304.844 381.85 304.629C383.665 302.462 385.511 300.258 388.981 297.597C390.155 296.696 391.511 295.745 392.872 294.793C394.276 293.808 395.687 292.821 396.934 291.866C398.042 291.016 399.002 290.206 399.702 289.464C401.84 287.196 401.582 285.577 400.394 283.713C400.105 283.26 399.76 282.796 399.393 282.299C399.013 281.787 398.611 281.245 398.251 280.682C397.457 279.432 396.802 277.966 397.142 276.316C397.374 275.19 398.068 274.032 398.725 272.928C399.524 271.58 400.319 270.231 400.622 268.761C400.738 268.189 400.781 267.602 400.716 266.998C400.464 264.633 398.617 261.85 397.262 259.831C396.679 258.96 396.078 258.087 395.961 257.572C395.952 257.529 395.943 257.487 395.938 257.437C395.938 257.434 395.936 257.42 395.936 257.423V257.421C395.894 256.947 396.202 256.552 396.688 256.508C396.72 256.506 396.751 256.504 396.782 256.504C396.831 256.504 396.875 256.508 396.919 256.513C398.146 256.657 401.426 259.233 403.033 261.917C404.509 264.383 404.692 267.07 404.89 269.824C404.96 270.82 405.033 271.829 405.162 272.872C405.674 276.978 407.006 281.019 409.6 281.879C410.001 282.012 410.45 282.075 410.94 282.075C413.63 282.075 417.005 280.133 418.183 278.536C419.048 277.364 418.675 276.422 418.102 275.091C417.888 274.594 417.646 274.03 417.506 273.437C417.336 272.715 417.329 271.977 417.319 271.281C417.308 270.461 417.294 269.654 417.086 268.765C416.942 268.156 416.705 267.503 416.304 266.795C415.34 265.091 413.449 263.073 411.668 261.18C410.645 260.093 409.658 259.045 408.972 258.167C408.157 257.126 407.764 256.324 407.435 255.654C407.181 255.136 406.983 254.739 406.667 254.333C406.444 254.049 406.152 253.75 405.727 253.413C404.048 252.082 400.528 250.355 397.556 250.355C397.248 250.355 396.95 250.375 396.661 250.412C394.983 250.637 393.534 251.55 392.001 252.53C390.788 253.304 389.494 254.137 388.088 254.474C387.567 254.598 387.038 254.656 386.506 254.656C383.847 254.656 380.986 253.247 378.32 251.947C378.026 251.804 377.885 251.465 377.986 251.154C378.09 250.844 378.405 250.656 378.727 250.716C380.868 251.12 383.055 251.531 386.121 252.82C389.156 254.098 393.139 256.274 395.795 259.578C398.434 262.862 399.783 267.301 398.917 270.668C398.055 274.02 395.006 276.217 392.338 276.217C392.315 276.217 392.294 276.217 392.269 276.217C390.755 276.194 389.437 275.445 388.235 274.776C387.255 274.231 386.32 273.713 385.268 273.446C384.261 273.191 383.118 273.156 381.861 273.121C380.592 273.085 379.209 273.049 377.913 272.72C377.464 272.607 377.019 272.457 376.587 272.255C375.27 271.644 374.14 270.59 373.127 269.656C372.128 268.731 371.251 267.929 370.322 267.497C370.117 267.402 369.913 267.327 369.71 267.274C369.429 267.2 369.133 267.165 368.822 267.165C366.791 267.165 364.344 268.642 361.647 270.298L361.112 269.117C363.632 268.326 366.285 267.488 368.612 267.488C368.748 267.488 368.884 267.49 369.02 267.497C369.948 267.538 370.806 267.724 371.522 267.876C372.119 268.006 372.586 268.104 372.975 268.12V268.122C373.012 268.122 373.05 268.124 373.085 268.124C373.405 268.124 373.571 268.055 373.681 267.958C374.047 267.63 374.26 266.736 374.591 265.084C374.793 264.066 375.033 262.862 375.429 261.608C375.73 260.656 376.117 259.686 376.49 258.748C376.861 257.816 377.218 256.919 377.487 256.067C377.844 254.936 378.019 253.959 377.908 253.154C377.623 251.117 375.433 249.745 372.763 248.148C372.689 248.105 372.625 248.047 372.574 247.978C369.97 244.493 367.659 241.503 364.756 241.503C364.694 241.503 364.634 241.505 364.572 241.507V241.509C361.49 241.641 357.404 245.136 354.991 248.509C353.824 250.141 353.091 251.694 352.401 253.154C351.828 254.366 351.275 255.544 350.525 256.591C350.369 256.809 350.203 257.023 350.028 257.232C348.011 259.612 344.654 261.108 341.496 262.529L340.99 261.323C345.574 259.525 349.876 257.813 352.102 254.605C354.334 251.391 354.459 246.736 351.561 243.994C350.099 242.608 347.836 241.652 345.833 240.811C344.5 240.251 343.159 239.701 342.496 239.074C342.295 238.883 342.104 238.641 342.014 238.338L342.64 238.152L342.019 238.357L342.014 238.336C341.95 238.125 341.943 237.902 341.998 237.679L341.996 237.681L342 237.67C342.36 236.248 345.792 234.853 348.911 233.504C351.045 232.582 353.343 231.588 355.313 230.519C356.837 229.691 358.168 228.812 359.402 228.002C360.419 227.329 361.382 226.695 362.309 226.192C363.548 225.518 364.784 225.045 366.091 225.045C366.556 225.045 367.024 225.105 367.5 225.233C369.827 225.863 372.3 228.161 374.434 230.126C375.889 231.463 377.201 232.667 378.33 233.337C379.513 234.041 380.502 234.159 381.492 234.159C381.743 234.159 381.992 234.15 382.254 234.142C382.507 234.133 382.774 234.127 383.04 234.127C383.939 234.127 384.904 234.218 385.97 234.728C388.866 236.109 392.351 240.517 393.873 245.063C395.254 249.183 395.043 253.464 394.861 257.28C394.84 257.724 394.819 258.152 394.801 258.585C394.626 262.747 394.693 266.38 395.797 270.344C396.108 271.463 396.506 272.618 396.905 273.784C397.3 274.93 397.701 276.093 398.014 277.217C398.507 278.989 398.815 280.763 398.501 282.337C398.033 284.706 396.186 286.448 394.488 288.079C393.595 288.934 392.724 289.773 391.988 290.697C390.797 292.197 389.941 293.95 389.007 295.878C388.244 297.452 387.429 299.131 386.346 300.786C383.956 304.443 380.245 308.007 375.55 309.59C373.372 310.325 371.001 310.623 368.927 310.886C367.179 311.108 365.681 311.301 364.568 311.676C364.146 311.818 363.804 311.978 363.539 312.161C361.968 313.241 362.353 315.913 364.554 319.121V319.122C364.625 319.225 364.697 319.328 364.772 319.432C367.007 322.55 370.45 325.344 374.986 325.475C375.099 325.478 375.213 325.48 375.327 325.48C379.872 325.48 385.527 322.915 389.326 318.797C392.664 315.18 394.478 310.488 394.485 309.817C394.485 309.733 394.451 309.971 394.662 310.166C394.775 310.272 394.923 310.327 395.072 310.327C395.321 310.327 395.448 310.171 395.401 310.217L395.399 310.219H395.401C395.273 310.343 394.983 310.798 394.463 311.63C393.32 313.464 391.355 316.615 388.719 319.22C387.607 320.32 386.364 321.332 385 322.113C380.792 324.517 375.571 324.607 371.845 324.68C370.265 324.712 368.994 324.738 368.11 324.905C366.291 325.243 366.297 326.058 366.356 327.998C366.377 328.68 366.402 329.474 366.31 330.324C365.995 333.228 364.116 337.501 361.441 337.501C361.395 337.501 361.35 337.5 361.306 337.497C359.685 337.405 358.115 335.59 356.669 333.985C355.686 332.895 354.666 331.763 353.548 330.848C351.494 329.163 349.126 328.224 347.118 328.224C346.31 328.224 345.571 328.377 344.929 328.68V328.682C343.805 329.214 342.905 330.245 341.823 331.502C340.752 332.746 339.534 334.171 337.824 335.161C336.285 336.053 334.372 336.581 332.412 336.581C330.051 336.581 327.59 335.815 325.626 333.956C323.515 331.958 322.027 328.724 320.667 325.794C319.733 323.78 318.86 321.904 317.877 320.493C316.234 318.133 314.261 317.055 312.391 316.039C311.537 315.575 310.678 315.107 309.921 314.535C307.495 312.698 306.189 309.817 306.542 306.814C306.7 305.479 307.188 304.137 307.679 302.779C308.272 301.142 308.89 299.422 309.125 297.422C309.131 297.377 309.136 297.33 309.141 297.288C309.297 295.853 309.254 294.26 309.212 292.645C309.171 291.119 309.129 289.565 309.277 288.203C309.382 287.241 309.585 286.328 309.981 285.559C311.012 283.548 313.192 282.786 314.896 282.786C315.777 282.786 316.655 282.985 317.242 283.44C318.388 284.324 318.093 285.887 317.916 287.134C317.792 288.008 317.659 288.959 317.702 289.997C317.746 291.117 317.997 292.362 318.27 293.713C318.556 295.122 318.864 296.639 318.924 298.114C318.947 298.664 318.934 299.215 318.874 299.759C318.753 300.848 318.438 301.875 318.154 302.804C317.882 303.694 317.643 304.484 317.559 305.247C317.456 306.164 317.582 307.009 318.179 307.864C319.7 310.038 324.254 312.324 327.624 312.324C328.059 312.324 328.464 312.285 328.832 312.207C330.688 311.81 331.86 310.352 332.801 309.155C333.191 308.657 333.672 308.009 334.183 307.788C334.252 307.758 334.328 307.731 334.41 307.713V307.715C334.48 307.699 334.555 307.69 334.632 307.69C334.792 307.69 334.947 307.728 335.09 307.798C335.168 307.838 335.237 307.882 335.299 307.931C335.925 308.427 336.376 309.891 336.819 311.228C337.435 313.09 338.177 315.318 339.313 317.008C341.015 319.54 343.582 320.827 345.101 320.827C345.458 320.827 345.713 320.757 345.88 320.658C346.255 320.434 346.443 319.939 346.754 318.914C347.139 317.646 347.654 315.902 349.507 314.68C351.186 313.574 353.946 312.929 356.116 312.416C357.802 312.016 359.038 311.711 359.517 311.395C359.567 311.361 359.588 311.343 359.594 311.336H359.595C359.558 311.377 359.544 311.474 359.561 311.518C359.554 311.497 359.5 311.402 359.308 311.221C358.962 310.897 358.396 310.506 357.647 309.991C356.58 309.254 355.219 308.319 353.95 307.131C353.624 306.827 353.303 306.504 352.993 306.163C351.506 304.523 350.313 302.487 349.251 300.678C348.324 299.1 347.512 297.725 346.67 296.796V296.799C346.351 296.444 346.045 296.177 345.744 295.993V295.995C345.264 295.698 344.744 295.585 344.166 295.585C343.455 295.585 342.698 295.754 341.846 295.947C341.009 296.137 340.078 296.35 339.153 296.35C338.697 296.35 338.234 296.299 337.77 296.166C336.342 295.754 335.048 294.585 334.136 293.773C333.439 293.153 333.057 292.836 332.87 292.783C332.87 292.783 332.879 292.787 332.903 292.787C333.052 292.787 333.149 292.679 333.167 292.647C333.167 292.647 333.156 292.666 333.145 292.713C332.767 294.209 334.174 301.241 335.683 308.661L334.397 308.88C333.745 304.213 333.105 299.635 331.367 295.227C330.767 293.7 330.032 292.19 329.328 290.74C328.706 289.461 328.103 288.222 327.661 287.1C327.171 285.855 326.83 284.645 326.947 283.614C327.129 282.008 328.395 281.054 329.549 280.142C330.681 279.249 331.904 278.276 332.834 276.67C333.451 275.603 333.946 274.241 334.517 272.67C335.196 270.797 335.967 268.669 337.15 266.622C338.103 264.974 339.328 263.37 341.001 261.968C345.132 258.507 351.939 256.347 356.485 256.347C357.905 256.347 359.19 256.556 360.12 257.073C362.673 258.493 362.012 261.855 361.587 264.381C361.299 266.086 361.053 267.611 361.303 268.775C361.826 271.222 364.68 272.313 367.34 273.271C367.869 273.46 368.385 273.646 368.838 273.834C369.904 274.278 370.595 274.731 371.174 275.11C371.632 275.41 371.985 275.639 372.415 275.818C372.779 275.969 373.214 276.09 373.811 276.157C374.354 276.217 375.023 276.233 375.785 276.251C376.649 276.27 377.618 276.291 378.548 276.394C380.054 276.561 381.683 276.96 382.602 278.148C384.453 280.544 382.917 285.51 381.66 287.573V287.574C380.912 288.803 380.145 289.256 379.467 289.656C378.909 289.986 378.447 290.26 377.972 290.962C377.388 291.825 376.796 293.307 376.221 294.752C375.772 295.882 375.318 297.036 374.911 297.637C374.881 297.68 374.853 297.719 374.823 297.76C374.727 297.884 374.617 298.003 374.489 298.1C374.307 298.233 374.089 298.321 373.84 298.321C373.682 298.321 373.541 298.285 373.421 298.236C373.092 298.105 372.782 297.808 372.561 297.608C372.095 297.181 371.543 296.682 370.668 296.388C369.932 296.142 368.953 296.032 367.82 295.908C366.617 295.777 365.262 295.632 364.098 295.242C363.449 295.025 362.827 294.722 362.307 294.279C360.063 292.363 360.221 288.196 360.306 284.618C360.312 284.288 360.564 284.016 360.891 283.982C361.218 283.949 361.518 284.162 361.593 284.485C362.213 287.14 362.834 289.789 363.449 292.287L363.479 292.404L363.507 292.521C364.102 294.922 364.713 297.457 363.051 300.216C362.482 301.165 361.647 302.126 360.896 302.995C360.182 303.824 359.553 304.557 359.169 305.194C358.729 305.923 358.806 306.195 358.913 306.322C359.294 306.784 360.826 307.2 363.064 307.2V307.202C365.143 307.2 367.498 306.843 369.262 306.116C371.474 305.21 372.818 303.709 374.241 302.107C375.074 301.171 375.943 300.189 377.013 299.353V299.355C378.456 298.227 380.236 297.388 381.754 296.669C383.018 296.071 384.057 295.574 384.715 295.06C384.855 294.952 384.968 294.848 385.058 294.75C385.742 294.003 385.415 292.964 383.778 291.455C383.553 291.25 383.312 291.042 383.062 290.839C382.507 290.386 381.902 289.947 381.259 289.482C380.578 288.986 379.857 288.464 379.144 287.884C378.203 287.118 377.266 286.245 376.425 285.181C374.803 283.131 373.578 280.415 373.168 279.51C373.095 279.347 373.06 279.267 373.046 279.243C373.035 279.221 373.057 279.269 373.099 279.322L373.101 279.324C373.037 279.242 373.233 279.568 373.608 279.568C374.36 279.568 374.26 278.676 374.26 278.917C374.26 278.857 374.251 278.81 374.25 278.803V278.805C374.247 278.786 374.243 278.775 374.245 278.778C374.248 278.791 374.257 278.823 374.278 278.895C374.356 279.147 374.515 279.673 374.63 280.283C374.828 281.337 375.09 283.732 373.035 284.12C372.994 284.127 372.952 284.134 372.91 284.14C372.773 284.159 372.634 284.166 372.494 284.166C370.005 284.166 365.003 281.47 364.21 281.045C364.139 281.006 364.105 280.99 364.094 280.983C364.054 280.962 364.123 281.003 364.199 281.023C364.195 281.022 364.188 281.022 364.183 281.019C364.215 281.029 364.286 281.048 364.378 281.048C364.568 281.048 364.786 280.962 364.922 280.758L365.032 280.395C365.032 279.91 364.362 279.619 364.729 279.846C364.745 279.855 364.797 279.885 364.901 279.945C365.919 280.542 370.99 283.501 373.477 285.887C375.576 287.902 376.179 289.908 374.892 291.255C374.529 291.632 374.055 291.9 373.527 292.073C372.942 292.264 372.271 292.347 371.604 292.347C369.92 292.347 367.621 291.788 367.033 290.412C366.621 289.449 367.192 288.336 367.496 287.681C367.885 286.843 367.993 286.489 367.92 286.317C367.915 286.306 367.908 286.295 367.898 286.282C367.715 286.055 367.105 285.85 366.032 285.547C365.023 285.262 363.576 284.887 362.885 284.023C362.774 283.884 362.676 283.729 362.604 283.559C361.723 281.475 364.721 278.133 366.4 277.019C367.152 276.521 367.847 276.296 368.511 276.296C369.559 276.296 370.38 276.87 371.005 277.292L370.247 278.356C368.398 276.957 366.782 275.765 365 275.765C364.819 275.765 364.637 275.778 364.453 275.805C362.364 276.096 359.993 278.076 359.625 280.046C359.513 280.643 359.576 281.268 359.657 282.024C359.736 282.78 359.835 283.665 359.664 284.582C359.461 285.673 358.89 286.757 357.631 287.829C354.395 290.586 346.243 293.504 344.604 293.718C344.53 293.729 344.454 293.736 344.376 293.736H344.372C344.406 293.736 343.576 293.766 343.576 293.015C343.576 292.741 343.736 292.544 343.775 292.496L344.286 292.901H343.633L343.775 292.496C343.974 292.243 344.443 291.883 344.91 291.519C346.252 290.467 348.384 288.791 349.615 286.741C350.653 285.015 351.073 282.985 351.499 280.911C351.879 279.046 352.27 277.108 353.202 275.555C353.306 275.381 353.416 275.215 353.534 275.05C354.784 273.322 356.83 272.242 358.279 271.468C359.301 270.921 359.883 270.59 360.065 270.337C360.078 270.321 360.081 270.312 360.081 270.312L360.132 270.22L360.023 270.583L360.081 270.312C360.078 270.32 360.065 270.358 360.078 270.408C360.08 270.421 360.083 270.427 360.083 270.427C359.954 270.151 358.613 269.407 356.319 269.407C354.662 269.407 352.728 269.815 350.934 270.952C348.987 272.186 347.173 274.289 345.168 276.624C342.967 279.191 340.559 282.003 337.612 283.871C337.366 284.026 337.116 284.177 336.862 284.319C333.936 285.958 330.526 286.618 327.148 286.618C323.53 286.618 319.912 285.86 316.9 284.692C311.054 282.429 307.265 278.516 308.16 272.079C308.848 267.127 312.341 260.716 314.946 255.92V255.922C315.609 254.7 316.219 253.58 316.719 252.599V252.6C317.799 250.488 318.384 249.024 318.798 247.988C319.019 247.434 319.205 246.967 319.396 246.595C319.673 246.053 319.997 245.635 320.545 245.363C321.27 244.998 322.302 244.942 323.474 244.942C323.982 244.942 324.546 244.952 325.156 244.966C325.909 244.982 326.74 245 327.657 245C327.841 245 328.029 245 328.22 244.998C332.028 244.966 336.942 244.575 340.242 240.986C343.661 237.27 345.283 230.342 343.497 227.39C342.488 225.724 340.239 225.137 337.074 225.137C335.035 225.137 332.753 225.378 330.425 225.625C330.066 225.663 329.746 225.402 329.707 225.045C329.67 224.686 329.93 224.363 330.287 224.326C332.598 224.08 334.954 223.83 337.074 223.83C340.235 223.83 343.2 224.381 344.613 226.713C346.84 230.39 344.798 237.962 341.202 241.872C337.488 245.91 332.033 246.273 328.231 246.305C328.036 246.306 327.845 246.306 327.657 246.306C326.724 246.306 325.88 246.289 325.128 246.273C324.514 246.258 323.964 246.248 323.474 246.248C322.255 246.248 321.535 246.328 321.128 246.532C320.92 246.636 320.762 246.79 320.557 247.19C320.402 247.496 320.239 247.898 320.009 248.474C319.59 249.523 318.987 251.032 317.88 253.195C317.371 254.19 316.752 255.329 316.093 256.545C313.441 261.426 310.1 267.598 309.453 272.258C308.675 277.858 311.832 281.328 317.37 283.474C320.244 284.588 323.703 285.312 327.148 285.312C330.366 285.312 333.543 284.68 336.225 283.178C336.457 283.048 336.687 282.909 336.913 282.768C339.666 281.022 341.95 278.37 344.178 275.772C346.142 273.485 348.089 271.206 350.235 269.847C352.27 268.556 354.457 268.101 356.319 268.101C358.553 268.101 360.751 268.784 361.262 269.868C361.299 269.946 361.331 270.031 361.35 270.121C361.411 270.387 361.368 270.636 361.269 270.854L361.328 270.583L361.218 270.946L361.269 270.854C361.229 270.946 361.177 271.029 361.123 271.104C360.714 271.668 359.754 272.161 358.895 272.621C357.388 273.425 355.635 274.376 354.591 275.816C354.496 275.949 354.406 276.086 354.321 276.229C353.526 277.552 353.17 279.249 352.778 281.172C352.361 283.207 351.906 285.464 350.733 287.413V287.415C349.358 289.704 347.026 291.521 345.715 292.547C345.157 292.983 344.873 293.213 344.797 293.307L344.938 292.901H344.286L344.797 293.307C344.763 293.352 344.882 293.231 344.882 293.015C344.882 292.353 344.144 292.427 344.372 292.427C344.376 292.427 344.393 292.427 344.434 292.422C345.868 292.234 353.773 289.4 356.785 286.834C357.839 285.935 358.239 285.11 358.382 284.342C358.513 283.642 358.442 282.948 358.359 282.162C358.281 281.443 358.189 280.624 358.341 279.805C358.833 277.18 361.739 274.864 364.271 274.51C364.517 274.475 364.759 274.459 365 274.459C367.304 274.459 369.285 275.99 371.034 277.311C371.317 277.525 371.377 277.924 371.172 278.212C370.967 278.5 370.571 278.573 370.278 278.377C369.591 277.915 369.098 277.603 368.511 277.603C368.159 277.603 367.712 277.718 367.119 278.11C365.288 279.324 363.389 282.059 363.806 283.049C363.828 283.099 363.86 283.15 363.902 283.205C364.27 283.662 365.19 283.952 366.384 284.288C367.226 284.526 368.401 284.823 368.914 285.462V285.464C369.001 285.568 369.068 285.683 369.121 285.804C369.478 286.64 368.949 287.652 368.679 288.233C368.271 289.109 368.101 289.591 368.233 289.897C368.46 290.428 369.874 291.041 371.604 291.041C372.173 291.041 372.701 290.968 373.12 290.832C373.497 290.708 373.769 290.538 373.95 290.351C374.386 289.894 374.62 288.794 372.574 286.831C370.222 284.573 365.307 281.696 364.243 281.075C364.15 281.02 364.078 280.979 364.047 280.958C364.4 281.178 363.725 280.882 363.725 280.395L363.835 280.032C363.971 279.828 364.188 279.742 364.378 279.742C364.471 279.742 364.542 279.761 364.574 279.772L364.558 279.767C364.636 279.79 364.713 279.834 364.685 279.818C364.713 279.832 364.761 279.859 364.823 279.893C365.783 280.404 370.418 282.86 372.494 282.86C372.586 282.86 372.666 282.854 372.733 282.846C372.754 282.842 372.773 282.838 372.793 282.835C373.417 282.718 373.613 281.937 373.348 280.526C373.247 279.989 373.106 279.523 373.03 279.276C373.012 279.218 372.993 279.154 372.982 279.11C372.979 279.099 372.972 279.072 372.966 279.046L372.968 279.047C372.965 279.032 372.956 278.982 372.956 278.917C372.956 279.156 372.857 278.262 373.608 278.262C373.985 278.262 374.184 278.588 374.123 278.511L374.124 278.513C374.172 278.573 374.204 278.639 374.206 278.641H374.204C374.238 278.706 374.296 278.832 374.358 278.97C374.774 279.888 375.94 282.463 377.446 284.37C378.21 285.335 379.073 286.142 379.968 286.87C380.647 287.422 381.34 287.925 382.024 288.423C382.66 288.885 383.297 289.347 383.884 289.823C384.154 290.042 384.414 290.266 384.66 290.494C386.147 291.863 387.641 293.868 386.018 295.635C385.869 295.799 385.699 295.949 385.518 296.09C384.72 296.713 383.522 297.276 382.31 297.85C380.767 298.581 379.124 299.364 377.816 300.386C376.854 301.136 376.06 302.027 375.217 302.976C373.805 304.564 372.28 306.29 369.757 307.327C367.793 308.133 365.262 308.509 363.064 308.509C360.937 308.509 358.739 308.16 357.908 307.156C357.201 306.302 357.596 305.275 358.05 304.519C358.504 303.764 359.222 302.939 359.91 302.142C360.681 301.248 361.433 300.375 361.934 299.541C363.288 297.291 362.841 295.262 362.24 292.836L362.212 292.717V292.72L362.183 292.601C361.565 290.094 360.942 287.436 360.321 284.781L361.61 284.648C361.518 288.555 361.499 291.872 363.154 293.283C363.507 293.584 363.964 293.819 364.511 294.003C365.518 294.339 366.724 294.474 367.961 294.608C369.047 294.727 370.184 294.848 371.081 295.148C372.238 295.536 372.966 296.205 373.442 296.641C373.742 296.915 373.85 297.001 373.907 297.023C373.907 297.023 373.882 297.014 373.84 297.014C373.767 297.014 373.718 297.045 373.713 297.048C373.713 297.048 373.739 297.027 373.785 296.967C373.799 296.949 373.814 296.928 373.831 296.905C374.135 296.453 374.528 295.476 375.008 294.269C375.56 292.882 376.209 291.237 376.892 290.228C377.537 289.274 378.212 288.879 378.806 288.528V288.531C379.421 288.167 379.966 287.847 380.546 286.893C381.806 284.823 382.848 280.602 381.569 278.949C381.009 278.224 379.888 277.858 378.405 277.693C377.542 277.598 376.631 277.576 375.754 277.557C375.012 277.539 374.278 277.523 373.666 277.456C372.959 277.377 372.404 277.229 371.913 277.026C371.356 276.792 370.905 276.495 370.461 276.204C369.894 275.834 369.287 275.438 368.336 275.041C367.92 274.867 367.438 274.694 366.898 274.5C364.489 273.632 360.734 272.35 360.027 269.05C359.714 267.588 360.028 265.783 360.299 264.165C360.797 261.203 361.057 259.09 359.487 258.215C358.84 257.857 357.817 257.653 356.485 257.653C352.222 257.653 345.718 259.722 341.839 262.97C340.304 264.256 339.173 265.734 338.28 267.278C337.164 269.21 336.427 271.231 335.745 273.116C335.186 274.655 334.65 276.137 333.964 277.325C332.897 279.17 331.486 280.279 330.357 281.169C329.081 282.176 328.352 282.798 328.245 283.761C328.167 284.447 328.393 285.397 328.874 286.62C329.295 287.686 329.873 288.876 330.502 290.168C331.202 291.61 331.959 293.166 332.582 294.747C334.385 299.324 335.042 304.055 335.689 308.699C335.737 309.05 335.5 309.374 335.152 309.435C334.805 309.495 334.473 309.267 334.403 308.921C332.955 301.788 331.404 294.269 331.88 292.39C331.91 292.275 331.95 292.158 332.007 292.047C332.178 291.717 332.488 291.478 332.903 291.478C333.001 291.478 333.093 291.493 333.174 291.512C333.194 291.518 333.211 291.522 333.23 291.528C333.782 291.686 334.445 292.3 335.004 292.797C335.978 293.665 337.044 294.596 338.132 294.91C338.457 295.002 338.796 295.043 339.153 295.043V295.044C339.906 295.043 340.693 294.867 341.558 294.672C342.38 294.487 343.282 294.279 344.166 294.279C344.924 294.279 345.693 294.43 346.427 294.879C346.864 295.147 347.263 295.508 347.636 295.919C348.589 296.967 349.473 298.48 350.376 300.016C351.453 301.848 352.579 303.762 353.96 305.283C354.243 305.596 354.538 305.894 354.841 306.177C356.031 307.289 357.312 308.174 358.388 308.912C359.1 309.403 359.765 309.859 360.198 310.267C360.429 310.481 360.668 310.748 360.785 311.063C360.928 311.447 360.87 311.857 360.583 312.189C360.571 312.202 360.558 312.216 360.546 312.23V312.228C360.453 312.331 360.343 312.416 360.235 312.487C359.509 312.967 357.954 313.323 356.416 313.687C354.157 314.222 351.665 314.822 350.224 315.773C348.801 316.711 348.391 318.019 348.002 319.294C347.746 320.144 347.449 321.246 346.545 321.782C346.121 322.033 345.617 322.134 345.101 322.134C343.036 322.134 340.106 320.528 338.23 317.738C336.975 315.873 336.183 313.464 335.58 311.641C335.042 310.017 334.717 309.137 334.491 308.958C334.491 308.958 334.498 308.964 334.514 308.971C334.544 308.986 334.587 308.997 334.632 308.997C334.654 308.997 334.669 308.995 334.682 308.992C334.696 308.99 334.703 308.986 334.703 308.986C334.578 309.041 334.339 309.311 333.826 309.964C332.923 311.113 331.484 312.977 329.102 313.485C328.632 313.584 328.135 313.631 327.624 313.631C323.894 313.631 318.909 311.187 317.11 308.613C316.293 307.443 316.132 306.262 316.261 305.102C316.362 304.196 316.641 303.287 316.906 302.422C317.194 301.473 317.472 300.561 317.576 299.615C317.63 299.148 317.64 298.664 317.619 298.167C317.564 296.814 317.279 295.402 316.991 293.971C316.724 292.647 316.449 291.294 316.397 290.051C316.349 288.878 316.502 287.817 316.623 286.95C316.848 285.367 316.857 284.791 316.447 284.476C316.176 284.267 315.628 284.092 314.896 284.092C313.496 284.092 311.877 284.725 311.141 286.156C310.849 286.725 310.671 287.461 310.573 288.345C310.437 289.602 310.476 291.06 310.517 292.61C310.559 294.205 310.605 295.891 310.437 297.429C310.434 297.478 310.428 297.525 310.421 297.574C310.167 299.745 309.495 301.597 308.906 303.226C308.402 304.617 307.976 305.81 307.839 306.966C307.543 309.482 308.631 311.918 310.708 313.492C311.372 313.995 312.142 314.415 313.015 314.889C314.889 315.909 317.113 317.109 318.949 319.744V319.746C320.009 321.268 320.932 323.262 321.85 325.243C323.244 328.249 324.633 331.218 326.523 333.007C328.209 334.602 330.331 335.275 332.412 335.275C334.148 335.275 335.835 334.804 337.172 334.03C338.66 333.168 339.743 331.914 340.835 330.648C341.869 329.444 342.949 328.175 344.371 327.5C345.214 327.1 346.149 326.918 347.118 326.918C349.501 326.918 352.15 328.012 354.376 329.836C355.582 330.826 356.669 332.033 357.638 333.109C359.294 334.947 360.435 336.14 361.379 336.194C361.4 336.194 361.42 336.195 361.441 336.195C362.869 336.195 364.681 333.235 365.012 330.184C365.094 329.438 365.072 328.727 365.051 328.037C364.994 326.151 364.918 324.17 367.871 323.619C368.886 323.43 370.286 323.403 371.819 323.374C375.608 323.299 380.48 323.189 384.353 320.978C385.594 320.268 386.746 319.333 387.802 318.29C390.314 315.806 392.208 312.781 393.357 310.936C393.813 310.206 394.216 309.552 394.483 309.287C394.492 309.278 394.497 309.275 394.504 309.268C394.556 309.22 394.762 309.018 395.072 309.018C395.243 309.018 395.415 309.082 395.546 309.204H395.548C395.802 309.442 395.789 309.773 395.789 309.83C395.779 310.98 393.708 315.973 390.284 319.685C386.274 324.032 380.286 326.787 375.327 326.787C375.201 326.787 375.072 326.785 374.948 326.782C369.855 326.635 366.079 323.497 363.712 320.194C363.632 320.082 363.555 319.974 363.478 319.862C361.406 316.839 360.08 312.954 362.8 311.083C363.194 310.812 363.656 310.603 364.151 310.437C365.415 310.01 367.063 309.805 368.762 309.588V309.59C370.859 309.323 373.099 309.036 375.134 308.351C379.475 306.888 382.973 303.562 385.254 300.068V300.07C386.285 298.495 387.065 296.889 387.832 295.306C388.757 293.405 389.67 291.515 390.968 289.883C391.767 288.878 392.704 287.98 393.585 287.136C395.362 285.429 396.847 283.972 397.222 282.084C397.471 280.823 397.238 279.297 396.757 277.567V277.57C396.454 276.488 396.069 275.362 395.671 274.209C395.273 273.049 394.863 271.86 394.539 270.697C393.38 266.532 393.32 262.736 393.499 258.53C393.516 258.1 393.537 257.655 393.559 257.218C393.74 253.365 393.926 249.33 392.635 245.48C391.182 241.14 387.88 237.086 385.408 235.907C384.586 235.514 383.836 235.434 383.04 235.434C382.797 235.434 382.551 235.441 382.292 235.448C382.036 235.456 381.765 235.466 381.492 235.466C380.357 235.466 379.113 235.324 377.664 234.462C376.391 233.706 374.966 232.391 373.552 231.088C371.313 229.028 369.105 227.02 367.16 226.495C366.796 226.396 366.442 226.352 366.091 226.352C365.101 226.352 364.091 226.709 362.931 227.341C362.063 227.812 361.149 228.414 360.118 229.092C358.89 229.902 357.514 230.81 355.935 231.667C353.905 232.77 351.55 233.788 349.427 234.705C345.762 236.289 343.418 237.39 343.266 237.99C343.264 237.995 343.267 237.984 343.266 237.99C343.267 237.984 343.266 237.971 343.264 237.964L343.259 237.945L342.64 238.152L343.264 237.964C343.266 237.968 343.285 238.021 343.393 238.123C343.837 238.544 344.878 238.993 346.337 239.605C348.282 240.421 350.789 241.462 352.457 243.043V243.045C355.948 246.347 355.668 251.758 353.173 255.35C350.675 258.951 345.93 260.789 341.466 262.542C341.137 262.671 340.764 262.514 340.626 262.186C340.49 261.86 340.639 261.483 340.96 261.336C344.204 259.877 347.247 258.493 349.033 256.385C349.183 256.207 349.328 256.021 349.464 255.83C350.133 254.897 350.638 253.829 351.22 252.595C351.908 251.137 352.687 249.488 353.93 247.747C356.37 244.338 360.778 240.363 364.516 240.202C364.596 240.198 364.674 240.197 364.756 240.197C368.461 240.197 371.188 243.944 373.619 247.196L373.432 247.025C375.88 248.491 378.81 250.182 379.2 252.974C379.354 254.073 379.105 255.277 378.732 256.46C378.446 257.367 378.069 258.31 377.701 259.233C377.325 260.18 376.957 261.104 376.674 262.003C376.303 263.178 376.075 264.316 375.87 265.341C375.59 266.741 375.329 268.236 374.55 268.932C374.115 269.321 373.587 269.431 373.085 269.431C373.028 269.431 372.974 269.429 372.917 269.427C372.397 269.404 371.812 269.277 371.248 269.154C370.521 268.999 369.766 268.838 368.962 268.802C368.847 268.797 368.728 268.795 368.612 268.795C366.527 268.795 364.082 269.555 361.502 270.364C361.188 270.463 360.848 270.311 360.712 270.011C360.576 269.71 360.684 269.356 360.965 269.183C363.527 267.611 366.336 265.857 368.822 265.857C369.233 265.857 369.639 265.906 370.039 266.008C370.327 266.084 370.604 266.187 370.871 266.311C372.022 266.846 373.055 267.811 374.013 268.696C375.058 269.663 376.037 270.56 377.135 271.07C377.484 271.231 377.852 271.357 378.235 271.454C379.365 271.741 380.599 271.778 381.898 271.813C383.12 271.847 384.414 271.881 385.588 272.18C386.833 272.495 387.911 273.099 388.87 273.634C390.134 274.336 391.159 274.892 392.289 274.908C392.307 274.91 392.322 274.91 392.338 274.91C394.371 274.91 396.928 273.154 397.653 270.34C398.387 267.492 397.248 263.469 394.778 260.397C392.324 257.345 388.574 255.272 385.613 254.026C382.682 252.792 380.606 252.4 378.486 252.002L378.891 250.772C381.647 252.116 384.211 253.348 386.506 253.348C386.946 253.348 387.372 253.302 387.784 253.203C388.937 252.926 390.04 252.23 391.299 251.427C392.789 250.476 394.478 249.387 396.488 249.118C396.84 249.07 397.197 249.049 397.556 249.049C400.912 249.049 404.71 250.94 406.538 252.388C407.032 252.781 407.4 253.153 407.694 253.528C408.105 254.054 408.357 254.569 408.606 255.078C408.924 255.727 409.27 256.428 409.999 257.361C410.641 258.181 411.58 259.179 412.617 260.283C414.355 262.133 416.382 264.279 417.441 266.15C417.904 266.972 418.185 267.74 418.356 268.465C418.601 269.51 418.613 270.45 418.624 271.262C418.634 271.986 418.645 272.58 418.776 273.138C418.885 273.6 419.079 274.057 419.3 274.574C419.852 275.856 420.582 277.484 419.233 279.313C417.819 281.229 414.062 283.384 410.94 283.384C410.339 283.384 409.746 283.304 409.19 283.118V283.12C405.706 281.965 404.357 276.976 403.868 273.033C403.733 271.952 403.659 270.911 403.587 269.916C403.385 267.111 403.205 264.744 401.914 262.588V262.59C400.369 260.01 397.377 257.883 396.767 257.811C396.767 257.811 396.773 257.811 396.782 257.811C396.787 257.811 396.796 257.811 396.806 257.809C397.064 257.786 397.257 257.522 397.236 257.303V257.301C397.236 257.298 397.238 257.308 397.236 257.298C397.234 257.289 397.234 257.282 397.234 257.282C397.282 257.491 397.657 258.075 398.346 259.102C399.64 261.029 401.721 264.105 402.013 266.86C402.094 267.614 402.042 268.338 401.898 269.025C401.544 270.746 400.625 272.283 399.847 273.595C399.154 274.763 398.599 275.714 398.421 276.58C398.185 277.72 398.611 278.814 399.352 279.979C399.681 280.496 400.056 281.001 400.439 281.519C400.804 282.008 401.177 282.511 401.493 283.01C402.959 285.31 403.252 287.599 400.65 290.359V290.361C399.879 291.179 398.855 292.038 397.726 292.904C396.452 293.881 395.021 294.883 393.62 295.864C392.253 296.821 390.92 297.754 389.775 298.635C386.421 301.205 384.651 303.32 382.851 305.468L382.213 304.41C385.556 303.693 388.99 302.953 391.999 302.953C393.297 302.953 394.539 303.089 395.678 303.436C397.63 304.031 399.2 305.221 400.427 306.147C401.631 307.055 402.335 307.542 402.845 307.542C402.863 307.542 402.879 307.542 402.895 307.54C402.915 307.538 402.936 307.536 402.955 307.533C403.861 307.374 405.063 304.775 404.356 300.756C404.177 299.741 403.877 298.682 403.558 297.567C402.699 294.539 401.667 291.032 403.466 287.867C405.446 284.389 410.828 281.415 414.062 281.415C414.718 281.415 415.354 281.535 415.872 281.857V281.859C416.783 282.426 417.098 283.462 417.184 284.499C417.298 285.852 417.046 287.544 416.815 289.134C416.576 290.786 416.354 292.334 416.452 293.529C416.597 295.26 417.427 296.28 418.215 297.238C418.818 297.972 419.594 298.856 419.465 300.046C419.391 300.729 419.028 301.434 418.592 302.096C418.008 302.976 417.19 303.928 416.396 304.854C415.558 305.831 414.741 306.786 414.148 307.681C413.977 307.94 413.825 308.193 413.687 308.445C413.178 309.374 412.853 310.283 412.474 311.348C412.007 312.669 411.468 314.187 410.413 316.113C408.42 319.742 404.073 325.699 401.652 325.699C401.652 325.699 401.649 325.699 401.642 325.699C400.344 325.693 399.842 324.317 399.575 323.209C399.341 322.249 399.184 321.042 399.02 319.783C398.82 318.253 398.604 316.614 398.233 315.079C397.137 310.557 394.709 307.033 391.21 305.862C390.102 305.49 388.859 305.343 387.665 305.343C386.785 305.343 385.942 305.423 385.221 305.547C384.032 305.748 383.348 306.039 383.216 306.164C383.185 306.191 383.35 306.056 383.306 305.794C383.27 305.587 383.134 305.509 383.159 305.527C383.175 305.538 383.248 305.575 383.417 305.628C383.965 305.796 384.944 305.948 386.203 306.14C387.978 306.412 390.219 306.752 392.117 307.336C396.124 308.569 398.615 310.877 400.18 314.273C401.744 317.667 402.383 322.148 399.474 327.92C396.621 333.587 390.286 340.595 386.373 342.758C385.282 343.36 384.338 343.614 383.47 343.614C383.205 343.614 382.952 343.589 382.71 343.548C381.799 343.392 381.022 342.976 380.325 342.607C379.557 342.201 378.857 341.836 378.008 341.69C377.714 341.641 377.39 341.616 377.042 341.616C374.335 341.616 370.484 343.1 366.251 344.791L365.953 344.911C362.049 346.471 357.826 348.169 354.02 348.169V348.171C353.329 348.169 352.649 348.114 351.98 347.99C347.491 347.16 343.957 343.334 342.313 338.483C340.676 333.655 340.877 327.731 341.072 321.968L341.074 321.916C341.084 321.591 341.333 321.323 341.659 321.288C341.982 321.254 342.281 321.465 342.359 321.782C343.237 325.351 344.192 329.157 342.265 333.32C340.38 337.396 335.75 341.746 332.316 344.66C328.846 347.608 326.457 349.205 324.086 350.789C323.787 350.99 323.382 350.908 323.181 350.609C322.981 350.308 323.063 349.902 323.363 349.702Z" fill="#292929"/>
</svg>
