<svg width="454" height="540" viewBox="0 0 454 540" fill="none" xmlns="http://www.w3.org/2000/svg">
<g clip-path="url(#clip0_933_6406)">
<path d="M177.457 468C177.212 468 176.947 468 176.702 468C158.022 467.548 132.135 451.175 118.355 441.456C98.2872 427.282 78.4845 409.435 67.8891 395.967C61.1113 387.348 58.7431 380.32 60.6213 374.489C62.132 369.816 66.2559 365.968 73.6053 362.336C80.0565 359.156 88.2226 356.544 96.8377 353.776C117.028 347.317 139.893 339.974 146.814 322.913C151.448 311.468 148.59 296.998 138.056 278.661C133.156 270.14 127.787 266.214 121.581 261.659C112.884 255.278 103.044 248.073 92.326 225.81C88.6309 218.113 86.5689 209.514 86.2219 200.267C85.8952 191.629 87.0589 182.421 89.6516 172.899C94.4696 155.328 104.351 136.716 117.477 120.499C129.094 106.167 142.425 94.5052 156.042 86.7306C170.516 78.4652 184.439 75.2258 196.3 77.3658C202.466 78.4849 208.039 81.0175 212.918 84.9441C213.531 83.452 214.368 82.058 215.45 80.7623C218.757 76.8161 221.615 75.0688 224.249 75.4221C228.699 76.0308 231.537 82.5489 234.803 90.0879C238.56 98.7459 242.826 108.562 250.4 111.762C254.136 113.392 257.341 113.529 260.445 113.647C264.977 113.844 269.244 114.02 273.612 119.223C279.084 125.761 272.326 146.807 268.304 159.392C267.631 161.473 267.059 163.279 266.651 164.634C259.383 189.567 274.245 198.932 289.985 208.827C296.681 213.048 303.602 217.387 309.155 223.081C315.484 229.559 319.118 236.882 320.281 245.501C321.874 257.399 318.893 269.296 311.176 281.861C304.378 292.915 294.885 303.065 285.678 312.901C282.023 316.808 278.553 320.518 275.266 324.268C239.376 365.104 253.973 394.102 265.875 407.747C276.695 420.155 293.619 429.579 312.34 433.623C331.081 437.667 349.332 435.802 362.377 428.499C373.034 422.53 379.873 413.421 382.69 401.405C383.732 396.988 384.201 392.237 384.099 387.152C381.445 388.251 378.301 388.566 374.708 388.036C350.128 384.482 335.144 376.963 328.897 365.046C318.587 345.373 334.245 317.063 349.373 289.695C356.498 276.796 363.235 264.624 367.44 253.295C372.095 240.75 372.748 231.13 369.441 223.905C369.441 223.886 369.441 223.886 369.421 223.866C365.909 214.854 357.927 208.356 350.21 202.093C343.228 196.439 336.021 190.569 331.836 182.774C325.467 170.897 327.345 157.173 329.142 143.921C330.693 132.514 332.306 120.695 328.733 109.956C323.344 95.801 309.89 84.0409 291.823 77.7192C273.551 71.3581 253.626 71.7312 241.05 78.6812C240.764 78.8383 240.377 78.7401 240.213 78.4652C240.05 78.1904 240.152 77.8173 240.438 77.6603C246.889 74.0871 255.239 72.1435 264.548 72.006C273.633 71.8882 283.207 73.4981 292.251 76.659C300.867 79.6825 308.747 84.0606 315.055 89.3614C322.017 95.212 327.018 102.025 329.897 109.623V109.642C333.551 120.637 331.918 132.573 330.346 144.117C328.488 157.801 326.712 170.72 332.898 182.264C336.961 189.862 344.085 195.634 350.965 201.229C358.805 207.59 366.91 214.167 370.543 223.473C372.381 227.518 373.054 232.092 372.585 237.471C372.177 242.242 370.85 247.563 368.563 253.727C364.337 265.134 357.58 277.346 350.434 290.284C335.45 317.397 319.955 345.432 329.979 364.555C336.021 376.099 350.7 383.422 374.871 386.916C378.444 387.427 381.506 387.113 384.038 385.935C383.65 375.628 380.996 364.005 376.055 351.224C371.666 339.896 365.848 335.969 362.377 333.633C360.581 332.416 359.274 331.552 359.111 330.197C358.968 329.059 359.683 327.763 361.581 325.76C365.848 321.225 370.707 320.322 375.606 323.169C381.67 326.663 387.406 335.694 390.959 347.317C394.552 359.018 394.98 370.543 392.143 378.141C390.652 382.126 388.345 384.953 385.263 386.602C385.406 391.982 384.936 397.008 383.834 401.68C382.364 407.963 379.751 413.578 376.076 418.349C372.605 422.825 368.196 426.594 362.949 429.52C349.638 436.98 331.081 438.885 312.034 434.762C293.068 430.658 275.878 421.097 264.895 408.493C255.402 397.616 250.768 384.776 251.482 371.367C252.299 355.897 259.975 339.798 274.286 323.502C277.593 319.733 281.064 316.042 284.718 312.115C303.296 292.247 322.527 271.691 319.016 245.658C316.505 226.948 302.663 218.231 289.271 209.809C273.143 199.659 257.913 190.078 265.426 164.3C265.834 162.926 266.406 161.119 267.079 159.019C270.775 147.475 277.675 125.977 272.612 119.93C268.59 115.139 264.773 114.982 260.343 114.806C257.28 114.668 253.81 114.531 249.849 112.803C241.826 109.426 237.478 99.3742 233.619 90.5001C230.496 83.2949 227.78 77.0517 224.024 76.5412C221.88 76.2467 219.369 77.8566 216.368 81.4494C215.266 82.7648 214.429 84.198 213.857 85.7294C214.796 86.5343 215.695 87.3785 216.572 88.2816C222.717 94.5641 227.576 103.399 231.006 114.491C231.557 116.258 231.373 117.377 230.496 117.829C228.515 118.85 224.004 115.139 220.656 111.252C218.369 108.602 214.286 103.203 212.51 96.7237C211.448 92.8365 211.407 89.3025 212.387 86.1613C207.569 82.1758 202.078 79.6039 195.974 78.5045C184.419 76.4234 170.802 79.6039 156.572 87.7123C143.078 95.4083 129.869 106.992 118.376 121.186C96.7357 148.044 77.1371 191.413 93.4488 225.319C104.024 247.307 113.741 254.434 122.316 260.717C128.379 265.154 134.095 269.355 139.117 278.092C144.65 287.712 148.141 296.507 149.509 304.203C150.754 311.291 150.244 317.73 147.957 323.345C140.832 340.917 117.661 348.338 97.2256 354.895C80.5873 360.235 64.8676 365.261 61.785 374.842C60.0293 380.3 62.3362 386.975 68.8486 395.26C79.3624 408.63 99.063 426.398 119.049 440.494C142.629 457.143 163.105 466.488 176.702 466.822C182.99 466.979 187.808 465.193 191.013 461.502C195.218 456.692 198.362 450.586 200.71 444.303C199.995 442.517 199.363 440.455 198.791 438.119C197.403 432.386 196.566 425.279 196.341 417.544C195.872 401.405 198.097 386.956 202.037 380.732C202.854 379.436 203.691 378.847 204.568 378.906C205.487 378.965 206.263 379.731 206.916 381.243C209.08 386.17 210.264 400.62 208.161 417.681C207.324 424.415 205.589 434.546 201.996 444.264C203.119 446.954 204.425 448.956 205.875 450.095C208.223 451.94 210.856 451.508 213.939 448.779C221.207 442.32 227.617 437.805 233.497 434.978C238.988 432.347 244.051 431.149 249.012 431.346C258.423 431.719 266.508 437.078 275.899 443.282C289.25 452.117 305.868 463.131 333.959 465.134C334.307 465.153 334.552 465.448 334.531 465.762C334.511 466.096 334.225 466.331 333.878 466.312C305.48 464.27 288.699 453.177 275.225 444.244C265.998 438.138 258.036 432.877 248.992 432.504C239.131 432.111 228.577 437.392 214.796 449.643C210.366 453.57 207.1 452.569 205.12 451.018C203.731 449.938 202.506 448.21 201.404 445.893C199.056 451.881 195.974 457.634 191.952 462.267C188.645 466.076 183.765 468 177.457 468ZM204.507 380.084C204.14 380.084 203.65 380.536 203.139 381.341C199.383 387.289 197.158 401.818 197.607 417.504C197.913 427.792 199.26 436.529 201.384 442.517C204.609 433.309 206.222 423.905 206.998 417.544C209.08 400.679 207.957 386.485 205.855 381.694C205.426 380.712 204.936 380.104 204.528 380.084H204.507ZM370.053 322.737C367.44 322.737 364.909 324.013 362.5 326.565C360.928 328.234 360.254 329.333 360.336 330.079C360.438 330.884 361.479 331.611 363.071 332.671C366.665 335.086 372.687 339.13 377.199 350.812C382.078 363.455 384.773 374.98 385.242 385.287C387.774 383.736 389.713 381.223 390.999 377.748C393.755 370.386 393.306 359.136 389.774 347.651C386.345 336.48 380.669 327.488 374.953 324.19C373.299 323.228 371.666 322.737 370.053 322.737ZM213.49 87.0644C212.734 89.8719 212.837 93.0131 213.776 96.4489C215.49 102.731 219.451 107.973 221.676 110.526C225.882 115.395 229.271 117.181 229.985 116.828C230.149 116.749 230.312 116.239 229.883 114.864C226.106 102.672 220.553 93.3076 213.49 87.0644ZM237.314 226.143C235.232 226.143 233.231 225.495 232.19 224.219C231.108 222.904 229.332 219.134 236.008 212.675C236.763 211.949 237.6 211.144 238.11 209.828C237.253 209.809 236.232 210.182 234.885 210.732C233.537 211.281 232.006 211.91 230.312 212.027C227.74 212.224 225.269 211.163 223.085 210.221C221.207 209.416 219.451 208.67 218.104 208.925C213.184 209.848 210.162 211.91 209.101 215.011C208.651 216.347 208.631 217.642 208.774 218.702C210.203 218.133 211.591 217.328 212.918 216.582C215.368 215.188 217.491 213.971 219.247 214.56C220.145 214.854 220.798 215.581 221.288 216.759C221.554 217.426 221.697 218.742 219.614 220.195C216.675 222.236 210.693 223.552 208.794 222.06C208.508 221.844 208.161 221.196 207.896 220.293C206.447 220.705 204.956 220.862 203.446 220.489C201.996 220.136 201.016 219.272 200.567 217.976C199.199 213.873 203.609 205.921 208.447 200.542C209.488 199.384 210.897 192.728 211.673 189.155L211.775 188.704C213.735 179.515 217.369 162.415 205.589 155.563C198.219 151.283 187.91 150.105 176.579 152.285C167.107 154.11 158.859 159.058 153.694 165.988C162.84 162.415 166.739 160.923 175.314 159.117C183.051 157.487 190.033 158.351 196.709 161.767C203.425 165.203 204.568 174.902 205.405 181.989C205.528 183.03 205.65 184.031 205.773 184.895C205.814 185.13 205.691 185.366 205.467 185.484C186.419 195.477 176.436 190.785 162.595 184.286L162.309 184.149C162.003 184.011 161.88 183.658 162.023 183.363C162.166 183.069 162.534 182.951 162.84 183.089L163.126 183.226C176.538 189.528 186.256 194.103 204.507 184.64C204.405 183.854 204.303 182.99 204.201 182.107C203.405 175.294 202.302 165.949 196.157 162.788C189.767 159.51 183.03 158.685 175.599 160.256C167.025 162.062 163.166 163.574 153.857 167.186L152.326 167.775C152.081 167.873 151.795 167.795 151.632 167.598C151.469 167.402 151.448 167.127 151.591 166.911C156.838 158.881 165.861 153.129 176.375 151.107C188.012 148.869 198.628 150.086 206.263 154.523C218.777 161.807 215.021 179.437 213.02 188.919L212.918 189.371C211.734 194.927 210.591 200.012 209.427 201.288C204.752 206.51 200.608 214.03 201.771 217.603C202.078 218.526 202.731 219.095 203.772 219.331C205.058 219.645 206.365 219.507 207.671 219.115C207.488 217.956 207.467 216.582 207.814 215.227C208.508 212.557 210.836 209.102 217.92 207.767C219.635 207.453 221.574 208.277 223.636 209.141C225.8 210.064 228.025 211.026 230.271 210.849C231.761 210.732 233.15 210.182 234.477 209.652C235.824 209.102 237.212 208.552 238.498 208.67C239.029 205.921 238.274 201.386 234.068 193.003C230.802 186.485 227.801 176.845 232.047 167.932C232.19 167.637 232.558 167.5 232.864 167.637C233.17 167.775 233.313 168.128 233.17 168.423C229.128 176.924 232.027 186.191 235.191 192.493C239.499 201.092 240.377 205.902 239.682 209.023C240.193 209.279 240.683 209.691 241.132 210.319C247.808 219.37 244.317 223.375 242.5 224.671C241.009 225.652 239.131 226.143 237.314 226.143ZM239.254 210.162C238.723 211.536 237.845 212.557 236.886 213.48C230.904 219.272 232.292 222.393 233.17 223.473C234.599 225.221 238.988 225.633 241.703 223.67C244.929 221.353 244.337 216.72 240.07 210.947C239.805 210.614 239.539 210.359 239.254 210.162ZM209.55 221.117C210.754 222.04 216.042 221.157 218.859 219.193C219.594 218.683 220.431 217.898 220.125 217.151C219.798 216.307 219.369 215.816 218.839 215.64C217.634 215.247 215.654 216.366 213.551 217.564C212.122 218.369 210.611 219.233 209.039 219.841C209.203 220.548 209.448 220.999 209.55 221.117ZM96.5111 321.932C96.4499 321.932 96.3886 321.932 96.3478 321.912C96.0211 321.814 95.8374 321.5 95.9395 321.186C100.594 305.695 92.2239 295.977 84.8541 287.398C79.7911 281.508 75.014 275.952 74.9935 269.296C74.9527 255.239 87.3039 242.635 99.2263 230.443C113.088 216.288 126.174 202.918 119.866 188.291C116.518 180.536 115.089 172.703 115.354 163.613C115.62 154.798 118.682 145.178 124.01 136.5C129.461 127.587 136.811 120.558 144.711 116.671C158.124 110.074 172.68 108.445 180.172 108.052C190.768 107.502 200.077 108.7 203.384 111.016C204.63 111.88 204.752 112.764 204.65 113.353C204.364 114.943 202.037 116.376 197.505 117.711C195.79 118.222 194.014 118.732 192.299 119.203C170.23 125.505 145.242 132.593 144.221 174.686C144.017 182.814 142.221 192.453 140.485 201.779C137.831 215.934 135.096 230.58 137.831 240.456C137.872 240.632 137.852 240.809 137.729 240.966C137.627 241.104 137.443 241.202 137.26 241.202C135.484 241.261 132.973 239.572 131.217 237.982C130.441 237.295 127.93 234.86 127.889 232.956C127.869 232.19 128.114 230.502 128.42 228.381C128.808 225.751 129.277 222.492 129.42 219.763C129.624 215.659 128.93 214.972 128.706 214.854C128.542 214.776 127.869 214.638 126.236 216.661C125.092 218.074 123.99 219.92 123.173 221.274C122.867 221.765 122.622 222.197 122.418 222.511C118.294 228.853 116.906 236.254 117.253 239.494C117.722 244.029 126.623 254.395 133.687 257.34C136.096 258.341 137.974 258.361 139.281 257.418C139.424 257.301 139.628 257.261 139.812 257.32C139.995 257.359 140.138 257.497 140.22 257.654C142.139 262.071 142.813 264.663 143.466 267.156C144.099 269.571 144.752 272.064 146.528 276.286C148.468 280.88 159.002 286.985 174.681 292.64C189.604 297.999 206.957 302.162 219.961 303.477C229.679 304.459 237.559 302.378 243.398 297.293C250.727 290.892 253.279 281.037 253.218 274.558C253.177 269.237 251.666 263.171 247.828 259.519C242.602 263.387 236.375 266.018 230.863 266.646C221.819 267.667 214.449 266.665 209.856 265.645C204.323 264.427 199.648 262.464 197.015 260.304C195.667 259.185 194.953 258.106 194.912 257.065C194.892 256.437 195.116 255.867 195.627 255.377C198.383 252.687 209.59 253.001 219.492 253.256C223.718 253.374 227.699 253.472 230.23 253.315C233.435 253.099 237.947 253.904 243.663 255.691C245.297 256.201 246.705 256.986 247.91 257.968C248.522 257.497 249.114 256.986 249.706 256.476C243.03 252.608 233.088 248.073 222.432 247.523C218.247 247.307 210.325 249.487 203.956 251.234C196.831 253.197 193.054 254.199 191.87 253.453C191.605 253.295 191.441 253.04 191.421 252.765C191.278 251.646 191.952 250.625 192.401 249.958C197.954 241.634 205.671 235.312 213.041 233.034C214.286 232.642 216.797 232.76 219.206 232.858C220.962 232.936 222.636 233.015 223.473 232.877C236.988 230.737 246.869 244.853 251.564 253.453C251.727 253.747 251.605 254.1 251.299 254.257C250.992 254.415 250.625 254.297 250.482 254.002C245.909 245.678 236.375 232.014 223.636 234.036C222.656 234.193 220.941 234.114 219.104 234.036C216.899 233.938 214.408 233.82 213.367 234.153C206.263 236.352 198.791 242.497 193.381 250.586C192.952 251.234 192.544 251.882 192.585 252.491C193.626 252.844 199.138 251.332 203.588 250.095C210.387 248.23 218.063 246.09 222.472 246.326C233.742 246.915 244.215 251.843 251.013 255.848C251.176 255.946 251.278 256.103 251.299 256.28C251.319 256.456 251.258 256.633 251.115 256.77C250.38 257.458 249.604 258.106 248.808 258.734C252.83 262.641 254.422 268.962 254.463 274.499C254.524 281.233 251.87 291.442 244.235 298.117C238.131 303.438 229.944 305.617 219.859 304.596C206.753 303.281 189.298 299.099 174.272 293.7C158.042 287.869 147.508 281.665 145.405 276.698C143.588 272.398 142.935 269.866 142.282 267.411C141.649 264.977 141.036 262.66 139.362 258.714C137.77 259.519 135.688 259.421 133.197 258.38C129.808 256.967 125.664 253.747 122.071 249.762C118.539 245.835 116.293 242.026 116.028 239.572C115.62 235.606 117.355 228.048 121.377 221.844C121.56 221.549 121.826 221.137 122.112 220.646C124.561 216.562 127.134 212.656 129.277 213.775C131.441 214.894 130.747 220.842 129.624 228.499C129.339 230.482 129.073 232.19 129.094 232.877C129.114 233.839 130.278 235.469 132.033 237.079C133.565 238.473 135.239 239.513 136.402 239.867C133.993 229.756 136.668 215.424 139.26 201.543C140.996 192.257 142.792 182.676 142.976 174.627C144.017 131.69 169.454 124.445 191.911 118.065C193.626 117.574 195.402 117.063 197.117 116.573C202.527 114.963 203.323 113.628 203.405 113.137C203.466 112.764 203.201 112.351 202.609 111.939C197.015 107.993 167.535 106.717 145.222 117.692C129.686 125.329 117.09 145.511 116.538 163.613C116.273 172.526 117.682 180.202 120.948 187.8C123.929 194.711 123.01 201.975 118.131 210.025C113.823 217.151 107.147 223.964 100.063 231.189C88.2838 243.204 76.1164 255.651 76.1572 269.237C76.1776 275.481 80.8119 280.88 85.7319 286.593C93.3059 295.388 101.901 305.381 97.0623 321.461C97.0215 321.775 96.7765 321.932 96.5111 321.932ZM210.407 254.277C204.038 254.277 198.097 254.65 196.504 256.201C196.259 256.456 196.137 256.712 196.157 257.006C196.178 257.674 196.79 258.518 197.831 259.401C201.874 262.719 214.368 267.313 230.741 265.468C235.987 264.879 241.908 262.385 246.93 258.714C245.868 257.89 244.664 257.242 243.275 256.81C237.804 255.082 233.313 254.277 230.312 254.493C227.719 254.67 223.718 254.552 219.471 254.454C216.634 254.356 213.469 254.277 210.407 254.277Z" fill="#171412"/>
</g>
<defs>
<clipPath id="clip0_933_6406">
<rect width="453.967" height="538.683" fill="white" transform="translate(0 0.658447)"/>
</clipPath>
</defs>
</svg>
