<svg width="289" height="491" viewBox="0 0 289 491" fill=""  xmlns="http://www.w3.org/2000/svg">
<path d="M39.3518 121.314C31.5278 121.314 25.1708 120.173 20.2808 117.891C19.9548 117.891 19.7103 117.81 19.5473 117.647C19.3843 117.484 19.3843 117.239 19.5473 116.913C19.7103 116.587 20.1178 116.424 20.7698 116.424C24.6818 118.054 29.4088 119.032 34.9508 119.358C38.5368 119.684 41.6338 119.684 44.2418 119.358C44.8938 119.358 45.2198 119.684 45.2198 120.336C45.2198 120.988 45.0568 121.314 44.7308 121.314H39.3518ZM125.905 141.363C119.385 141.363 113.028 140.548 106.834 138.918C101.944 137.614 98.0319 136.147 95.0978 134.517C92.8158 133.213 91.6749 131.909 91.6749 130.605C91.6749 129.301 91.8379 128.486 92.1638 128.16C93.1419 128.16 93.9568 128.486 94.6088 129.138L96.0759 129.627C100.64 131.909 105.693 133.539 111.235 134.517C119.711 136.147 128.676 136.799 138.13 136.473C145.302 136.147 150.029 135.495 152.311 134.517C152.311 133.213 151.822 130.768 150.844 127.182C149.866 123.596 148.888 120.499 147.91 117.891C144.976 111.045 141.308 106.155 136.907 103.221C132.506 100.287 125.09 98.3311 114.658 97.3531H102.922C96.0759 98.0051 91.8379 97.5161 90.2078 95.8861V95.3971C87.9258 91.4851 87.2738 88.7956 88.2518 87.3286C89.2299 85.8616 91.9193 84.8836 96.3204 84.3946C100.721 83.9056 105.367 83.8241 110.257 84.1501C123.949 85.1281 135.033 88.2251 143.509 93.4411C147.421 96.0491 150.192 99.1461 151.822 102.732C152.8 105.34 153.615 109.089 154.267 113.979C154.267 115.283 154.593 117.239 155.245 119.847C155.245 120.499 155.082 120.907 154.756 121.07C154.43 121.233 154.185 121.233 154.022 121.07C153.859 120.907 153.778 120.662 153.778 120.336L152.311 113.979C151.659 109.415 150.844 105.992 149.866 103.71C148.562 100.124 146.117 97.1901 142.531 94.9081C134.707 89.6921 123.949 86.5951 110.257 85.6171C104.715 85.2911 100.069 85.4541 96.3204 86.1061C92.5714 86.7581 90.4523 87.4101 89.9633 88.0621C89.4743 88.7141 89.4743 89.7736 89.9633 91.2406C90.4523 92.7076 91.0229 93.8486 91.6749 94.6636C92.3269 95.4786 96.0759 95.8861 102.922 95.8861C106.508 95.2341 110.583 95.2341 115.147 95.8861C125.579 96.5381 133.24 98.6571 138.13 102.243C142.368 105.177 146.117 110.23 149.377 117.402C150.681 120.01 151.903 123.433 153.044 127.671C154.185 131.909 154.593 134.517 154.267 135.495C153.941 135.495 153.778 135.495 153.778 135.495V135.984H153.289C144.813 139.57 135.685 141.363 125.905 141.363ZM93.1419 130.116C93.1419 130.116 93.1419 130.198 93.1419 130.361C93.1419 130.524 93.9568 131.42 95.5869 133.05C100.151 135.658 106.345 137.614 114.169 138.918C123.949 140.222 133.403 139.896 142.531 137.94C131.121 138.592 120.689 137.94 111.235 135.984C104.389 134.68 98.6839 132.887 94.1199 130.605C93.7938 130.279 93.4678 130.116 93.1419 130.116ZM213.925 490.02C190.779 483.826 165.677 472.742 138.619 456.768C127.535 450.248 118.244 444.054 110.746 438.186C103.248 432.318 99.0098 427.917 98.0319 424.983C97.7058 423.679 97.8689 422.701 98.5209 422.049C101.781 418.463 106.671 417.322 113.191 418.626C117.429 419.278 124.275 421.723 133.729 425.961L138.13 427.917C142.368 429.873 145.628 431.177 147.91 431.829L160.624 436.23C186.704 445.358 207.568 452.367 223.216 457.257C241.798 462.799 255.816 466.711 265.27 468.993C277.332 471.601 284.341 471.927 286.297 469.971V469.482C286.623 469.482 286.623 469.319 286.297 468.993C284.993 464.429 281.57 458.724 276.028 451.878C273.094 447.966 268.041 442.098 260.869 434.274L259.891 433.296H259.402C258.424 431.992 255.327 428.732 250.111 423.516C227.617 401.022 210.176 382.929 197.788 369.237C175.62 344.135 163.558 327.02 161.602 317.892C158.994 306.156 159.809 293.605 164.047 280.239C166.655 271.111 171.382 259.049 178.228 244.053L179.206 242.097C179.858 240.467 179.858 238.837 179.206 237.207C178.554 235.577 177.576 234.273 176.272 233.295C173.338 231.013 170.73 230.687 168.448 232.317C165.514 234.599 160.461 237.696 153.289 241.608C143.509 247.15 133.729 252.04 123.949 256.278C101.129 267.036 82.2208 272.415 67.2248 272.415C65.2688 272.415 62.6608 272.089 59.4008 271.437C52.8808 270.459 44.0788 268.34 32.9948 265.08L12.4568 259.701C6.58885 258.071 3.32885 257.582 2.67685 258.234L4.14385 259.701C6.09985 261.331 10.0118 262.961 15.8798 264.591L18.3248 265.08C24.1928 266.384 28.2678 267.688 30.5498 268.992C34.4618 270.948 36.9068 273.719 37.8848 277.305C39.8408 286.107 40.9818 296.213 41.3078 307.623C41.3078 314.469 40.9818 324.738 40.3298 338.43C40.0038 340.712 39.8408 344.298 39.8408 349.188C39.1888 360.272 36.7438 372.986 32.5058 387.33C31.2018 391.894 29.4088 396.458 27.1268 401.022C24.1928 406.89 21.4218 410.639 18.8138 412.269C18.1618 412.269 17.7543 412.025 17.5913 411.536C17.4283 411.047 17.5098 410.802 17.8358 410.802C19.7918 409.824 21.9108 407.216 24.1928 402.978C26.4748 398.74 28.5938 393.361 30.5498 386.841C34.7878 374.453 37.2328 361.739 37.8848 348.699C38.2108 346.417 38.3738 342.994 38.3738 338.43C39.0258 324.738 39.3518 314.469 39.3518 307.623C39.0258 296.213 37.8848 286.27 35.9288 277.794C35.2768 274.534 33.1578 271.926 29.5718 269.97C27.2898 268.992 23.3778 267.851 17.8358 266.547L14.9018 266.058C9.35985 264.428 5.44785 262.798 3.16585 261.168L2.18785 260.679C0.883847 259.049 0.394847 257.827 0.720847 257.012C1.04685 256.197 3.49185 256.197 8.05585 257.012C12.6198 257.827 21.0958 260.027 33.4838 263.613L45.7088 266.547C52.8808 268.503 57.4448 269.644 59.4008 269.97C67.8768 271.274 78.4718 270.133 91.1859 266.547C101.292 263.939 112.05 260.027 123.46 254.811C133.24 250.573 142.857 245.683 152.311 240.141C160.135 235.903 165.188 232.806 167.47 230.85C168.774 229.872 170.322 229.465 172.115 229.628C173.908 229.791 175.62 230.524 177.25 231.828C178.88 233.132 180.102 234.762 180.917 236.718C181.732 238.674 181.651 240.63 180.673 242.586L179.695 245.031C172.523 261.005 167.796 272.904 165.514 280.728C161.602 294.42 160.787 306.645 163.069 317.403C165.025 326.205 177.087 343.157 199.255 368.259C211.643 381.951 228.921 399.881 251.089 422.049L260.869 431.829L264.781 436.23C271.301 443.402 275.865 448.944 278.473 452.856C283.363 459.05 286.623 464.103 288.253 468.015C288.579 469.645 288.253 470.786 287.275 471.438C285.319 473.394 277.821 473.068 264.781 470.46C253.371 467.852 239.353 463.94 222.727 458.724C208.057 454.16 192.735 449.107 176.761 443.565C163.069 439.001 153.289 435.578 147.421 433.296C143.509 431.992 139.271 430.199 134.707 427.917C125.253 423.679 118.407 421.071 114.169 420.093C107.649 418.789 102.922 419.767 99.9878 423.027C99.6618 423.027 99.4988 423.516 99.4988 424.494C100.477 427.102 104.633 431.34 111.968 437.208C119.303 443.076 128.35 449.107 139.108 455.301C164.21 470.297 189.149 481.381 213.925 488.553C214.251 488.553 214.495 488.635 214.658 488.798C214.821 488.961 214.821 489.205 214.658 489.531C214.495 489.857 214.251 490.02 213.925 490.02ZM17.8358 164.346C17.1838 164.346 16.5318 164.02 15.8798 163.368C13.5978 161.738 12.4568 159.293 12.4568 156.033C12.4568 151.143 15.0648 147.068 20.2808 143.808C28.7568 137.614 37.7218 127.834 47.1758 114.468C47.8278 113.816 48.3983 113.653 48.8873 113.979C49.3763 114.305 49.2948 114.794 48.6428 115.446C37.8848 130.442 28.7568 140.385 21.2588 145.275C16.6948 148.209 14.4128 151.795 14.4128 156.033C14.4128 158.641 15.2278 160.76 16.8578 162.39C17.5098 162.39 18.1618 162.227 18.8138 161.901L19.3028 161.412C18.3248 160.434 17.7543 159.375 17.5913 158.234C17.4283 157.093 17.5913 156.115 18.0803 155.3C18.5693 154.485 18.9768 154.24 19.3028 154.566C20.9328 154.566 21.9108 155.218 22.2368 156.522C22.2368 158.804 21.9108 160.434 21.2588 161.412C22.5628 162.39 24.8448 162.553 28.1048 161.901L29.0828 162.39C29.0828 163.042 28.7568 163.368 28.1048 163.368C24.8448 164.346 22.2368 164.183 20.2808 162.879L19.7918 163.368L17.8358 164.346ZM19.3028 156.033C19.3028 157.663 19.6288 158.967 20.2808 159.945V158.967C20.6068 157.989 20.6883 157.256 20.5253 156.767C20.3623 156.278 19.9548 156.033 19.3028 156.033ZM29.5718 217.647C23.0518 217.647 17.8358 216.995 13.9238 215.691C13.5978 215.691 13.4348 215.447 13.4348 214.958C13.4348 214.469 13.7608 214.224 14.4128 214.224C19.9548 216.18 27.2898 216.669 36.4178 215.691C41.9598 215.691 46.6868 215.202 50.5988 214.224L49.6208 212.757C37.5588 204.281 26.3118 200.043 15.8798 200.043C14.5758 200.043 12.2938 200.369 9.03385 201.021L4.14385 201.51C3.49185 201.51 3.00285 201.266 2.67685 200.777C2.35085 200.288 2.35085 199.88 2.67685 199.554L3.16585 199.065C4.46985 197.761 7.24085 196.62 11.4788 195.642C16.3688 194.664 21.2588 194.338 26.1488 194.664C29.0828 194.99 35.4398 197.924 45.2198 203.466L46.1978 203.955C49.7838 206.237 52.2288 207.541 53.5328 207.867C48.6428 200.043 44.5678 194.827 41.3078 192.219L39.3518 190.752C35.1138 186.84 32.0168 184.558 30.0608 183.906H26.6378C25.6598 184.232 25.0078 184.232 24.6818 183.906L22.7258 183.417L14.4128 191.241L8.05585 195.153C5.77385 196.783 4.30685 197.272 3.65485 196.62C3.00285 195.968 2.83985 195.153 3.16585 194.175C4.46985 190.915 6.75185 188.063 10.0118 185.618C13.2718 183.173 16.3688 181.787 19.3028 181.461C19.6288 181.135 20.2808 181.135 21.2588 181.461H22.2368L23.7038 179.994C26.3118 175.756 27.9418 170.54 28.5938 164.346V163.857L27.6158 163.368C27.2898 163.368 27.2083 163.124 27.3713 162.635C27.5343 162.146 27.7788 161.901 28.1048 161.901C28.4308 161.901 28.5938 161.901 28.5938 161.901C29.2458 159.293 29.9793 157.256 30.7943 155.789C31.6093 154.322 33.1578 153.262 35.4398 152.61C37.0698 151.958 38.8628 151.877 40.8188 152.366C42.7748 152.855 44.1603 153.751 44.9753 155.055C45.7903 156.359 46.1163 157.989 45.9533 159.945C45.7903 161.901 45.2198 163.368 44.2418 164.346C41.6338 167.606 36.9068 167.769 30.0608 164.835V165.324C29.4088 171.518 27.7788 176.571 25.1708 180.483L24.1928 181.95L25.1708 182.439H28.5938C29.5718 182.113 30.2238 182.113 30.5498 182.439C32.8318 183.417 36.7438 186.27 42.2858 190.997C47.8278 195.724 52.0658 201.347 54.9998 207.867C55.3258 208.845 55.3258 209.497 54.9998 209.823C54.6738 210.149 53.8588 210.149 52.5548 209.823L40.8188 202.977C33.3208 198.739 28.4308 196.62 26.1488 196.62C21.9108 196.294 17.5098 196.457 12.9458 197.109C9.68585 197.761 7.07785 198.576 5.12185 199.554C6.75185 199.554 7.89285 199.391 8.54485 199.065C10.1748 198.739 12.6198 198.576 15.8798 198.576C26.9638 198.576 38.5368 202.814 50.5988 211.29C51.9028 212.594 52.6363 213.409 52.7993 213.735C52.9623 214.061 52.8808 214.387 52.5548 214.713V215.202C51.5768 216.18 46.3608 216.995 36.9068 217.647H29.5718ZM20.2808 182.928C19.9548 182.928 19.6288 182.928 19.3028 182.928C17.0208 183.254 14.3313 184.558 11.2343 186.84C8.13735 189.122 5.93685 191.893 4.63285 195.153C7.24085 193.849 10.1748 191.893 13.4348 189.285C15.3908 187.981 17.8358 185.862 20.7698 182.928H20.2808ZM30.5498 162.879C36.4179 165.813 40.4928 165.976 42.7748 163.368C43.7528 162.39 44.3233 161.086 44.4863 159.456C44.6493 157.826 44.4048 156.604 43.7528 155.789C43.1008 154.974 41.9598 154.322 40.3298 153.833C38.6998 153.344 37.2328 153.425 35.9288 154.077C33.9728 154.729 32.6688 155.707 32.0168 157.011C31.3648 158.315 30.8758 160.271 30.5498 162.879ZM270.649 429.873C270.649 429.873 270.567 429.873 270.404 429.873C270.241 429.873 270.16 429.547 270.16 428.895C274.072 409.335 276.028 390.101 276.028 371.193C276.028 359.457 274.887 341.364 272.605 316.914C270.323 290.834 268.856 268.177 268.204 248.943C266.9 218.625 267.063 185.536 268.693 149.676C269.345 136.31 269.019 125.878 267.715 118.38C265.759 102.732 260.869 87.5731 253.045 72.9031C244.569 57.2551 233.811 44.3781 220.771 34.2721C206.753 22.8621 191.105 15.6901 173.827 12.7561C173.501 12.7561 172.441 13.3266 170.648 14.4676C168.855 15.6086 167.062 17.5646 165.269 20.3356C163.476 23.1066 162.417 25.1441 162.091 26.4481C161.765 30.6861 162.906 35.0871 165.514 39.6511C167.144 42.2591 170.241 46.1711 174.805 51.3871C179.369 56.6031 182.466 60.6781 184.096 63.6121C190.942 74.6961 195.832 84.6391 198.766 93.4411C201.048 101.265 202.515 111.371 203.167 123.759C204.145 135.495 204.634 144.623 204.634 151.143C204.634 161.575 203.819 170.866 202.189 179.016C212.947 170.866 220.934 168.584 226.15 172.17C232.018 176.408 234.87 181.624 234.707 187.818C234.544 194.012 231.855 200.369 226.639 206.889C222.401 212.105 217.674 216.343 212.458 219.603L210.013 221.07C204.145 224.982 199.255 227.753 195.343 229.383C187.193 232.969 181.977 234.11 179.695 232.806C178.717 232.154 178.228 231.339 178.228 230.361C178.228 228.405 179.695 224.33 182.629 218.136L184.096 215.202C188.334 208.356 191.268 204.444 192.898 203.466C193.55 203.466 194.039 203.303 194.365 202.977C195.669 196.457 196.973 191.078 198.277 186.84C198.277 185.862 198.603 184.721 199.255 183.417L191.92 189.285C188.008 192.871 185.074 195.316 183.118 196.62C181.162 197.924 179.695 198.332 178.717 197.843C177.739 197.354 177.25 196.294 177.25 194.664C178.554 182.928 178.391 165.976 176.761 143.808C175.131 117.728 172.034 96.5381 167.47 80.2381C164.536 67.5241 159.972 57.7441 153.778 50.8981C144.324 40.7921 128.839 34.2721 107.323 31.3381C100.151 30.0341 89.5558 30.0341 75.5378 31.3381C73.9079 31.3381 72.7668 31.5011 72.1148 31.8271C64.2908 36.3911 56.7928 42.5851 49.6208 50.4091C43.7528 56.9291 39.0258 63.7751 35.4398 70.9471C35.1138 71.2731 36.0918 72.3326 38.3738 74.1256C40.6558 75.9186 43.1008 77.4671 45.7088 78.7711L48.1538 80.2381C51.0878 81.8681 53.0438 83.1721 54.0218 84.1501C55.9778 85.1281 57.0373 86.1876 57.2003 87.3286C57.3633 88.4696 57.2818 89.2031 56.9558 89.5291H56.4668C54.8368 92.1371 53.5328 93.4411 52.5548 93.4411C50.2728 94.0931 46.1978 92.9521 40.3298 90.0181L37.3958 88.5511C34.7878 87.2471 32.9948 86.2691 32.0168 85.6171L30.0608 84.6391C29.4088 84.3131 28.7568 84.3131 28.1048 84.6391C26.4748 84.9651 25.2523 86.7581 24.4373 90.0181C23.6223 93.2781 23.2148 96.5381 23.2148 99.7981V100.776C23.5408 101.102 24.3558 101.102 25.6598 100.776H29.0828C32.9949 100.776 35.9288 101.102 37.8848 101.754C41.1448 102.732 43.9158 104.525 46.1978 107.133C48.4798 109.741 49.4578 112.512 49.1318 115.446L47.6648 115.935C44.7308 113.979 42.0413 112.675 39.5963 112.023C37.1513 111.371 33.8098 111.371 29.5718 112.023C28.5938 112.349 26.9638 113.164 24.6818 114.468C22.3998 115.772 21.2588 116.75 21.2588 117.402C21.9108 118.054 24.5188 119.032 29.0828 120.336C34.2988 122.292 38.6998 122.781 42.2858 121.803C42.9378 121.803 43.2638 122.048 43.2638 122.537C43.2638 123.026 43.1008 123.27 42.7748 123.27C38.8628 124.248 33.9728 123.922 28.1048 122.292C23.8668 120.988 21.3403 120.01 20.5253 119.358C19.7103 118.706 19.3843 117.81 19.5473 116.669C19.7103 115.528 20.9328 114.305 23.2148 113.001C25.4968 111.697 27.4528 110.882 29.0828 110.556C33.3209 109.904 36.7438 109.823 39.3518 110.312C41.9598 110.801 44.5678 111.86 47.1758 113.49C47.1758 111.534 46.1978 109.578 44.2418 107.622C42.2858 105.666 40.0038 104.199 37.3958 103.221C33.8098 102.243 30.3868 102.08 27.1268 102.732C24.5188 102.732 22.8888 102.406 22.2368 101.754C21.5848 101.102 21.2588 100.45 21.2588 99.7981C21.2588 96.5381 21.5848 93.4411 22.2368 90.5071C23.5408 85.9431 25.3338 83.4981 27.6158 83.1721C28.5938 82.8461 29.5718 83.0091 30.5498 83.6611L32.5058 84.1501C33.4838 84.8021 35.2768 85.7801 37.8848 87.0841C45.0568 90.6701 49.7838 92.3001 52.0658 91.9741C52.7178 91.9741 53.8588 90.8331 55.4888 88.5511V88.0621C55.1628 86.1061 51.5768 83.4981 44.7308 80.2381C40.4928 78.2821 37.5588 76.4891 35.9288 74.8591C33.6468 73.2291 32.9948 71.5991 33.9728 69.9691C37.2328 63.4491 41.7968 56.9291 47.6648 50.4091C53.8588 42.9111 60.7048 36.7171 68.2029 31.8271C64.2908 32.1531 61.4383 32.1531 59.6453 31.8271C57.8523 31.5011 56.7928 30.7676 56.4668 29.6266C56.1408 28.4856 57.4448 26.4481 60.3788 23.5141C82.2208 4.60608 112.865 -2.40292 152.311 2.48709C158.179 3.1391 161.357 5.3396 161.846 9.08859C162.335 12.8376 159.89 15.6901 154.511 17.6461C149.132 19.6021 143.02 20.9061 136.174 21.5581C131.936 22.2101 125.742 22.6991 117.592 23.0251H113.68C109.116 23.0251 102.596 23.3511 94.1199 24.0031C87.9258 24.3291 81.7318 26.1221 75.5378 29.3821H79.4499C92.4899 28.4041 101.944 28.4041 107.812 29.3821C117.592 31.0121 125.742 32.9681 132.262 35.2501C141.716 38.8361 149.295 43.8076 155 50.1646C160.705 56.5216 165.514 66.5461 169.426 80.2381C173.664 96.5381 176.761 117.728 178.717 143.808C180.021 164.998 180.184 181.95 179.206 194.664C178.88 195.316 178.88 195.805 179.206 196.131V196.62L180.184 196.131C180.836 195.805 181.814 195.316 183.118 194.664L199.744 180.972C202.026 172.496 203.167 162.879 203.167 152.121C203.167 145.275 202.678 135.821 201.7 123.759L201.211 118.38C200.233 107.296 198.929 99.1461 197.299 93.9301C194.691 85.7801 189.801 76.0001 182.629 64.5901C180.999 61.6561 177.902 57.5811 173.338 52.3651C168.774 47.1491 165.677 43.0741 164.047 40.1401C161.439 35.2501 160.298 30.6861 160.624 26.4481C160.95 24.8181 162.091 22.4546 164.047 19.3576C166.003 16.2606 167.959 13.9786 169.915 12.5116C171.871 11.0446 173.338 10.6371 174.316 11.2891C200.396 15.8531 222.564 29.2191 240.82 51.3871C248.318 60.8411 254.675 71.4361 259.891 83.1721C265.107 94.9081 268.367 106.644 269.671 118.38C270.649 128.486 270.975 138.918 270.649 149.676C269.019 185.536 268.856 218.625 270.16 248.943C270.812 268.177 272.279 290.834 274.561 316.914C276.843 341.69 277.821 359.946 277.495 371.682C277.495 390.59 275.539 409.824 271.627 429.384L270.649 429.873ZM193.876 204.933C192.246 205.585 189.475 209.334 185.563 216.18C181.651 223.026 179.695 227.753 179.695 230.361L180.184 231.339C182.792 232.317 187.682 231.176 194.854 227.916C199.418 225.308 204.96 222.048 211.48 218.136C216.37 214.876 220.771 210.801 224.683 205.911C229.899 199.391 232.588 193.36 232.751 187.818C232.914 182.276 230.388 177.549 225.172 173.637C222.564 171.681 218.978 171.681 214.414 173.637C211.154 174.941 206.753 177.549 201.211 181.461L199.744 187.329C198.114 191.893 196.81 197.109 195.832 202.977L199.255 204.444C200.885 205.422 202.189 205.83 203.167 205.667C204.145 205.504 204.797 205.096 205.123 204.444C205.449 203.792 205.775 202.488 206.101 200.532V199.554C206.101 196.294 206.427 194.012 207.079 192.708C208.709 190.426 210.828 189.611 213.436 190.263C215.066 190.589 216.451 191.323 217.592 192.464C218.733 193.605 219.467 194.99 219.793 196.62C220.771 200.858 218.652 205.422 213.436 210.312C211.806 211.942 208.057 215.039 202.189 219.603C196.973 223.189 193.55 224.656 191.92 224.004C191.268 224.004 190.942 223.189 190.942 221.559L193.876 204.933ZM192.898 222.537C193.55 222.537 194.039 222.374 194.365 222.048C195.995 221.396 198.277 220.092 201.211 218.136C205.123 215.528 208.872 212.431 212.458 208.845C217.022 204.281 218.978 200.369 218.326 197.109C218 195.805 217.348 194.664 216.37 193.686C215.392 192.708 214.251 192.219 212.947 192.219C212.621 191.893 211.969 191.812 210.991 191.975C210.013 192.138 209.361 192.627 209.035 193.442C208.709 194.257 208.383 195.642 208.057 197.598L207.568 199.554C207.568 201.836 207.323 203.629 206.834 204.933C206.345 206.237 205.286 207.052 203.656 207.378C202.026 207.704 200.233 207.215 198.277 205.911C196.973 205.259 196.158 204.933 195.832 204.933L192.898 222.537ZM129.328 2.48709C100.966 2.48709 78.3089 9.98508 61.3568 24.9811C58.7488 27.2631 57.7708 28.7301 58.4228 29.3821L59.4008 29.8711C60.0528 30.1971 61.3568 30.3601 63.3128 30.3601C66.5728 30.3601 69.3438 30.1971 71.6258 29.8711C79.4499 25.3071 86.9478 22.8621 94.1199 22.5361C98.3578 21.8841 104.878 21.5581 113.68 21.5581H114.169C122.971 21.2321 129.654 20.7431 134.218 20.0911C141.716 19.4391 148.154 18.1351 153.533 16.1791C158.912 14.2231 161.276 11.8596 160.624 9.08859C159.972 6.3176 157.038 4.60608 151.822 3.9541C143.998 2.97607 136.5 2.48709 129.328 2.48709Z"   fill="currentColor"/>
</svg>
