<svg width="372" height="617" viewBox="0 0 372 617" fill="none" xmlns="http://www.w3.org/2000/svg">
<path opacity="0.6" d="M190.685 -3.23236C164.776 -2.04736 146.28 5.25385 127.249 21.7292C120.218 27.8454 108.677 38.8928 104.626 43.3652C96.2188 52.7688 93.6967 56.515 86.4359 70.2763C83.5316 75.8573 79.7865 82.6998 78.1815 85.5285C71.3029 97.455 68.6661 103.724 62.0932 123.984C59.6475 131.553 57.4692 137.898 57.3164 138.128C57.1635 138.319 56.4756 140.23 55.7878 142.332C53.8388 148.296 49.2531 161.216 41.3427 183.043C31.3686 210.604 26.8593 224.289 22.5029 239.962C21.8532 242.37 19.4075 248.83 17.1146 254.296C9.89203 271.536 5.91771 281.552 2.4784 291.414C-4.20916 310.603 -5.58488 313.891 -11.8903 326.467C-18.8071 340.267 -19.5332 342.446 -20.2593 351.811C-20.4886 354.754 -20.8325 358.615 -21.0236 360.412C-21.5968 365.381 -21.4822 375.893 -20.8325 380.939C-19.5332 390.84 -17.5843 397.491 -13.4189 406.092C-8.03062 417.292 3.89234 435.297 12.5671 445.465C14.1339 447.261 14.516 447.988 14.516 449.096C14.516 450.625 15.4714 449.937 -4.5913 462.59C-17.9664 471.038 -25.6858 476.81 -32.7173 483.614C-37.1501 487.896 -42.997 494.815 -44.4109 497.376C-45.7484 499.899 -45.0988 501.122 -39.4048 507.009C-37.3794 509.111 -34.5516 512.399 -33.1376 514.31C-30.3479 518.094 -28.6665 519.317 -26.8322 518.859C-25.2272 518.477 -24.8833 518.018 -22.7815 513.507C-19.6861 506.97 -15.6735 501.313 -5.01166 488.469C2.44019 479.486 12.1849 468.706 12.2231 469.394C12.2231 469.509 10.8474 471.229 9.12774 473.217C5.84129 477.04 -9.67385 497.605 -14.7564 504.906C-20.5268 513.163 -23.2782 518.515 -23.584 522.146C-23.775 524.019 -23.6604 524.593 -22.8197 526.007C-21.2529 528.683 -19.495 529.715 -9.2917 533.996C-1.80164 537.131 2.2109 538.431 5.42093 538.775C8.13416 539.042 11.0767 538.431 11.0767 537.59C11.0767 536.787 6.87308 533.232 3.31912 531.053C1.59946 529.983 -2.29842 527.689 -5.35559 525.969C-8.41276 524.249 -11.3171 522.49 -11.8521 522.07L-12.8074 521.305L-11.2789 521.535C-10.4381 521.649 -5.6231 523.79 -0.57877 526.313C4.46556 528.836 9.2806 530.976 10.1213 531.091C13.2167 531.512 14.4396 530.021 15.6624 524.249C18.4521 511.405 25.7511 496.879 37.0626 481.78C40.9987 476.543 41.0369 476.466 40.7312 478.148C40.4255 479.83 38.018 484.876 35.3812 489.387C32.5533 494.165 30.7954 497.834 27.3179 505.862C25.6747 509.646 22.9614 515.648 21.28 519.241C18.4139 525.281 18.1846 525.931 18.0317 528.683C17.8407 531.626 17.8789 531.665 19.1782 532.964C21.0507 534.837 23.4964 535.258 32.2858 535.296C38.4383 535.296 39.8141 535.181 41.3809 534.608C43.2534 533.843 43.8648 532.888 43.368 531.32C43.2534 530.9 41.6866 529.333 39.9287 527.842C38.1326 526.351 36.6805 524.975 36.6805 524.822C36.6805 524.21 39.8141 523.217 40.9605 523.446C41.5719 523.599 43.8266 524.554 45.9666 525.548C48.1066 526.58 50.5524 527.536 51.3549 527.689L52.8453 527.957L52.6542 525.51C52.4249 523.025 51.737 521.305 48.7945 515.992C46.8073 512.36 46.0431 509.34 46.6163 507.2C47.2277 504.983 48.8327 503.492 51.0874 503.148C52.0427 502.995 55.291 503.033 58.2335 503.224C65.9146 503.683 70.8825 503.568 73.7486 502.842C79.2898 501.428 85.8244 497.414 94.7667 489.922C97.5946 487.513 101.722 484.073 103.9 482.238C108.791 478.148 114.944 473.905 118.383 472.299C121.937 470.618 123.237 470.732 125.912 472.835C131.376 477.154 134.968 478.721 143.452 480.442C152.853 482.315 155.299 483.767 163.133 492.024C169.018 498.255 172.457 500.587 176.317 500.969C182.698 501.619 186.749 497.261 192.94 483.194C195.921 476.351 198.023 473.561 200.124 473.561C201.385 473.561 204.481 476.543 206.812 479.945C207.805 481.474 209.449 483.691 210.366 484.838C211.321 485.984 212.086 487.016 212.086 487.093C212.086 487.208 211.436 487.475 210.633 487.705C209.487 487.972 208.111 487.896 204.595 487.322C202.111 486.902 199.207 486.558 198.137 486.558C196.15 486.558 192.978 487.743 192.978 488.469C192.978 489.387 196.303 492.368 198.558 493.477C200.583 494.509 201.309 494.662 202.799 494.471C205.551 494.165 209.41 495.12 211.971 496.726C213.156 497.529 217.015 499.516 220.493 501.16C237.078 509.073 271.051 527.039 290.234 538.048C315.876 552.803 328.984 563.392 345.225 582.505C347.289 584.913 350.652 588.698 352.677 590.915C360.587 599.554 362.689 602.612 365.823 610.295C368.842 617.597 369.683 618.208 370.791 613.736C372.549 606.779 372.396 600.013 370.294 594.279C368.804 590.227 367.16 587.36 362.995 581.549C358.982 575.968 355.811 571.114 354.702 568.897C354.282 568.056 352.945 564.501 351.76 561.06C350.575 557.62 349.047 553.836 348.397 552.689C346.639 549.516 342.321 545.388 339.149 543.82C334.258 541.336 333.188 541.145 323.099 540.877C314.615 540.648 313.775 540.533 311.902 539.73C309.036 538.431 307.546 536.519 306.437 532.735C305.864 530.671 305.176 529.142 304.412 528.301L303.266 526.963L299.979 527.307C294.094 527.842 291.763 527.727 290.54 526.848C288.094 525.013 288.438 522.681 292.107 515.992C295.164 510.487 295.814 508.576 296.081 504.677C296.31 500.701 295.546 498.331 293.292 495.808C289.126 491.183 282.248 489.654 265.777 489.616C257.332 489.616 254.504 489.157 250.377 487.093C246.746 485.335 243.154 481.741 238.874 475.625C237.078 473.14 233.944 468.668 231.842 465.725C227.066 459.035 226.187 457.124 225.957 453.072C225.766 450.052 225.805 449.784 228.25 442.56C229.588 438.469 231.881 432.468 233.295 429.219C236.314 422.262 237.269 419.662 240.632 409.915C245.638 395.35 250.529 385.526 256.376 378.225C257.026 377.422 257.561 376.429 257.561 376.046C257.561 375.626 257.752 375.32 257.981 375.32C258.211 375.32 262.223 376.276 266.885 377.422C288.591 382.812 297.457 382.659 310.182 376.811C316.182 374.059 319.507 371.077 321.341 366.796C322.296 364.54 324.589 356.169 325.354 352.155C325.659 350.473 326.194 346.421 326.538 343.172C327.303 335.794 328.487 329.563 331.124 319.319C332.232 314.885 333.532 308.807 333.99 305.749C334.945 299.441 336.436 293.86 338.423 289.235C341.251 282.698 343.162 277.347 346.372 267.102C350.996 252.232 351.607 249.595 351.836 243.631C352.066 237.783 351.492 234.419 348.703 225.283C347.098 220.122 345.072 212.057 345.072 210.948C345.072 210.681 345.607 210.833 346.372 211.292C348.091 212.362 348.512 212.286 348.512 210.986C348.512 210.222 348.053 209.419 346.983 208.311C345.34 206.629 345.263 206.323 345.837 203.303C346.41 200.359 345.798 198.639 343.429 196.231C341.442 194.282 338.079 192.332 336.283 192.141C335.404 192.026 335.289 192.217 334.831 194.32C333.99 198.142 333.188 199.977 331.697 201.468C330.169 203.035 329.099 203.265 327.226 202.462C325.774 201.85 319.851 196.04 319.851 195.199C319.851 194.855 320.653 193.938 321.609 193.211C325.889 189.924 330.474 188.662 335.213 189.465C340.028 190.306 343.2 192.103 345.951 195.581C349.467 200.092 351.454 201.353 354.855 201.392C358.715 201.392 358.982 199.748 355.352 197.913C350.384 195.428 350.537 192.408 356.04 184.649C358.371 181.399 360.664 176.354 361.39 172.99C361.849 170.734 361.925 168.555 361.734 160.681C361.084 135.796 358.982 119.703 354.626 106.094L353.441 102.348L353.709 93.2884C353.976 83.5408 353.785 81.7059 351.913 77.5775C351.454 76.6218 351.034 74.9399 350.957 73.8696C350.575 68.8619 346.868 59.9171 342.092 52.3101C339.187 47.723 337.2 45.6588 332.958 42.83C331.124 41.6068 328.143 39.5426 326.347 38.2047C322.717 35.4906 320.386 34.2674 314.997 32.0885C312.934 31.2858 305.482 27.6925 298.451 24.1375C279.19 14.3898 267.535 9.30579 266.618 10.2232C266.159 10.6819 267.153 12.5168 268.528 13.7783C269.102 14.3134 271.662 16.1865 274.184 17.9449C286.069 26.1252 289.47 29.2216 300.208 41.4539C308.463 50.8957 310.259 53.1893 311.214 55.5211C312.131 57.7 311.596 57.7382 309.8 55.5593C307.163 52.3865 305.635 51.0869 303.113 49.9019C300.973 48.908 300.399 48.7933 298.221 48.9844L295.737 49.1755L296.616 48.2199C297.686 47.0731 297.724 45.0471 296.731 42.9447C295.011 39.3896 286.451 31.7062 280.413 28.3041C275.675 25.6283 271.662 22.1497 271.089 20.2385C270.821 19.4357 270.363 18.2889 270.057 17.6773C269.216 16.0718 265.089 12.211 261.65 9.76453C258.898 7.77673 253.472 5.29205 251.982 5.29205C251.408 5.29205 251.447 5.13916 252.173 4.37463C252.669 3.87769 252.975 3.15143 252.899 2.76917C252.746 1.81348 248.045 -0.594727 244.186 -1.70331C238.606 -3.30878 235.396 -3.49994 213.614 -3.42346C202.379 -3.38525 192.061 -3.30878 190.685 -3.23236ZM236.925 -1.58862C241.32 -1.05347 245.218 0.0551147 248.389 1.66058C249.88 2.3869 251.064 3.07495 251.064 3.18964C251.064 3.26605 250.568 3.61011 249.994 3.91589C249.077 4.37463 248.389 4.41284 246.058 4.06885C241.587 3.45721 227.715 3.91589 222.021 4.87158C200.659 8.50305 176.393 19.1299 159.235 32.3179C147.961 41.0334 137.185 52.9982 127.326 67.7916C124.689 71.7672 121.02 77.0423 119.224 79.4506C114.371 85.9108 102.295 102.921 98.3206 108.885C88.3466 123.793 79.9394 140.23 77.1497 150.169C76.2708 153.265 76.0415 157.585 76.6912 158.234C78.1433 159.687 80.5126 156.438 84.6016 147.416C89.3784 136.904 96.3717 122.111 99.9639 114.924C104.053 106.744 107.263 101.392 111.352 95.8878C113.148 93.4795 116.205 88.6248 118.116 85.1462C127.364 68.4797 148.955 46.538 170.814 31.7062C193.36 16.3776 210.48 9.49695 231.957 7.01221C246.02 5.40674 253.587 6.66821 261.803 11.9816C265.739 14.5045 270.133 19.2064 269.331 20.0091C269.216 20.1238 268.376 19.9326 267.458 19.5886C263.637 18.136 254.962 19.0534 245.523 21.9204C240.288 23.5259 225.002 28.8775 220.302 30.7888C212.353 33.9998 203.411 38.8928 196.265 44.015C188.01 49.8636 181.399 55.8268 158.967 77.3864C140.166 95.4673 135.58 100.475 123.695 115.765C117.81 123.296 112.919 129.259 109.709 132.776C104.473 138.51 102.792 140.918 101.836 143.9C101.263 145.696 101.225 146.308 101.607 147.531C101.875 148.334 102.257 149.022 102.486 149.022C102.677 149.022 105.046 147.072 107.721 144.702C114.18 138.968 117.657 135.949 121.326 132.891C125.262 129.68 126.561 128.265 131.529 121.69C142.267 107.585 150.14 100.59 179.603 79.1448C193.284 69.206 195.042 67.8298 210.786 55.177C221.486 46.5762 227.639 42.0273 234.632 37.6695C244.53 31.4387 255.268 27.0045 264.631 25.2078C266.923 24.7491 269.216 24.1375 269.675 23.8317C270.477 23.2965 270.668 23.373 273.114 25.5136C274.528 26.7369 277.356 28.6481 279.343 29.7567C283.7 32.165 286.489 34.2674 290.769 38.3575C298.489 45.7352 298.068 48.5639 288.973 50.0165C287.789 50.2076 286.757 50.5517 286.642 50.7428C286.528 50.934 284.273 51.278 281.636 51.5073C272.923 52.3483 265.968 53.6097 263.599 54.833C263.026 55.1388 262.338 55.7504 262.108 56.2091C261.421 57.4706 262.529 58.044 265.739 58.044C271.815 58.044 281.025 56.018 290.999 52.5012C294.705 51.1633 297.801 50.3223 298.833 50.2841C301.508 50.2458 303.953 51.622 307.393 55.1388C310.335 58.1586 312.055 59.573 312.743 59.573C313.469 59.573 312.628 55.33 311.443 53.1511C310.068 50.5517 308.157 48.1816 298.871 37.6313C290.158 27.7307 286.68 24.6727 274.91 16.6452C269.637 13.0519 268.108 11.7905 268.949 11.7905C270.095 11.7905 280.337 16.5305 294.247 23.5259C302.769 27.8072 311.902 32.2414 314.577 33.3882C320.156 35.7964 322.296 37.0197 326.538 40.2689C328.22 41.5685 330.895 43.5181 332.5 44.5884C335.939 46.882 337.926 49.0609 340.678 53.4951C344.346 59.3819 348.512 68.5562 348.512 70.6586C348.512 70.8879 347.48 69.7411 346.257 68.0974C343.391 64.2748 338.767 59.8406 334.945 57.2795C332.003 55.2917 319.163 47.7994 315.762 46.041C312.284 44.2826 308.998 43.9386 308.501 45.3147C308.157 46.1939 310.259 48.7933 312.896 50.7428C314.271 51.7749 319.01 54.489 323.405 56.7443C333.302 61.8666 339.187 65.6892 343.888 70.1234C347.098 73.1432 347.671 73.9078 349.123 76.9659C351.492 82.0499 351.76 83.7701 351.607 92.8297L351.531 97.2256L349.161 92.6385C344.614 83.923 339.722 77.5392 334.296 73.1815C331.506 70.9261 327.303 68.365 326.5 68.365C326.309 68.365 327.073 68.8619 328.143 69.4736C338.079 74.9399 345.951 86.5988 351.492 103.915C355.62 116.874 357.76 130.903 359.059 153.303L359.326 157.776L357.072 157.164C350.996 155.52 343.888 157.126 335.824 161.904C328.029 166.568 322.679 173.639 320.08 182.737C318.246 189.121 317.864 191.72 318.131 195.849C318.475 201.162 319.125 203.991 321.723 211.713C325.124 221.881 327.646 227.959 331.965 236.483C334.143 240.764 336.168 245.237 336.512 246.422C338.194 252.156 335.175 259.457 328.296 266.414C325.889 268.822 325.01 269.472 323.252 270.007C320.73 270.81 319.43 270.657 316.22 269.09L313.927 268.02L315.265 267.446C318.093 266.223 318.169 264.809 315.418 262.897C312.819 261.139 310.641 260.527 307.66 260.718C303.38 261.024 298.451 263.853 298.451 266.032C298.451 266.911 301.24 267.523 305.253 267.523C307.851 267.523 309.647 267.943 309.151 268.402C308.692 268.822 303.266 269.816 301.393 269.816C297.151 269.816 290.196 266.796 287.254 263.7C286.26 262.668 285.458 261.483 285.458 261.139C285.496 259.916 286.986 257.087 289.164 254.182C292.489 249.748 294.935 244.319 293.903 243.67C292.986 243.096 292.03 243.975 289.623 247.722C286.489 252.576 283.547 258.884 283.547 260.757C283.547 263.432 288.897 268.249 294.285 270.466C296.884 271.575 299.024 271.689 308.386 271.307C311.673 271.154 312.208 271.231 313.927 272.11C316.755 273.524 317.29 274.747 317.137 279.296C317.061 281.322 317.023 284.342 317.061 285.986L317.137 289.006L315.15 288.662C310.832 287.974 309.342 288.279 303.992 290.993C298.947 293.516 294.705 296.498 283.929 305.099C278.044 309.801 275.216 311.1 270.936 311.1C269.293 311.1 268.872 311.483 269.216 312.668C269.446 313.317 269.675 313.432 270.898 313.203C272.121 313.012 272.541 313.165 274.184 314.388C275.254 315.19 277.585 317.255 279.42 318.975C282.248 321.612 283.47 322.453 287.445 324.441C293.1 327.232 298.107 328.952 302.157 329.449C304.909 329.831 317.443 329.411 321.303 328.837C323.863 328.455 326.538 324.671 327.761 319.663C328.258 317.675 328.296 316.834 327.914 315.038L327.494 312.859L328.984 311.291C329.786 310.45 330.933 309.074 331.506 308.233L332.538 306.704L332.309 308.424C332.156 309.38 331.124 313.661 329.978 317.943C328.602 323.103 327.226 329.64 325.965 337.132C323.94 349.135 321.953 357.774 319.736 363.929C317.596 369.93 315.494 372.186 309.342 375.129C302.578 378.378 297.61 379.334 289.661 379.028C283.088 378.76 276.821 377.766 269.56 375.855C254.313 371.841 253.319 371.574 242.657 367.675C231.842 363.776 213.996 358.692 201.576 356.016C194.086 354.41 193.628 354.219 185.335 349.976C171.425 342.828 165.96 337.514 163.171 328.493C162.75 327.002 161.68 322.568 160.84 318.554C158.776 308.692 156.904 301.353 153.235 288.738C150.407 279.067 148.802 274.786 147.923 274.786C147.77 274.786 147.312 275.168 146.891 275.588C145.821 276.773 145.974 283.157 147.274 291.032C148.458 298.256 148.879 299.977 151.133 307.087C152.05 310.03 153.694 315.535 154.764 319.319C160.075 337.935 164.585 344.472 176.011 350.206C179.106 351.773 185.679 354.105 187.857 354.449C188.66 354.602 189.615 354.793 189.921 354.869C190.265 354.984 194.66 355.901 199.666 356.933C207.309 358.462 209.525 359.074 213.041 360.565C215.372 361.559 220.187 363.241 223.741 364.273C230.123 366.184 235.129 367.751 249.268 372.338C255.383 374.326 256.414 374.785 256.414 375.435C256.414 375.855 255.459 377.384 254.236 378.875C248.122 386.444 243.498 395.847 237.231 413.546C235.779 417.636 233.218 424.249 231.537 428.187C227.333 438.011 224.276 447.567 224.008 451.657L223.856 454.792L222.862 453.569C219.079 448.905 212.544 442.751 206.239 437.934C200.506 433.538 194.278 427.843 183.425 416.986C171.769 405.289 166.152 400.511 155.719 393.516C150.254 389.808 144.216 386.75 138.484 384.762C136.382 384.036 133.822 382.889 132.752 382.239C127.517 378.99 116.205 376.887 103.059 376.734C98.7028 376.658 96.9831 376.773 96.6392 377.117C96.2953 377.461 96.257 377.728 96.5246 377.996C96.9831 378.455 101.378 379.296 106.231 379.869C110.32 380.366 127.478 384.036 132.408 385.45C134.892 386.176 136.497 386.979 139.172 388.814C141.121 390.152 143.414 391.604 144.255 392.025C145.095 392.484 148.267 394.089 151.324 395.618C163.553 401.734 169.285 406.13 184.953 421.382C188.851 425.167 193.246 429.295 194.698 430.557C205.895 440.151 217.971 452.116 223.932 459.532C225.919 462.017 227.792 464.004 228.174 464.004C228.556 464.004 230.276 466.183 232.76 469.815C239.447 479.754 242.428 483.461 245.905 486.061C251.714 490.457 254.427 491.107 269.025 491.527C278.35 491.795 280.834 491.986 283.47 492.636C290.808 494.471 294.247 497.949 294.247 503.492C294.247 506.894 293.292 509.57 290.043 515.533C288.553 518.247 287.215 521.267 286.948 522.376C285.725 528.224 290.655 530.938 299.444 529.294C301.661 528.912 301.966 528.912 302.654 529.562C303.074 529.944 303.877 531.665 304.374 533.423C305.902 538.392 307.775 540.495 312.017 542.062C314.08 542.826 315.15 542.903 322.717 542.979C330.551 543.056 331.315 543.132 334.219 544.05C339.684 545.808 343.964 549.287 346.486 554.065C347.136 555.326 348.55 558.881 349.658 562.054C352.142 569.241 354.129 573.025 358.524 579.065C368.421 592.75 370.218 597.069 369.797 606.358C369.644 610.716 369.148 613.277 368.689 612.474C368.574 612.283 367.848 610.563 367.046 608.69C364.18 601.618 361.772 598.178 353.632 589.156C351.11 586.442 347.212 581.97 344.881 579.218C342.588 576.504 338.117 571.687 334.945 568.514C320.959 554.447 309.724 546.534 280.49 530.059C261.994 519.662 230.887 503.186 223.13 499.708C220.378 498.484 218.314 497.414 218.506 497.338C219.079 497.146 225.422 499.516 231.155 502.116C238.071 505.212 241.473 506.321 245.523 506.818C252.631 507.697 263.14 505.327 275.14 500.166C279.649 498.217 280.299 497.758 279.649 496.993C279.229 496.458 278.464 496.42 274.184 496.649C267.879 496.955 263.217 497.643 255.918 499.402C246.173 501.734 241.855 501.619 236.275 498.905C230.352 496.038 224.467 490.227 215.334 478.11C206.927 466.986 204.443 464.96 199.284 464.96C197.029 464.998 196.035 465.228 193.169 466.451C181.055 471.65 180.711 471.65 163.935 466.489C147.274 461.367 143.643 460.679 127.822 459.417C113.836 458.309 110.855 457.774 100.881 454.639C95.2635 452.881 88.0409 450.969 81.0094 449.402C73.4429 447.72 66.1439 447.682 56.0553 449.211C48.7945 450.32 41.8394 450.549 38.6676 449.823C37.674 449.593 35.4958 448.943 33.8144 448.408C31.4451 447.605 29.9929 447.376 27.4325 447.376H24.1079L24.2989 446.42C24.7575 444.394 25.7511 441.489 27.2415 438.011C31.5979 427.613 36.1837 412.093 38.6294 399.402C39.4701 394.815 39.7376 389.884 39.2409 387.476L38.9351 386.1L41.763 384.227C45.0495 382.01 48.6034 380.633 53.8006 379.487C56.7814 378.837 59.571 378.646 68.2075 378.378C79.2898 378.072 81.5826 377.766 84.7544 376.123C86.7034 375.129 88.4613 373.179 89.4166 371C90.1809 369.242 91.1745 362.82 90.8306 361.597C90.5249 360.374 91.2891 341.681 91.9006 336.138C92.2063 332.966 93.1617 326.2 94.0024 321.039C94.8049 315.879 96.1042 307.278 96.8685 301.926C97.6328 296.574 98.5881 290.114 99.0085 287.591C100.308 279.793 103.25 268.287 103.938 268.287C104.702 268.287 109.67 273.945 111.466 276.888C112.575 278.723 113.492 280.328 113.492 280.481C113.492 280.902 117.046 284.227 118.345 284.992L119.606 285.718L115.288 290.305C110.282 295.619 107.874 298.6 104.97 303.073C100.843 309.457 97.8238 316.605 96.2188 323.715C95.0342 329.105 94.9577 338.776 96.066 342.063C98.6646 349.785 103.518 354.563 111.008 356.857C114.256 357.851 124.459 357.851 128.013 356.857C134.013 355.175 138.408 351.849 140.586 347.3C142.306 343.745 142.65 341.452 142.42 335.985C142.267 331.551 142 330.252 139.325 319.892C137.72 313.7 135.312 304.067 133.937 298.486C132.561 292.905 131.032 287.056 130.459 285.489C129.274 282.049 129.274 282.049 130.268 279.296C131.491 275.932 132.714 266.567 132.523 261.789C132.408 258.54 132.217 257.431 131.491 256.055C129.848 252.844 128.931 252.232 123.619 250.703L120.179 249.709V244.931C120.179 242.332 120.332 235.795 120.523 230.443C120.791 221.995 120.753 220.199 120.179 216.873C119.262 211.33 117.581 206.629 114.027 199.48C110.053 191.491 107.798 188.089 104.435 184.916C98.4735 179.297 92.2827 178.456 88.423 182.737C85.8627 185.604 83.3405 192.37 83.3023 196.46C83.3023 200.589 85.5952 203.915 90.5631 206.896C98.0149 211.369 98.5881 213.28 94.1935 219.167C91.2509 223.142 90.4102 225.436 90.6777 228.723C90.9452 232.278 92.2445 234.763 95.5692 238.012C100.881 243.249 108.256 247.989 115.135 250.627C118.765 252.003 118.842 252.079 119.262 253.57C119.492 254.411 120.867 257.393 122.319 260.26C124.307 264.197 125.033 266.032 125.338 268.096C125.797 270.848 125.529 275.779 124.918 276.162C124.727 276.276 124.574 276.62 124.574 276.964C124.574 277.309 123.963 278.838 123.198 280.405C121.899 283.119 121.784 283.234 120.829 283.004C118.613 282.469 115.135 279.143 111.772 274.403C110.167 272.11 106.231 267.79 101.301 262.744C92.8941 254.22 90.907 251.888 87.162 246.154C83.8373 241.07 82.4234 237.897 79.2133 228.15C73.9015 212.095 72.564 205.061 73.4047 197.645C74.5894 187.019 80.5891 177.5 88.6523 173.563C91.4802 172.149 91.5566 172.149 96.3335 172.149H101.149L104.397 173.754C108.486 175.78 111.581 178.991 115.67 185.298C122.587 196.002 124.268 198.334 126.829 200.704C130.459 204.182 133.096 205.405 136.803 205.405C139.21 205.405 140.051 205.214 141.923 204.297C145.057 202.768 149.375 198.525 152.28 194.129C154.725 190.497 158.585 183.12 160.114 179.22C160.572 178.074 161.833 175.054 162.98 172.531C166.725 164.045 168.559 157.241 170.432 144.932L171.349 139.083L178.457 132.623C182.393 129.068 190.036 121.805 195.5 116.453C208.761 103.495 215.296 97.7991 223.932 91.6064C243.727 77.3864 264.669 69.6647 286.451 68.5179C292.336 68.2121 294.973 68.6326 303.113 71.2702C306.743 72.417 310.45 73.4873 311.367 73.602C312.475 73.7549 313.125 74.0607 313.431 74.6341C313.736 75.1693 313.775 77.7686 313.622 83.082C313.354 91.0713 312.972 95.1614 311.1 109.382C310.45 114.083 309.571 121.346 309.151 125.551C307.698 139.504 306.667 144.702 304.412 149.595C302.31 154.106 296.922 161.14 296.922 159.343C296.922 157.241 295.546 148.41 294.973 146.881C294.094 144.511 292.871 143.212 292.336 144.053C292.107 144.358 291.954 145.008 291.954 145.505C291.954 146.27 291.801 146.193 290.54 144.779C285.801 139.542 272.617 137.516 257.179 139.657C246.402 141.186 240.632 142.753 234.25 145.964C230.658 147.76 210.977 160.49 206.544 163.854C201.538 167.676 196.303 173.487 197.831 173.487C198.175 173.487 201.309 171.958 204.787 170.046C220.416 161.637 229.702 158.12 242.543 155.864C246.593 155.138 248.772 154.985 255.459 154.985C264.44 154.985 268.72 155.559 274.375 157.47L277.624 158.578L274.49 158.426C266.847 158.043 265.662 160.222 269.904 166.912C273.84 173.143 274.949 176.162 276.095 183.693C276.706 187.936 276.859 193.632 276.324 194.434C276.095 194.817 275.751 194.626 274.949 193.67C273.84 192.37 272.617 189.886 269.79 183.349C265.968 174.48 261.841 169.779 256.338 168.059C253.434 167.179 251.141 167.179 247.549 168.097C242.466 169.396 236.046 173.143 231.078 177.691C228.059 180.444 224.161 185.757 223.206 188.395C222.365 190.65 221.41 191.453 218.62 192.217C218.085 192.332 217.588 192.753 217.512 193.097C217.283 194.282 219.537 193.823 223.053 192.026L226.378 190.306L227.754 191.644L229.091 192.982H227.945C226.569 192.982 223.97 194.129 223.206 195.008C222.403 196.002 223.588 196.231 225.728 195.505C228.518 194.549 228.671 194.702 227.18 196.843C225.881 198.716 225.499 199.863 226.148 199.863C226.301 199.863 227.639 199.098 229.053 198.142C231.728 196.384 233.6 195.772 234.976 196.231C235.74 196.46 235.74 196.46 235.014 197.684C234.594 198.372 234.25 199.136 234.25 199.366C234.25 200.168 235.702 199.939 237.345 198.83C239.294 197.531 242.008 197.301 245.447 198.104C246.899 198.448 248.657 198.716 249.421 198.716C250.606 198.716 250.72 198.792 250.3 199.289C249.421 200.321 250.224 200.398 253.625 199.557C256.529 198.83 256.988 198.792 257.293 199.289C257.714 200.054 259.701 200.015 261.573 199.136C262.414 198.754 263.828 198.334 264.707 198.219C266.312 197.951 268.605 198.486 268.108 199.022C267.955 199.174 266.006 200.321 263.752 201.583C257.293 205.214 257.179 206.476 262.987 210.833C264.898 212.21 267.076 214.274 267.917 215.344C271.127 219.587 273.993 227.538 274.757 234.381C275.14 237.553 274.91 241.147 274.108 244.74C273.955 245.581 273.993 245.81 274.414 245.657C274.719 245.543 275.254 244.396 275.598 243.058C277.165 237.324 276.821 231.896 274.528 225.474C271.509 217.103 268.299 212.439 263.752 209.648C258.631 206.552 258.707 205.405 264.248 202.768C267.764 201.086 269.79 199.519 269.79 198.525C269.79 197.645 267.611 197.11 264.669 197.263C262.873 197.34 261.841 197.263 261.879 196.996C261.956 196.575 260.694 196.575 254.695 197.11C250.95 197.454 247.205 197.263 246.67 196.728C246.555 196.613 246.899 196.231 247.434 195.887C249.23 194.702 250.262 192.6 250.72 189.159C251.217 185.451 251.485 184.954 253.013 184.954C255.65 184.954 263.255 188.433 265.662 190.727L267.306 192.294L265.892 193.555C265.089 194.205 264.44 194.97 264.44 195.199C264.44 195.428 264.21 195.543 263.905 195.428C263.637 195.314 263.293 195.505 263.14 195.887C262.949 196.346 263.064 196.46 263.522 196.269C263.866 196.155 264.592 195.925 265.127 195.811C266.312 195.505 268.223 193.479 268.261 192.485C268.261 191.568 263.675 187.286 261.268 186.025C258.746 184.687 255.039 183.425 253.701 183.425C251.752 183.425 250.682 184.801 250.224 187.974C249.383 193.785 245.256 196.613 239.409 195.314C238.568 195.123 238.301 194.855 238.377 194.358C238.492 193.708 238.301 193.67 236.161 193.899C233.944 194.167 233.677 194.09 231.69 192.905C230.543 192.217 229.206 191.109 228.671 190.421L227.754 189.236L231.116 187.516C238.415 183.769 243.765 182.508 252.593 182.508C259.242 182.47 260.198 182.737 264.134 185.642C266.58 187.439 273 194.358 273.382 195.581C273.535 196.078 274.261 196.766 275.025 197.11C276.21 197.684 276.439 197.684 277.318 197.187C277.891 196.881 278.503 196.078 278.655 195.467C279.267 193.479 279.038 187.974 278.235 183.961C276.783 176.927 274.91 172.225 271.853 167.867C268.414 163.013 267.42 159.993 269.102 159.381C269.56 159.228 272.006 159.152 274.566 159.228C279.038 159.381 279.267 159.458 283.547 161.254C285.954 162.286 288.706 163.318 289.661 163.586C290.617 163.854 291.495 164.236 291.648 164.465C291.801 164.695 292.68 164.656 294.094 164.351C295.814 163.968 296.693 163.471 298.183 162.057C300.934 159.496 304.756 154.259 306.476 150.742C309.036 145.467 309.762 141.721 311.252 125.704C311.749 120.123 312.705 111.446 313.316 106.4C314.845 94.1676 315.341 86.9429 315.189 79.9475L315.074 74.1754L316.526 73.9843C319.239 73.602 320.347 71.576 319.469 68.4033C318.819 65.8803 314.157 61.3314 312.972 62.0577C312.552 62.3253 312.513 66.8359 312.934 69.8176L313.24 71.8436L312.055 71.576C311.405 71.4613 307.737 70.3145 303.915 69.0913C295.737 66.4537 292.527 65.9185 286.795 66.1861C264.134 67.3712 238.912 77.8451 215.028 96.0024C208.264 101.125 202.379 106.438 189.348 119.206C177.807 130.482 171.884 136.025 171.272 136.025C171.119 136.025 170.661 135.375 170.241 134.572C168.406 131.17 164.508 132.355 158.967 137.898C154.076 142.829 152.318 147.34 154.42 149.442C155.948 150.971 158.356 149.863 164.394 144.855C166.457 143.135 168.177 141.759 168.253 141.759C168.444 141.759 167.183 149.634 166.037 155.597C164.547 163.318 160.916 173.257 155.757 183.808C151.821 191.873 145.248 199.977 140.93 202.156C134.357 205.405 128.548 202.194 121.937 191.606C115.67 181.552 114.065 179.335 110.664 175.933C106.613 171.881 103.671 170.237 99.3524 169.549C87.9645 167.791 76.1562 178.303 72.3347 193.67C71.3411 197.607 71.4175 206.514 72.5258 211.904C73.7869 218.326 78.9458 235.298 81.2005 240.459C84.2194 247.454 89.4166 254.564 97.0596 262.095L101.722 266.682L100.346 271.613C97.9003 280.29 96.5628 287.668 94.1935 306.131C93.4674 311.712 92.4356 319.013 91.9006 322.377C90.3338 332.583 89.7606 340.076 89.4548 354.105C89.1873 366.987 89.1491 367.56 88.3084 369.51C86.0155 374.632 81.6973 376.085 66.6789 376.658C63.3161 376.811 59.1889 377.155 57.5074 377.422C50.7434 378.607 44.4762 380.939 40.9605 383.653C39.9669 384.418 38.8205 385.029 38.4001 385.068C37.9798 385.106 37.3301 385.641 36.948 386.253C36.5658 386.864 35.3812 388.737 34.3112 390.419C31.9419 394.089 28.5025 401.237 26.5536 406.474C22.5793 417.063 15.2803 441.222 15.2803 443.859C15.2421 446 14.6306 445.541 11.0003 440.916C-2.90986 423.026 -12.6928 406.704 -16.3996 395.121C-19.1511 386.444 -20.6797 373.332 -19.9154 364.234C-18.9218 351.926 -18.3486 346.612 -17.8136 344.204C-16.9346 340.496 -14.9475 335.871 -10.8967 328.302C-5.12631 317.446 -2.4895 311.139 4.00698 292.561C8.89845 278.685 17.8025 255.711 18.7196 254.755C18.9107 254.564 18.8343 255.329 18.5285 256.475C17.191 261.636 13.3696 280.099 12.6053 284.915C11.5353 291.643 11.1913 300.435 11.8028 303.302C12.2996 305.405 13.7899 307.66 14.7071 307.66C14.9746 307.66 15.6242 307.048 16.1974 306.322C18.4521 303.379 19.675 299.021 21.1653 288.547C21.7003 284.877 23.2671 274.442 24.6047 265.42C25.9422 256.361 27.7765 244.167 28.6172 238.28C31.4833 218.899 30.9101 220.887 42.3362 188.777C47.4952 174.251 56.7431 146.461 59.0742 138.51C61.3289 130.903 66.0293 116.3 68.2457 110.223C71.4558 101.431 74.5129 94.7792 79.1751 86.6753C81.5062 82.5851 85.3659 75.5515 87.8116 71.0408C95.3017 56.9736 99.2378 51.5838 108.868 41.9891C121.975 28.954 137.185 16.6452 147.426 10.873C159.961 3.80127 176.775 -0.28894 198.901 -1.55042C206.927 -2.00909 233.218 -2.04736 236.925 -1.58862ZM222.136 7.08868C221.868 7.16516 221.41 7.16516 221.181 7.08868C220.913 6.974 221.104 6.89752 221.639 6.89752C222.174 6.89752 222.365 6.974 222.136 7.08868ZM214.952 8.73242C205.742 11.1024 200.659 13.0519 191.373 17.7537C173.565 26.7751 156.483 39.275 141.236 54.3361C137.605 57.9675 133.44 62.2106 132.026 63.7779C128.739 67.4094 129.313 66.3008 133.975 60.1082C142.611 48.5639 151.133 39.8102 160.878 32.4708C175.17 21.691 195.997 12.2874 214.761 8.159C221.104 6.74463 221.219 7.08868 214.952 8.73242ZM267.229 21.5764C268.452 21.9968 268.949 22.3409 268.72 22.5703C268.49 22.7996 266.197 23.373 263.637 23.8699C247.931 27.0045 233.447 34.9554 211.894 52.3101C193.934 66.7213 190.074 69.7411 178.648 78.0362C164.967 87.975 159.808 91.9122 152.853 97.7226C139.669 108.732 136.268 112.172 129.236 121.576C124.23 128.265 122.167 130.482 116.664 134.917C114.982 136.254 111.237 139.465 108.371 142.065C103.441 146.537 103.174 146.728 103.174 145.658C103.174 143.441 106.728 138.089 112.345 131.82C116.32 127.386 117.772 125.589 124.956 116.339C134.586 103.953 139.783 97.952 149.222 88.2808C154.649 82.738 169.514 68.4797 177.883 60.8727C192.367 47.6465 203.908 39.6573 216.671 34.038C220.875 32.2032 238.759 25.7812 244.377 24.0992C255.727 20.7354 262.567 19.9708 267.229 21.5764ZM314.118 47.2642C317.787 49.1755 331.888 57.6235 334.449 59.4966C338.69 62.5164 339.302 63.4338 335.48 61.0256C333.723 59.9171 329.137 57.3559 325.392 55.4064C317.329 51.2015 313.507 48.9462 312.246 47.5701C311.367 46.6526 311.367 46.5762 312.055 46.5762C312.475 46.5762 313.392 46.882 314.118 47.2642ZM286.986 52.463C286.986 52.7306 278.961 55.2917 276.095 55.9415C272.732 56.7443 267.229 57.2412 265.433 56.9354C264.134 56.7443 264.019 56.6296 264.554 56.2091C265.357 55.5211 271.395 54.3743 279.611 53.304C283.356 52.807 286.528 52.3865 286.719 52.3483C286.871 52.3483 286.986 52.3865 286.986 52.463ZM315.915 65.7656C316.564 66.4537 317.29 67.4094 317.52 67.868C318.093 68.9766 318.055 71.1555 317.481 71.7289C316.946 72.264 315.036 72.3405 314.73 71.8818C314.348 71.2319 314.004 64.5424 314.386 64.5424C314.577 64.5424 315.265 65.1158 315.915 65.7656ZM114.982 88.7012C114.218 90.1921 110.779 95.0468 110.129 95.582C109.823 95.8495 110.817 94.244 112.345 91.9504C115.135 87.9367 115.861 87.0193 114.982 88.7012ZM104.091 104.756C101.913 108.617 99.7346 113.051 94.8431 123.487C92.2827 128.877 88.9581 135.758 87.4295 138.777C85.8627 141.797 83.7227 146.231 82.5762 148.678C80.5126 153.265 78.3726 156.4 78.3344 154.985C78.2962 152.386 83.1877 139.618 87.353 131.438C88.6906 128.8 91.2509 124.175 93.0852 121.117C96.4099 115.536 104.97 102.386 105.276 102.386C105.39 102.386 104.855 103.456 104.091 104.756ZM168.139 135.222C168.33 135.643 168.521 136.637 168.483 137.439C168.483 138.968 168.062 139.389 160.19 146.079C156.445 149.29 154.764 149.557 154.764 146.958C154.764 143.326 163.018 134.496 166.457 134.496C167.336 134.496 167.871 134.725 168.139 135.222ZM277.05 141.377C281.139 141.95 286.451 143.326 288.018 144.205C290.578 145.658 291.916 149.557 291.954 155.597C291.954 158.043 292.565 158.502 293.635 156.973C294.476 155.788 294.4 153.953 293.292 149.978C292.298 146.384 292.069 144.435 292.718 144.435C292.909 144.435 293.368 145.008 293.712 145.658C294.514 147.187 295.24 159.114 294.629 160.681C294.285 161.56 294.056 161.637 291.878 161.637C289.432 161.637 283.929 160.26 283.929 159.687C283.929 159.496 283.661 159.343 283.356 159.343C283.05 159.343 281.139 158.655 279.152 157.852C270.974 154.45 265.433 153.456 254.122 153.456C246.784 153.418 244.797 153.571 240.632 154.297C227.715 156.629 217.092 160.719 204.099 168.364L199.284 171.193L201.959 168.67C205.092 165.727 209.907 162.478 221.486 155.367C237.498 145.62 242.772 143.556 256.223 141.759C262.147 140.994 273 140.765 277.05 141.377ZM357.11 158.884L359.403 159.572L359.632 162.63C359.785 165.039 359.67 165.918 359.135 167.026C358.18 169.014 356.499 170.314 353.594 171.193C350.805 172.034 348.091 172.149 342.397 171.575C336.245 170.925 328.793 172.034 325.698 174.06C324.284 175.016 324.666 174.213 327.226 171.04C330.322 167.179 334.296 164.045 339.111 161.713C347.021 157.814 351.263 157.164 357.11 158.884ZM257.79 170.237C260.198 171.422 263.828 175.169 265.777 178.494C266.541 179.832 268.032 182.776 269.063 185.107L270.974 189.35L268.376 186.827C266.962 185.451 265.166 183.884 264.44 183.425C263.713 182.928 262.414 181.935 261.612 181.246C260.274 180.138 259.854 179.985 257.867 179.985C255.421 179.985 254.122 179.526 254.122 178.647C254.122 177.883 253.51 177.921 251.676 178.8C250.797 179.22 249.307 179.679 248.313 179.794C246.746 180.023 246.479 179.947 246.02 179.259C245.37 178.188 244.568 178.227 244.568 179.373C244.568 180.367 243.498 180.75 240.517 180.75C236.275 180.75 234.212 181.743 227.219 187.248C225.308 188.701 223.741 189.847 223.665 189.771C222.9 189.006 228.862 182.049 233.639 178.15C239.027 173.716 244.606 170.505 248.695 169.473C251.676 168.708 255.268 169.014 257.79 170.237ZM359.441 171.805C359.059 175.283 357.951 177.653 354.779 182.126C353.097 184.457 351.416 187.057 351.034 187.936L350.308 189.542L349.505 187.133C347.403 180.864 342.092 178.188 334.793 179.756C329.978 180.75 325.774 183.12 321.876 186.904L319.736 188.968L320.004 187.63C320.539 184.687 322.182 180.061 323.252 178.418C325.85 174.289 328.105 173.601 340.41 173.104C345.302 172.875 350.766 172.569 352.524 172.378C355.505 172.034 358.447 170.964 359.021 170.046C359.556 169.205 359.67 169.779 359.441 171.805ZM342.703 180.979C344.614 181.743 346.486 183.616 347.671 185.91C348.435 187.401 348.665 188.395 348.665 190.497C348.703 193.861 348.244 194.014 344.958 191.873C343.658 191.032 341.633 189.924 340.448 189.389C335.098 186.904 328.143 187.057 322.831 189.733C321.838 190.23 320.997 190.497 320.997 190.268C320.997 190.038 322.335 188.548 323.978 186.942C329.825 181.094 337.315 178.724 342.703 180.979ZM97.6328 181.667C102.448 183.922 105.161 187.172 109.441 195.619C113.301 203.265 115.288 208.005 116.358 212.248C118.269 219.855 119.224 232.546 118.651 243.708L118.383 249.136L116.205 248.333C109.632 245.887 101.072 240.917 96.4863 236.827C93.8877 234.495 92.0916 231.437 91.8241 228.8C91.5566 226.124 92.6266 223.677 95.722 219.931C99.1231 215.841 99.7346 213.547 98.2442 210.642C97.3653 208.96 93.9642 205.711 90.5249 203.265C89.1491 202.271 87.5441 200.895 87.0091 200.168C84.4487 196.843 84.9455 188.968 87.9263 184.457C90.2956 180.864 93.8113 179.87 97.6328 181.667ZM237.88 182.814C236.428 183.311 234.861 183.846 234.441 183.999C233.677 184.305 233.677 184.305 234.403 183.502C235.282 182.508 236.887 181.973 239.027 181.935C240.479 181.935 240.403 181.973 237.88 182.814ZM339.531 194.817C344.499 197.187 345.569 199.06 344.461 203.379C343.506 206.973 343.391 207.011 336.398 205.596C333.34 204.985 330.742 204.411 330.665 204.297C330.551 204.22 331.009 203.838 331.659 203.532C333.493 202.538 335.137 199.366 336.092 194.779C336.359 193.479 336.703 193.479 339.531 194.817ZM352.792 198.219C353.518 198.716 354.282 199.098 354.55 199.098C354.779 199.098 355.046 199.251 355.199 199.442C355.428 199.863 352.906 199.213 351.569 198.525C351.034 198.257 349.926 197.378 349.085 196.613C347.633 195.237 347.595 195.161 348.359 194.855C348.817 194.702 349.314 194.358 349.467 194.129C349.62 193.861 350.078 194.434 350.613 195.543C351.11 196.613 352.027 197.722 352.792 198.219ZM230.199 196.269C229.397 196.804 228.289 197.645 227.754 198.104L226.798 198.907L227.562 197.989C228.9 196.346 230.199 195.314 230.964 195.275C231.46 195.275 231.231 195.581 230.199 196.269ZM237.498 197.148C237.613 197.34 237.193 197.875 236.543 198.334C235.244 199.251 235.129 199.098 236.008 197.76C236.658 196.766 237.116 196.575 237.498 197.148ZM325.545 203.456C326.92 204.335 328.678 205.291 329.404 205.596C330.13 205.864 331.392 206.705 332.194 207.393C333.837 208.846 333.952 208.884 335.404 208.005C336.818 207.24 338.117 207.508 339.875 209.037C341.595 210.566 342.168 210.528 341.862 208.96C341.633 207.852 341.671 207.775 342.168 208.272C342.474 208.578 343.353 211.521 344.079 214.771C344.805 218.02 346.295 223.524 347.365 227.003C351.683 241.032 351.531 244.855 345.837 263.738C342.665 274.174 340.754 279.487 338.155 285.145C336.933 287.821 335.557 291.337 335.098 292.981C334.64 294.663 334.219 296.039 334.181 296.116C334.105 296.192 333.761 295.619 333.417 294.892C332.576 293.134 329.175 290.038 326.844 288.891C324.933 287.935 321.8 287.668 319.774 288.279L318.781 288.623L318.819 281.972C318.895 276.276 318.819 275.168 318.207 274.098C317.29 272.377 315.036 271.039 312.284 270.466C310.106 270.007 309.953 269.931 310.526 269.357C310.87 269.013 311.061 268.44 310.947 268.134C310.565 267.14 308.845 266.72 304.488 266.491C302.272 266.376 300.208 266.146 299.941 265.955C299.138 265.458 300.629 264.121 303.418 262.821C305.406 261.865 306.437 261.636 308.577 261.636C310.947 261.636 311.558 261.789 313.736 262.974C316.641 264.579 316.832 265.306 314.692 266.491C313.851 266.987 313.163 267.637 313.163 267.981C313.163 268.364 314.118 269.243 315.456 270.046C317.29 271.192 318.246 271.498 320.156 271.651C323.596 271.88 326.5 270.428 330.704 266.185C336.398 260.489 339.034 255.673 339.111 250.703C339.149 247.492 338.729 246.46 333.455 236.751C330.054 230.558 328.143 226.047 325.698 218.784C323.825 213.242 321.15 204.067 320.424 200.627L320.118 199.327L321.57 200.589C322.373 201.277 324.169 202.577 325.545 203.456ZM345.302 208.731C346.372 209.878 345.951 209.878 344.614 208.731C344.002 208.234 343.697 207.508 344.041 207.508C344.117 207.508 344.652 208.043 345.302 208.731ZM26.7065 242.102C24.3372 258.234 20.4775 284.189 19.4457 290.841C18.4903 297.033 17.3439 301.162 15.8917 303.646C14.9364 305.214 14.7453 305.366 14.4396 304.793C13.6753 303.493 13.4078 298.983 13.7899 293.822C14.1339 288.165 15.5478 278.264 16.0446 277.653C16.1974 277.423 17.0382 273.83 17.9171 269.625C18.796 265.42 20.3628 258.54 21.3946 254.335C22.9996 247.874 24.1079 243.784 27.9675 230.52C28.1586 229.794 28.3879 229.297 28.4261 229.373C28.5025 229.411 27.7383 235.145 26.7065 242.102ZM291.954 248.295C291.075 249.939 289.699 252.041 288.859 252.997L287.33 254.717L289.699 250.13C290.999 247.607 292.336 245.237 292.68 244.816C293.979 243.326 293.559 245.313 291.954 248.295ZM125.644 253.838C128.472 254.679 130.459 256.322 131.109 258.234C131.682 259.992 131.376 266.835 130.497 271.345C129.962 274.136 127.096 281.246 126.676 280.825C126.599 280.787 126.714 279.755 126.943 278.608C127.173 277.461 127.249 274.442 127.134 271.919C126.943 266.414 126.217 263.968 123.237 258.731C122.09 256.705 121.02 254.488 120.905 253.799L120.638 252.538L121.937 252.806C122.663 252.958 124.307 253.417 125.644 253.838ZM150.369 286.062C151.592 290.688 153.426 297.645 154.458 301.544C155.451 305.443 157.171 312.476 158.241 317.178C159.273 321.88 160.649 327.308 161.26 329.219C163.171 335.221 166.343 339.579 171.884 343.936C176.049 347.186 179.297 349.135 184.418 351.391C186.711 352.423 189.119 353.455 189.73 353.761L190.876 354.296L189.539 354.066C188.813 353.913 187.972 353.684 187.628 353.493C187.322 353.34 185.87 352.805 184.38 352.346C178.418 350.511 172.189 347.071 168.75 343.784C163.285 338.508 160.228 332.201 155.757 316.834C154.381 312.094 152.547 305.978 151.706 303.264C149.872 297.377 147.503 283.883 147.503 279.487C147.503 277.614 147.656 276.735 147.847 277.079C148.038 277.385 149.184 281.437 150.369 286.062ZM130.344 292.37C131.147 296.039 133.134 303.952 134.739 309.954C139.592 328.264 140.204 330.748 140.624 334.151C141.465 341.108 139.325 347.606 135.083 350.97C130.077 354.907 120.256 356.436 112.498 354.487C104.32 352.384 98.3588 346.23 97.0596 338.547C95.8749 331.551 98.206 320.275 102.601 311.444C106.002 304.717 109.976 299.403 117.39 291.643C121.632 287.247 121.593 287.477 117.199 294.09C109.976 304.869 107.607 313.776 110.549 318.86C112.193 321.651 114.371 322.071 117.925 320.275C123.772 317.369 127.822 310.298 128.739 301.429C129.122 297.721 128.816 292.217 128.052 288.891C127.326 285.833 127.708 282.66 128.51 284.801C128.701 285.298 129.504 288.7 130.344 292.37ZM125.912 290.841C127.211 300.282 126.217 308.08 123.084 312.973C120.905 316.337 116.778 319.51 114.524 319.51C112.307 319.51 110.931 316.261 111.581 312.591C112.498 307.583 114.791 302.461 119.186 295.619C120.676 293.325 122.434 290.191 123.122 288.662C123.81 287.133 124.574 285.871 124.803 285.871C125.071 285.871 125.491 287.859 125.912 290.841ZM325.774 290.229C330.704 292.522 333.417 297.301 332.27 301.697C331.277 305.443 327.532 310.718 325.85 310.718C325.315 310.718 324.207 309.839 322.679 308.195C320.73 306.016 320.195 305.634 319.163 305.672C318.513 305.672 317.405 306.131 316.717 306.628C313.507 309.036 313.087 309.113 306.858 307.851C302.731 307.048 298.642 307.278 289.088 308.807C285.19 309.457 281.56 309.954 280.986 309.954C280.222 309.954 280.986 309.265 284.731 306.666C287.33 304.869 291.457 301.773 293.941 299.785C304.832 291.07 309.877 288.738 314.768 290.191C316.602 290.726 316.87 290.726 318.59 290.076C321.112 289.082 323.443 289.12 325.774 290.229ZM321.838 308.845C323.672 311.177 324.589 312.094 325.201 312.324C325.621 312.438 325.736 313.432 325.736 316.49C325.774 320.236 325.698 320.619 324.475 323.218C323.787 324.709 322.679 326.429 322.067 327.041C321.035 327.996 320.73 328.111 318.399 328.034C304.527 327.69 299.482 327.461 297.572 327.117C294.476 326.582 290.502 325.091 286.413 323.027C283.012 321.268 281.407 319.931 276.21 314.273L274.452 312.324L277.929 312.094C279.878 311.941 285.572 311.139 290.617 310.298C300.705 308.616 306.055 308.31 311.138 309.189C314.654 309.762 315.456 309.609 317.558 307.851C319.43 306.284 319.889 306.398 321.838 308.845ZM221.716 362.17C223.779 362.744 225.384 363.279 225.308 363.394C225.078 363.585 218.162 361.597 217.436 361.1C216.939 360.794 216.939 360.756 217.436 360.909C217.741 360.985 219.69 361.559 221.716 362.17ZM38.2091 391.413C38.2091 394.815 37.3301 399.67 35.1137 408.577C31.9036 421.612 29.9547 427.231 25.1779 437.246C22.0825 443.821 21.4328 445.809 21.3946 448.752C21.3946 451.199 22.0443 451.696 24.1843 450.855C26.6682 449.937 28.9229 450.09 33.6997 451.619C37.483 452.842 38.6294 453.034 42.9859 453.186C47.1513 453.339 49.2149 453.186 55.9789 452.231C60.4117 451.581 65.3796 450.931 67.0611 450.816C73.3665 450.32 80.7037 451.619 99.1613 456.474C112.116 459.914 113.989 460.22 127.249 461.137C141.58 462.131 148.191 463.507 164.317 468.783C174.291 472.032 176.202 472.529 179.794 472.567C183.501 472.605 186.558 471.726 192.711 468.859C196.379 467.177 197.335 466.91 199.284 466.91C203.678 466.91 205.474 468.439 213.882 479.295C224.161 492.597 228.938 497.299 235.205 500.319C241.587 503.377 246.02 503.53 255.383 501.122C258.707 500.243 262.987 499.325 264.936 499.019C268.911 498.408 275.14 497.911 275.14 498.217C275.14 498.523 271.586 500.052 267.229 501.619C258.44 504.83 250.988 506.091 245.561 505.327C241.167 504.715 237.919 503.568 229.664 499.593C222.212 496 219.996 495.159 213.805 493.668C211.703 493.171 209.487 492.559 208.837 492.292C208.073 491.986 206.544 491.909 204.175 492.101C200.392 492.368 199.589 492.139 196.876 490.075C195.959 489.348 195.73 489.042 196.112 488.813C196.876 488.316 200.163 488.431 203.105 489.042C207.041 489.883 211.398 489.807 213.194 488.851C215.487 487.705 215.448 487.131 212.926 484.494C211.703 483.194 209.716 480.671 208.493 478.836C204.366 472.682 201.691 470.694 198.672 471.611C196.265 472.338 194.392 474.899 190.456 483.041C185.374 493.515 183.348 496.458 180.291 498.064C175.934 500.319 170.623 497.567 163.362 489.272C157.706 482.85 153.464 480.098 146.739 478.53C144.751 478.072 141.427 477.269 139.325 476.772C134.777 475.702 131.758 474.325 128.281 471.726C123.695 468.324 121.593 468.209 116.014 471.038C111.619 473.255 106.804 476.734 100.155 482.353C89.4548 491.451 88.0027 492.636 85.0602 494.738C81.1241 497.567 77.7994 499.402 74.3983 500.625C71.6851 501.619 71.494 501.657 60.9467 501.657C50.8581 501.657 50.1702 501.695 48.7181 502.46C45.9284 503.912 44.6673 506.97 45.2788 510.908C45.4316 511.94 46.6163 514.73 48.1831 517.712C51.0109 523.217 51.9281 525.931 50.8963 525.931C50.5906 525.931 48.4506 525.09 46.1959 524.019C41.4955 521.84 39.3937 521.573 36.8715 522.873C35.9544 523.331 35.2283 523.484 35.0372 523.293C33.929 522.184 37.5594 514.654 43.5973 505.48C48.527 497.987 49.7499 495.885 54.2592 487.131C58.5774 478.76 61.8257 473.026 64.0803 469.815C65.6089 467.598 65.8382 466.68 64.9593 466.68C64.4625 466.68 61.4435 469.968 58.2717 473.943C54.7942 478.339 40.4255 499.096 37.2919 504.333C34.1583 509.493 31.789 515.266 31.4451 518.324C31.2158 520.464 31.3304 520.885 32.5151 523.293C33.2412 524.746 34.0437 525.931 34.3112 525.931C34.999 525.931 42.0305 531.703 42.0305 532.238C42.0305 533.079 39.7376 533.652 35.7251 533.843C31.0247 534.073 22.885 533.385 21.3946 532.62C18.5285 531.129 18.796 528.339 22.7321 520.006C23.6875 517.903 26.4007 511.787 28.7318 506.435C31.2158 500.701 34.3876 494.088 36.4894 490.38C41.0369 482.353 42.4891 478.798 42.3362 476.16C42.2598 475.09 42.0305 474.134 41.8012 474.058C40.9605 473.79 31.3304 486.94 26.7065 494.585C23.4964 499.937 19.14 508.805 17.3821 513.507C16.5796 515.61 15.3567 519.623 14.6689 522.452C13.2549 528.109 12.6817 529.256 11.2678 529.6C10.0067 529.906 9.31881 529.639 -0.731625 524.669L-9.25349 520.426L-12.196 520.388C-14.5271 520.388 -15.1003 520.503 -15.1003 520.961C-15.1003 521.726 -11.0496 524.363 -4.0563 528.186C2.09625 531.55 6.45272 534.417 8.17237 536.213L9.24239 537.322L8.09595 537.59C5.49735 538.125 0.682312 536.787 -8.25991 532.964C-19.3039 528.262 -21.2529 527.039 -22.2082 524.134C-23.4693 520.235 -19.1511 512.704 -2.64236 490.342C2.09625 483.92 7.63737 476.734 9.62453 474.402C13.5224 469.853 16.0064 465.801 15.2039 465.304C14.2867 464.731 1.10267 479.104 -9.82671 492.597C-17.0493 501.466 -21.0618 507.238 -23.3929 512.169C-25.5711 516.718 -26.1443 517.521 -27.2908 517.521C-28.5901 517.521 -29.5837 516.603 -31.8765 513.316C-33.0612 511.634 -36.0801 508.117 -38.5641 505.48C-41.048 502.88 -43.1881 500.396 -43.3027 499.975C-43.5702 498.905 -42.8441 497.682 -39.4812 493.477C-31.1887 483.041 -21.1764 475.128 0.988029 461.482C5.99414 458.385 11.3442 455.06 12.7963 454.066C14.2867 453.11 16.0828 452.116 16.8089 451.925C17.9935 451.581 18.2228 451.313 18.796 449.479C22.2736 438.087 29.8401 412.055 31.5597 405.519C34.6551 393.783 37.0626 387.132 37.8651 388.355C38.0562 388.661 38.2091 390.037 38.2091 391.413ZM149.796 392.636C152.203 393.86 154.611 395.198 155.146 395.618C155.681 396.039 154.381 395.503 152.28 394.471C147.847 392.216 145.248 390.802 144.904 390.381C144.599 390.037 144.331 389.922 149.796 392.636ZM29.8401 405.748C28.1586 411.597 25.0632 421.994 22.9996 428.836C20.8978 435.679 18.796 442.674 18.2992 444.394C17.4967 447.414 16.7324 448.714 17.0764 446.497C18.1464 439.731 24.1843 417.407 27.8147 406.665C29.3051 402.231 32.4769 394.701 32.7444 394.93C32.7826 395.006 31.4833 399.861 29.8401 405.748ZM57.0106 478.989C56.3992 480.098 54.5649 483.576 52.9217 486.749C49.3677 493.63 46.5016 498.599 43.5591 502.995C39.5466 508.958 37.3301 512.704 35.2665 516.756C33.5851 520.12 33.2794 520.579 33.2412 519.585C33.2029 515.686 37.5594 506.588 43.7502 497.643C44.8584 496.076 47.6863 491.833 50.0556 488.278C55.0617 480.747 57.6985 477.001 57.966 477.001C58.0424 477.001 57.6221 477.919 57.0106 478.989Z" fill="white" fill-opacity="0.45"/>
</svg>
